<svg width="153" height="137" viewBox="0 0 153 137" fill="none" xmlns="http://www.w3.org/2000/svg">
<path d="M151.126 51.8499H151.072L120.338 64.9733L78.2881 82.9291C78.1238 82.9982 77.9475 83.0342 77.7693 83.0352C77.591 83.0361 77.4143 83.0018 77.2493 82.9344L33.8659 64.9358L2.37706 51.8713L2.32897 51.8499H2.27536C1.77851 51.8504 1.30218 52.048 0.950857 52.3994C0.599535 52.7507 0.401921 53.227 0.401367 53.7239V135.11C0.401921 135.607 0.599535 136.083 0.950857 136.434C1.30218 136.786 1.77851 136.983 2.27536 136.984H151.126C151.623 136.983 152.099 136.786 152.45 136.434C152.802 136.083 152.999 135.607 153 135.11V53.7239C152.999 53.227 152.802 52.7507 152.45 52.3994C152.099 52.048 151.623 51.8504 151.126 51.8499Z" fill="#182430"/>
<path d="M151.26 52.3854C151.205 52.3854 151.152 52.3686 151.107 52.3374L77.0673 0.774248C76.842 0.618059 76.5743 0.534588 76.3001 0.535055C76.026 0.535522 75.7585 0.619904 75.5337 0.776861L2.02769 52.3369C1.96955 52.3775 1.89764 52.3935 1.82776 52.3811C1.75788 52.3688 1.69574 52.3293 1.65499 52.2712C1.61425 52.2131 1.59823 52.1412 1.61045 52.0713C1.62267 52.0014 1.66213 51.9392 1.72017 51.8984L75.2263 0.33844C75.541 0.118739 75.9154 0.000633304 76.2993 2.53978e-06C76.6831 -0.000628225 77.0579 0.116245 77.3734 0.334911L151.413 51.8979C151.459 51.9305 151.495 51.9772 151.513 52.0311C151.531 52.0851 151.532 52.1435 151.515 52.1979C151.498 52.2523 151.464 52.2998 151.418 52.3335C151.372 52.3672 151.317 52.3854 151.26 52.3854Z" fill="#AF272F"/>
<path d="M6.22754 54.2131L76.3723 2.22705L147.05 57.9121L79.9864 97.6678L43.5771 89.3688L6.22754 54.2131Z" fill="#2B333A"/>
<path d="M46.6509 122.224H11.9976C11.7848 122.224 11.574 122.183 11.3772 122.102C11.1804 122.021 11.0015 121.902 10.8507 121.752C10.6999 121.602 10.5802 121.423 10.4984 121.227C10.4166 121.03 10.3743 120.82 10.374 120.607C10.3737 120.394 10.4154 120.183 10.4966 119.987C10.5778 119.79 10.697 119.611 10.8473 119.461C10.9977 119.31 11.1762 119.191 11.3728 119.109C11.5693 119.028 11.78 118.986 11.9928 118.986H46.6509C46.8637 118.985 47.0745 119.026 47.2713 119.107C47.4681 119.188 47.647 119.307 47.7978 119.457C47.9486 119.607 48.0683 119.786 48.1501 119.982C48.2319 120.179 48.2742 120.389 48.2745 120.602C48.2748 120.815 48.2332 121.026 48.152 121.222C48.0707 121.419 47.9516 121.598 47.8012 121.748C47.6509 121.899 47.4723 122.019 47.2757 122.1C47.0792 122.182 46.8685 122.224 46.6557 122.224H46.6509Z" fill="#EE2737"/>
<path d="M24.4304 115.263H11.9976C11.7848 115.263 11.574 115.222 11.3772 115.141C11.1804 115.06 11.0015 114.941 10.8507 114.791C10.6999 114.641 10.5802 114.463 10.4984 114.266C10.4166 114.07 10.3743 113.859 10.374 113.646C10.3737 113.433 10.4154 113.223 10.4966 113.026C10.5778 112.829 10.697 112.651 10.8473 112.5C10.9977 112.349 11.1762 112.23 11.3728 112.148C11.5693 112.067 11.78 112.025 11.9928 112.025H24.4304C24.8594 112.025 25.2709 112.195 25.5745 112.498C25.8781 112.801 26.049 113.212 26.0496 113.641C26.0503 114.07 25.8806 114.482 25.5779 114.786C25.2752 115.09 24.8642 115.262 24.4352 115.263H24.4304Z" fill="#EE2737"/>
<path d="M77.3587 83.1686C77.0953 83.1689 76.8344 83.1178 76.5906 83.0181L33.3301 65.0681V8.88134C33.3307 8.3845 33.5283 7.90818 33.8796 7.55686C34.2309 7.20554 34.7072 7.00791 35.2041 7.00732H118.196C118.693 7.00791 119.169 7.20554 119.521 7.55686C119.872 7.90818 120.07 8.3845 120.07 8.88134V65.1073L119.989 65.1421L78.1501 83.0094C77.8995 83.1147 77.6305 83.1688 77.3587 83.1686Z" fill="#EE2737"/>
<path d="M150.724 51.8499H150.671L119.937 64.9733L77.8868 82.9291C77.7225 82.9982 77.5461 83.0342 77.3679 83.0351C77.1896 83.0361 77.0129 83.0018 76.8479 82.9344L33.4646 64.9358L1.97572 51.8713L1.92763 51.8499H1.87399C1.37715 51.8504 0.900811 52.048 0.54949 52.3994C0.198168 52.7507 0.000552559 53.227 0 53.7239V135.11C0.000552561 135.607 0.198168 136.083 0.54949 136.434C0.900812 136.786 1.37715 136.983 1.87399 136.984H150.724C151.221 136.983 151.698 136.786 152.049 136.434C152.4 136.083 152.598 135.607 152.598 135.11V53.7239C152.598 53.227 152.4 52.7507 152.049 52.3994C151.698 52.048 151.221 51.8504 150.724 51.8499ZM152.063 135.11C152.063 135.465 151.922 135.805 151.671 136.056C151.42 136.307 151.079 136.448 150.724 136.448H1.87399C1.51902 136.448 1.17863 136.307 0.927624 136.056C0.67662 135.805 0.535543 135.465 0.535402 135.11V53.7239C0.535887 53.3777 0.670159 53.0451 0.910146 52.7957C1.15013 52.5462 1.47726 52.3992 1.82314 52.3853L33.4646 65.5141L76.6419 83.4297C77.1093 83.6199 77.633 83.617 78.0983 83.4217L119.937 65.5543L150.778 52.3853C151.123 52.4002 151.449 52.5477 151.689 52.797C151.928 53.0463 152.062 53.3783 152.063 53.7239L152.063 135.11Z" fill="#AF272F"/>
<path d="M70.6249 28.0103H41.1761C40.6087 28.0093 40.0649 27.7832 39.6641 27.3816C39.2632 26.9801 39.0381 26.4359 39.0381 25.8685C39.0381 25.3012 39.2632 24.757 39.6641 24.3554C40.0649 23.9539 40.6087 23.7278 41.1761 23.7268H70.6249C71.1923 23.7278 71.7361 23.9539 72.1369 24.3554C72.5378 24.757 72.7629 25.3012 72.7629 25.8685C72.7629 26.4359 72.5378 26.9801 72.1369 27.3816C71.7361 27.7832 71.1923 28.0093 70.6249 28.0103Z" fill="#AF272F"/>
<path d="M55.3649 18.9077H41.1759C40.6079 18.9077 40.0631 18.6821 39.6615 18.2804C39.2598 17.8788 39.0342 17.334 39.0342 16.766C39.0342 16.198 39.2598 15.6532 39.6615 15.2516C40.0631 14.8499 40.6079 14.6243 41.1759 14.6243H55.3649C55.9329 14.6243 56.4777 14.8499 56.8793 15.2516C57.281 15.6532 57.5066 16.198 57.5066 16.766C57.5066 17.334 57.281 17.8788 56.8793 18.2804C56.4777 18.6821 55.9329 18.9077 55.3649 18.9077Z" fill="#AF272F"/>
<path d="M98.7265 49.4275H53.7501C53.1821 49.4275 52.6373 49.2019 52.2357 48.8002C51.834 48.3985 51.6084 47.8538 51.6084 47.2858C51.6084 46.7177 51.834 46.173 52.2357 45.7713C52.6373 45.3697 53.1821 45.144 53.7501 45.144H98.7265C99.2945 45.144 99.8393 45.3697 100.241 45.7713C100.643 46.173 100.868 46.7177 100.868 47.2858C100.868 47.8538 100.643 48.3985 100.241 48.8002C99.8393 49.2019 99.2945 49.4275 98.7265 49.4275Z" fill="#AF272F"/>
<path d="M98.7264 59.333H53.75C53.4684 59.3335 53.1895 59.2785 52.9292 59.1711C52.6689 59.0637 52.4324 58.906 52.2331 58.7071C52.0338 58.5081 51.8758 58.2719 51.7679 58.0118C51.66 57.7517 51.6045 57.4729 51.6045 57.1913C51.6045 56.9097 51.66 56.6309 51.7679 56.3708C51.8758 56.1107 52.0338 55.8745 52.2331 55.6755C52.4324 55.4766 52.6689 55.3189 52.9292 55.2115C53.1895 55.1041 53.4684 55.0491 53.75 55.0496H98.7264C99.0079 55.0491 99.2868 55.1041 99.5471 55.2115C99.8074 55.3189 100.044 55.4766 100.243 55.6755C100.442 55.8745 100.601 56.1107 100.708 56.3708C100.816 56.6309 100.872 56.9097 100.872 57.1913C100.872 57.4729 100.816 57.7517 100.708 58.0118C100.601 58.2719 100.442 58.5081 100.243 58.7071C100.044 58.906 99.8074 59.0637 99.5471 59.1711C99.2868 59.2785 99.0079 59.3335 98.7264 59.333Z" fill="#AF272F"/>
</svg>
