<svg width="465" height="440" viewBox="0 0 465 440" fill="none" xmlns="http://www.w3.org/2000/svg">
<path d="M463.97 137.821H236.96V429.161H463.97V137.821Z" fill="white"/>
<path d="M463.97 429.151C463.97 427.101 463.87 310.731 463.73 137.821L463.97 138.051H236.97L237.23 137.791C237.23 245.861 237.23 346.201 237.23 429.121L237.01 428.911L464.01 429.121L237.01 429.341H236.8V429.121C236.8 346.201 236.8 245.861 236.75 137.791V137.531H237.04H464.04H464.27V137.771C464.06 310.731 463.97 427.101 463.97 429.151Z" fill="#0B1219"/>
<path d="M440.54 248.971H261.09C260.289 248.971 259.64 249.62 259.64 250.421V279.021C259.64 279.822 260.289 280.471 261.09 280.471H440.54C441.34 280.471 441.99 279.822 441.99 279.021V250.421C441.99 249.62 441.34 248.971 440.54 248.971Z" fill="#EBEBEB"/>
<path d="M440.72 292.231H261.27C260.469 292.231 259.82 292.88 259.82 293.681V322.281C259.82 323.082 260.469 323.731 261.27 323.731H440.72C441.521 323.731 442.17 323.082 442.17 322.281V293.681C442.17 292.88 441.521 292.231 440.72 292.231Z" fill="#EBEBEB"/>
<path d="M279.59 262.921C279.59 264.501 278.44 265.461 276.59 265.461H274.79V267.661H273.79V260.381H276.63C278.41 260.361 279.59 261.321 279.59 262.921ZM278.59 262.921C278.59 261.921 277.89 261.281 276.59 261.281H274.82V264.551H276.59C277.82 264.531 278.52 263.921 278.52 262.921H278.59Z" fill="#0B1219"/>
<path d="M285.26 264.311V267.641H284.31V266.921C284.1 267.196 283.824 267.414 283.508 267.554C283.191 267.694 282.845 267.751 282.5 267.721C281.25 267.721 280.5 267.051 280.5 266.091C280.5 265.131 281.07 264.481 282.72 264.481H284.3V264.281C284.3 263.441 283.81 262.951 282.82 262.951C282.187 262.945 281.571 263.153 281.07 263.541L280.66 262.791C281.319 262.314 282.117 262.068 282.93 262.091C284.4 262.081 285.26 262.801 285.26 264.311ZM284.26 265.961V265.191H282.72C281.72 265.191 281.45 265.571 281.45 266.041C281.45 266.511 281.91 266.931 282.67 266.931C283.007 266.951 283.343 266.864 283.628 266.683C283.914 266.501 284.135 266.235 284.26 265.921V265.961Z" fill="#0B1219"/>
<path d="M286.41 267.061L286.82 266.271C287.399 266.643 288.072 266.841 288.76 266.841C289.69 266.841 290.07 266.561 290.07 266.091C290.07 264.851 286.59 265.931 286.59 263.731C286.59 262.731 287.47 262.081 288.89 262.081C289.589 262.067 290.28 262.239 290.89 262.581L290.47 263.371C289.993 263.068 289.435 262.914 288.87 262.931C288 262.931 287.57 263.251 287.57 263.691C287.57 264.991 291.07 263.931 291.07 266.071C291.07 267.071 290.16 267.711 288.69 267.711C287.882 267.729 287.087 267.503 286.41 267.061Z" fill="#0B1219"/>
<path d="M291.59 267.061L292.01 266.271C292.584 266.645 293.255 266.843 293.94 266.841C294.87 266.841 295.25 266.561 295.25 266.091C295.25 264.851 291.77 265.931 291.77 263.731C291.77 262.731 292.65 262.081 294.07 262.081C294.769 262.07 295.458 262.242 296.07 262.581L295.64 263.371C295.166 263.069 294.612 262.916 294.05 262.931C293.17 262.931 292.74 263.251 292.74 263.691C292.74 264.991 296.24 263.931 296.24 266.071C296.24 267.071 295.33 267.711 293.86 267.711C293.055 267.728 292.264 267.501 291.59 267.061Z" fill="#0B1219"/>
<path d="M305.77 262.131L303.71 267.641H302.71L301.12 263.461L299.59 267.641H298.59L296.59 262.131H297.54L299.14 266.521L300.8 262.131H301.59L303.22 266.541L304.86 262.131H305.77Z" fill="#0B1219"/>
<path d="M306.11 264.921C306.1 264.351 306.26 263.791 306.569 263.313C306.878 262.834 307.323 262.459 307.846 262.234C308.37 262.009 308.948 261.945 309.508 262.05C310.068 262.155 310.584 262.424 310.991 262.824C311.397 263.223 311.675 263.734 311.79 264.292C311.905 264.85 311.851 265.43 311.636 265.957C311.42 266.485 311.052 266.936 310.579 267.253C310.106 267.571 309.549 267.741 308.98 267.741C308.602 267.759 308.225 267.699 307.872 267.564C307.519 267.429 307.198 267.223 306.928 266.958C306.658 266.693 306.447 266.376 306.306 266.025C306.165 265.674 306.098 265.298 306.11 264.921ZM310.83 264.921C310.814 264.556 310.691 264.204 310.477 263.909C310.263 263.614 309.967 263.388 309.625 263.26C309.284 263.131 308.912 263.106 308.557 263.188C308.201 263.269 307.877 263.453 307.625 263.717C307.374 263.981 307.205 264.313 307.141 264.672C307.076 265.032 307.119 265.402 307.263 265.737C307.408 266.072 307.647 266.357 307.952 266.557C308.258 266.757 308.615 266.862 308.98 266.861C309.232 266.867 309.483 266.82 309.716 266.724C309.95 266.627 310.16 266.483 310.334 266.3C310.508 266.118 310.643 265.901 310.728 265.663C310.813 265.425 310.848 265.173 310.83 264.921Z" fill="#0B1219"/>
<path d="M316.19 262.081V263.081H315.96C315.716 263.065 315.471 263.104 315.244 263.194C315.017 263.285 314.813 263.424 314.647 263.603C314.48 263.782 314.355 263.996 314.282 264.229C314.208 264.462 314.187 264.709 314.22 264.951V267.691H313.22V262.181H314.22V263.101C314.421 262.765 314.712 262.491 315.06 262.311C315.408 262.131 315.799 262.051 316.19 262.081Z" fill="#0B1219"/>
<path d="M322.59 259.921V267.641H321.59V266.771C321.358 267.079 321.055 267.325 320.706 267.489C320.358 267.653 319.974 267.729 319.59 267.711C318.872 267.668 318.198 267.353 317.705 266.83C317.212 266.306 316.938 265.615 316.938 264.896C316.938 264.177 317.212 263.485 317.705 262.962C318.198 262.439 318.872 262.124 319.59 262.081C319.966 262.051 320.344 262.111 320.692 262.257C321.04 262.404 321.348 262.631 321.59 262.921V259.921H322.59ZM321.59 264.921C321.574 264.557 321.452 264.205 321.238 263.91C321.024 263.615 320.729 263.389 320.388 263.26C320.047 263.132 319.676 263.106 319.32 263.187C318.965 263.267 318.641 263.451 318.389 263.714C318.137 263.977 317.967 264.308 317.902 264.666C317.836 265.025 317.877 265.395 318.02 265.73C318.163 266.065 318.401 266.351 318.705 266.552C319.009 266.753 319.365 266.86 319.73 266.861C319.982 266.867 320.234 266.82 320.468 266.724C320.701 266.627 320.912 266.483 321.087 266.301C321.262 266.118 321.397 265.901 321.484 265.664C321.57 265.426 321.606 265.173 321.59 264.921Z" fill="#0B1219"/>
<path d="M273.09 309.301C273.083 308.798 273.179 308.299 273.372 307.834C273.565 307.37 273.851 306.95 274.213 306.6C274.574 306.25 275.004 305.979 275.475 305.802C275.946 305.625 276.448 305.546 276.95 305.571C277.465 305.551 277.978 305.642 278.455 305.839C278.931 306.036 279.359 306.333 279.71 306.711L279.04 307.361C278.779 307.081 278.461 306.859 278.107 306.711C277.754 306.563 277.373 306.491 276.99 306.501C276.248 306.501 275.535 306.796 275.01 307.321C274.485 307.846 274.19 308.558 274.19 309.301C274.19 310.043 274.485 310.756 275.01 311.281C275.535 311.806 276.248 312.101 276.99 312.101C277.375 312.109 277.757 312.035 278.111 311.883C278.464 311.731 278.781 311.505 279.04 311.221L279.71 311.881C279.358 312.259 278.928 312.557 278.45 312.753C277.972 312.95 277.457 313.041 276.94 313.021C276.439 313.044 275.939 312.965 275.47 312.788C275.001 312.61 274.573 312.339 274.213 311.991C273.852 311.643 273.567 311.224 273.374 310.762C273.181 310.299 273.084 309.802 273.09 309.301Z" fill="#0B1219"/>
<path d="M280.31 310.181C280.3 309.612 280.459 309.052 280.768 308.574C281.077 308.096 281.521 307.72 282.044 307.495C282.567 307.27 283.145 307.205 283.705 307.309C284.264 307.413 284.78 307.682 285.187 308.08C285.594 308.478 285.873 308.989 285.989 309.546C286.105 310.103 286.053 310.683 285.838 311.21C285.624 311.738 285.258 312.19 284.786 312.508C284.315 312.827 283.759 312.999 283.19 313.001C282.812 313.019 282.434 312.959 282.081 312.824C281.727 312.689 281.405 312.483 281.135 312.219C280.864 311.954 280.652 311.636 280.51 311.286C280.368 310.935 280.3 310.559 280.31 310.181ZM285.04 310.181C285.04 309.687 284.844 309.214 284.495 308.866C284.146 308.517 283.673 308.321 283.18 308.321C282.686 308.321 282.213 308.517 281.864 308.866C281.516 309.214 281.32 309.687 281.32 310.181C281.32 310.674 281.516 311.147 281.864 311.496C282.213 311.845 282.686 312.041 283.18 312.041C283.673 312.041 284.146 311.845 284.495 311.496C284.844 311.147 285.04 310.674 285.04 310.181Z" fill="#0B1219"/>
<path d="M292.66 309.771V312.921H291.66V309.921C291.66 308.841 291.12 308.311 290.18 308.311C289.938 308.291 289.695 308.325 289.468 308.412C289.241 308.498 289.036 308.633 288.869 308.809C288.701 308.984 288.575 309.195 288.499 309.425C288.423 309.656 288.399 309.9 288.43 310.141V312.921H287.43V307.411H288.43V308.241C288.666 307.942 288.972 307.705 289.32 307.55C289.669 307.395 290.049 307.326 290.43 307.351C290.743 307.335 291.057 307.388 291.348 307.507C291.638 307.626 291.899 307.807 292.112 308.038C292.325 308.269 292.484 308.544 292.579 308.843C292.674 309.143 292.701 309.459 292.66 309.771Z" fill="#0B1219"/>
<path d="M296.48 305.161C296.878 305.143 297.271 305.255 297.6 305.481L297.3 306.241C297.078 306.073 296.808 305.981 296.53 305.981C295.94 305.981 295.64 306.311 295.64 306.981V307.461H297.24V308.281H295.66V312.921H294.66V308.231H293.72V307.411H294.66V306.921C294.642 306.68 294.678 306.438 294.764 306.213C294.85 305.987 294.985 305.783 295.158 305.615C295.332 305.448 295.54 305.32 295.769 305.241C295.997 305.163 296.24 305.135 296.48 305.161ZM298.84 305.721C298.84 305.632 298.857 305.545 298.892 305.463C298.926 305.382 298.977 305.308 299.04 305.247C299.103 305.185 299.179 305.137 299.261 305.105C299.343 305.073 299.431 305.058 299.52 305.061C299.646 305.067 299.769 305.109 299.871 305.184C299.974 305.258 300.053 305.361 300.097 305.48C300.142 305.598 300.152 305.728 300.124 305.851C300.097 305.975 300.033 306.088 299.942 306.176C299.851 306.265 299.736 306.325 299.612 306.348C299.487 306.372 299.359 306.359 299.241 306.311C299.124 306.262 299.024 306.181 298.952 306.076C298.881 305.971 298.842 305.848 298.84 305.721ZM299.02 307.431H300.02V312.921H299.02V307.431Z" fill="#0B1219"/>
<path d="M304.88 307.371V308.371H304.65C304.407 308.355 304.164 308.394 303.938 308.484C303.712 308.573 303.509 308.712 303.344 308.89C303.178 309.068 303.054 309.281 302.981 309.513C302.908 309.745 302.887 309.99 302.92 310.231V312.921H301.92V307.411H302.87V308.331C303.083 308 303.384 307.735 303.739 307.566C304.094 307.396 304.489 307.329 304.88 307.371Z" fill="#0B1219"/>
<path d="M315.27 309.771V312.921H314.27V309.921C314.27 308.841 313.75 308.311 312.84 308.311C311.93 308.311 311.19 308.941 311.19 310.141V312.921H310.19V309.921C310.19 308.841 309.67 308.311 308.76 308.311C307.85 308.311 307.11 308.941 307.11 310.141V312.921H306.11V307.411H307.11V308.231C307.33 307.938 307.618 307.705 307.95 307.552C308.281 307.398 308.646 307.329 309.01 307.351C309.391 307.318 309.773 307.394 310.112 307.571C310.45 307.749 310.731 308.019 310.92 308.351C311.167 308.023 311.49 307.76 311.861 307.586C312.232 307.411 312.641 307.331 313.05 307.351C313.364 307.333 313.678 307.385 313.969 307.503C314.261 307.621 314.522 307.803 314.734 308.034C314.947 308.266 315.105 308.542 315.198 308.842C315.291 309.143 315.315 309.46 315.27 309.771Z" fill="#0B1219"/>
<path d="M325.93 308.201C325.93 309.781 324.78 310.731 322.93 310.731H321.13V312.921H320.13V305.641H322.97C324.78 305.661 325.93 306.611 325.93 308.201ZM324.88 308.201C324.88 307.201 324.19 306.561 322.88 306.561H321.09V309.831H322.86C324.19 309.831 324.88 309.241 324.88 308.201Z" fill="#0B1219"/>
<path d="M331.59 309.611V312.921H330.65V312.191C330.438 312.464 330.162 312.679 329.846 312.817C329.529 312.955 329.184 313.011 328.84 312.981C327.59 312.981 326.84 312.321 326.84 311.361C326.84 310.401 327.41 309.751 329.05 309.751H330.59V309.551C330.59 308.711 330.11 308.221 329.12 308.221C328.487 308.215 327.87 308.423 327.37 308.811L326.95 308.061C327.61 307.578 328.412 307.328 329.23 307.351C330.77 307.371 331.59 308.101 331.59 309.611ZM330.59 311.251V310.481H329.05C328.05 310.481 327.79 310.871 327.79 311.341C327.79 311.811 328.24 312.231 329 312.231C329.335 312.258 329.669 312.177 329.955 312.001C330.241 311.825 330.463 311.562 330.59 311.251Z" fill="#0B1219"/>
<path d="M332.78 312.361L333.19 311.571C333.769 311.943 334.442 312.141 335.13 312.141C336.05 312.141 336.44 311.861 336.44 311.391C336.44 310.151 332.95 311.221 332.95 309.031C332.95 308.031 333.84 307.371 335.25 307.371C335.949 307.36 336.639 307.532 337.25 307.871L336.82 308.661C336.343 308.366 335.791 308.217 335.23 308.231C334.36 308.231 333.93 308.551 333.93 308.991C333.93 310.291 337.43 309.231 337.43 311.371C337.43 312.371 336.51 313.001 335.04 313.001C334.24 313.018 333.453 312.795 332.78 312.361Z" fill="#0B1219"/>
<path d="M337.99 312.361L338.4 311.571C338.979 311.943 339.652 312.141 340.34 312.141C341.26 312.141 341.65 311.861 341.65 311.391C341.65 310.151 338.16 311.221 338.16 309.031C338.16 308.031 339.05 307.371 340.46 307.371C341.159 307.36 341.849 307.532 342.46 307.871L342.03 308.661C341.553 308.366 341.001 308.217 340.44 308.231C339.57 308.231 339.14 308.551 339.14 308.991C339.14 310.291 342.64 309.231 342.64 311.371C342.64 312.371 341.72 313.001 340.25 313.001C339.45 313.018 338.663 312.795 337.99 312.361Z" fill="#0B1219"/>
<path d="M352.14 307.431L350.08 312.921H349.08L347.49 308.741L345.91 312.921H344.91L342.91 307.411H343.85L345.46 311.801L347.12 307.411H347.96L349.6 311.821L351.24 307.411L352.14 307.431Z" fill="#0B1219"/>
<path d="M352.48 310.181C352.47 309.611 352.63 309.051 352.939 308.573C353.248 308.094 353.693 307.719 354.216 307.494C354.74 307.269 355.318 307.205 355.878 307.31C356.438 307.415 356.954 307.684 357.361 308.084C357.767 308.483 358.046 308.994 358.16 309.552C358.275 310.11 358.221 310.69 358.006 311.217C357.79 311.745 357.422 312.196 356.949 312.513C356.476 312.831 355.92 313.001 355.35 313.001C354.972 313.019 354.595 312.959 354.242 312.824C353.889 312.689 353.568 312.483 353.298 312.218C353.029 311.953 352.817 311.636 352.676 311.285C352.535 310.934 352.468 310.558 352.48 310.181ZM357.2 310.181C357.2 309.687 357.004 309.214 356.655 308.866C356.306 308.517 355.833 308.321 355.34 308.321C354.846 308.321 354.373 308.517 354.025 308.866C353.676 309.214 353.48 309.687 353.48 310.181C353.48 310.674 353.676 311.147 354.025 311.496C354.373 311.845 354.846 312.041 355.34 312.041C355.833 312.041 356.306 311.845 356.655 311.496C357.004 311.147 357.2 310.674 357.2 310.181Z" fill="#0B1219"/>
<path d="M362.59 307.371V308.371H362.36C362.117 308.354 361.872 308.391 361.645 308.48C361.418 308.569 361.214 308.708 361.047 308.886C360.88 309.064 360.756 309.278 360.682 309.51C360.608 309.743 360.587 309.989 360.62 310.231V312.921H359.62V307.411H360.62V308.331C360.829 308.006 361.123 307.744 361.471 307.575C361.818 307.406 362.205 307.335 362.59 307.371Z" fill="#0B1219"/>
<path d="M368.93 305.221V312.921H367.93V312.051C367.7 312.36 367.397 312.606 367.048 312.769C366.699 312.931 366.315 313.004 365.93 312.981C365.213 312.938 364.539 312.623 364.046 312.099C363.553 311.576 363.278 310.885 363.278 310.166C363.278 309.447 363.553 308.755 364.046 308.232C364.539 307.709 365.213 307.393 365.93 307.351C366.298 307.335 366.664 307.408 366.998 307.563C367.332 307.718 367.624 307.95 367.85 308.241V305.241L368.93 305.221ZM367.93 310.221C367.913 309.857 367.789 309.506 367.573 309.212C367.358 308.918 367.061 308.694 366.72 308.567C366.378 308.44 366.007 308.417 365.652 308.499C365.297 308.581 364.974 308.766 364.723 309.031C364.472 309.295 364.305 309.627 364.241 309.986C364.178 310.345 364.221 310.714 364.365 311.049C364.51 311.383 364.749 311.668 365.054 311.867C365.359 312.067 365.716 312.172 366.08 312.171C366.338 312.179 366.595 312.132 366.833 312.034C367.071 311.935 367.286 311.786 367.462 311.598C367.638 311.409 367.772 311.185 367.854 310.941C367.937 310.697 367.966 310.437 367.94 310.181L367.93 310.221Z" fill="#0B1219"/>
<path d="M439.65 341.011H260.21C259.409 341.011 258.76 341.66 258.76 342.461V371.061C258.76 371.862 259.409 372.511 260.21 372.511H439.65C440.451 372.511 441.1 371.862 441.1 371.061V342.461C441.1 341.66 440.451 341.011 439.65 341.011Z" fill="#EE2737"/>
<path d="M327.38 357.001C327.376 356.484 327.479 355.973 327.681 355.498C327.884 355.023 328.182 354.595 328.558 354.24C328.933 353.886 329.377 353.612 329.863 353.437C330.348 353.261 330.865 353.188 331.38 353.221C331.972 353.192 332.563 353.301 333.106 353.539C333.649 353.776 334.129 354.136 334.51 354.591L333.2 355.781C333 355.513 332.741 355.296 332.442 355.147C332.143 354.997 331.814 354.92 331.48 354.921C330.952 354.957 330.458 355.193 330.097 355.58C329.735 355.967 329.535 356.477 329.535 357.006C329.535 357.535 329.735 358.045 330.097 358.432C330.458 358.819 330.952 359.054 331.48 359.091C331.814 359.089 332.142 359.011 332.441 358.862C332.739 358.713 332.999 358.497 333.2 358.231L334.51 359.421C334.128 359.873 333.647 360.232 333.104 360.47C332.562 360.707 331.972 360.817 331.38 360.791C330.864 360.824 330.347 360.75 329.86 360.574C329.374 360.398 328.929 360.124 328.554 359.768C328.178 359.412 327.88 358.983 327.678 358.507C327.476 358.031 327.375 357.518 327.38 357.001Z" fill="white"/>
<path d="M341.34 357.421V360.651H339.34V357.741C339.34 356.931 338.98 356.591 338.41 356.591C337.84 356.591 337.29 356.981 337.29 357.921V360.651H335.29V352.921H337.29V355.531C337.752 355.114 338.358 354.891 338.98 354.911C339.31 354.885 339.641 354.934 339.949 355.053C340.257 355.172 340.535 355.359 340.761 355.6C340.988 355.841 341.158 356.13 341.258 356.445C341.358 356.76 341.386 357.093 341.34 357.421Z" fill="white"/>
<path d="M347.87 357.511V360.651H346.03V359.921C345.859 360.203 345.611 360.431 345.315 360.576C345.019 360.721 344.687 360.779 344.36 360.741C343.01 360.741 342.26 359.981 342.26 359.001C342.26 358.021 343.02 357.321 344.77 357.321H345.89C345.89 356.741 345.47 356.421 344.69 356.421C344.141 356.423 343.607 356.594 343.16 356.911L342.5 355.571C343.252 355.123 344.114 354.894 344.99 354.911C346.82 354.921 347.87 355.721 347.87 357.511ZM345.87 358.841V358.351H345.02C344.38 358.351 344.15 358.571 344.15 358.921C344.15 359.271 344.43 359.491 344.89 359.491C345.104 359.504 345.317 359.448 345.497 359.331C345.677 359.214 345.815 359.042 345.89 358.841H345.87Z" fill="white"/>
<path d="M355.12 357.421V360.651H353.12V357.741C353.12 356.931 352.77 356.591 352.2 356.591C351.63 356.591 351.07 356.981 351.07 357.921V360.651H349.07V355.011H350.95V355.621C351.184 355.386 351.464 355.202 351.772 355.08C352.08 354.958 352.409 354.9 352.74 354.911C353.072 354.882 353.405 354.928 353.716 355.046C354.027 355.164 354.307 355.351 354.536 355.592C354.764 355.833 354.936 356.123 355.037 356.44C355.138 356.756 355.167 357.092 355.12 357.421Z" fill="white"/>
<path d="M362.51 355.011V359.621C362.51 361.751 361.3 362.761 359.2 362.761C358.214 362.796 357.24 362.538 356.4 362.021L357.12 360.641C357.676 361.032 358.34 361.241 359.02 361.241C360.08 361.241 360.53 360.761 360.53 359.881V359.691C360.318 359.918 360.058 360.095 359.769 360.209C359.48 360.323 359.17 360.372 358.86 360.351C358.138 360.351 357.446 360.064 356.936 359.554C356.426 359.044 356.14 358.352 356.14 357.631C356.14 356.909 356.426 356.218 356.936 355.707C357.446 355.197 358.138 354.911 358.86 354.911C359.196 354.886 359.533 354.944 359.842 355.08C360.151 355.216 360.421 355.426 360.63 355.691V355.011H362.51ZM360.51 357.631C360.526 357.385 360.467 357.14 360.342 356.927C360.217 356.714 360.031 356.544 359.808 356.439C359.586 356.333 359.336 356.297 359.093 356.335C358.849 356.374 358.622 356.484 358.442 356.652C358.262 356.821 358.137 357.039 358.082 357.28C358.028 357.52 358.047 357.772 358.138 358.001C358.228 358.231 358.385 358.428 358.589 358.567C358.792 358.706 359.033 358.78 359.28 358.781C359.444 358.806 359.611 358.794 359.771 358.747C359.93 358.701 360.077 358.62 360.202 358.51C360.327 358.401 360.426 358.265 360.493 358.113C360.56 357.961 360.593 357.797 360.59 357.631H360.51Z" fill="white"/>
<path d="M369.51 358.331H365.41C365.503 358.618 365.691 358.864 365.945 359.028C366.198 359.192 366.5 359.264 366.8 359.231C367.281 359.245 367.748 359.069 368.1 358.741L369.1 359.821C368.792 360.144 368.416 360.394 367.999 360.553C367.582 360.712 367.135 360.776 366.69 360.741C364.69 360.741 363.38 359.501 363.38 357.811C363.382 357.412 363.465 357.019 363.625 356.654C363.785 356.289 364.017 355.961 364.308 355.689C364.6 355.417 364.944 355.208 365.319 355.074C365.694 354.94 366.092 354.885 366.49 354.911C366.885 354.885 367.28 354.943 367.651 355.08C368.022 355.217 368.36 355.431 368.643 355.707C368.926 355.984 369.147 356.316 369.293 356.684C369.439 357.051 369.506 357.446 369.49 357.841C369.59 357.981 369.52 358.171 369.51 358.331ZM365.38 357.281H367.69C367.646 357.006 367.505 356.757 367.293 356.577C367.082 356.396 366.813 356.297 366.535 356.297C366.257 356.297 365.988 356.396 365.776 356.577C365.565 356.757 365.424 357.006 365.38 357.281Z" fill="white"/>
<path d="M332.97 204.301H331.3V207.171H328.24V196.361H333.18C336.13 196.361 337.99 197.891 337.99 200.361C338.017 201.076 337.829 201.782 337.452 202.39C337.074 202.997 336.523 203.478 335.87 203.771L338.2 207.171H334.93L332.97 204.301ZM332.97 198.771H331.27V201.921H332.97C334.23 201.921 334.87 201.341 334.87 200.351C334.87 199.361 334.26 198.771 333 198.771H332.97Z" fill="#0B1219"/>
<path d="M348.04 203.731H341.96C342.091 204.149 342.36 204.509 342.724 204.753C343.088 204.997 343.524 205.109 343.96 205.071C344.314 205.084 344.667 205.026 344.999 204.901C345.33 204.775 345.633 204.585 345.89 204.341L347.43 205.951C346.972 206.424 346.416 206.791 345.801 207.026C345.186 207.261 344.527 207.358 343.87 207.311C340.87 207.311 338.96 205.471 338.96 202.971C338.96 202.38 339.081 201.795 339.316 201.253C339.551 200.711 339.895 200.223 340.326 199.819C340.757 199.415 341.267 199.104 341.823 198.905C342.379 198.706 342.97 198.622 343.56 198.661C344.147 198.621 344.735 198.705 345.287 198.907C345.839 199.11 346.343 199.426 346.765 199.835C347.187 200.244 347.519 200.737 347.739 201.282C347.958 201.828 348.061 202.413 348.04 203.001C348.09 203.221 348.06 203.491 348.04 203.731ZM341.91 202.181H345.34C345.271 201.776 345.06 201.409 344.747 201.144C344.433 200.88 344.035 200.735 343.625 200.735C343.214 200.735 342.817 200.88 342.503 201.144C342.189 201.409 341.979 201.776 341.91 202.181Z" fill="#0B1219"/>
<path d="M348.78 206.441L349.66 204.441C350.552 204.942 351.557 205.207 352.58 205.211C353.58 205.211 353.89 204.991 353.89 204.641C353.89 203.511 348.95 204.791 348.95 201.441C348.95 199.871 350.4 198.661 353.03 198.661C354.17 198.639 355.3 198.882 356.33 199.371L355.45 201.371C354.713 200.964 353.883 200.754 353.04 200.761C352.04 200.761 351.7 201.031 351.7 201.341C351.7 202.501 356.63 201.251 356.63 204.571C356.63 206.111 355.21 207.321 352.49 207.321C351.199 207.343 349.924 207.04 348.78 206.441Z" fill="#0B1219"/>
<path d="M366.4 203.731H360.32C360.453 204.148 360.722 204.507 361.086 204.751C361.449 204.994 361.884 205.107 362.32 205.071C362.674 205.084 363.028 205.026 363.359 204.901C363.69 204.775 363.993 204.585 364.25 204.341L365.8 205.951C365.34 206.424 364.782 206.791 364.166 207.025C363.549 207.26 362.889 207.358 362.23 207.311C359.23 207.311 357.32 205.471 357.32 202.971C357.32 202.38 357.442 201.795 357.677 201.253C357.912 200.711 358.256 200.223 358.687 199.819C359.118 199.415 359.627 199.104 360.183 198.905C360.74 198.706 361.331 198.622 361.92 198.661C362.507 198.621 363.095 198.705 363.647 198.907C364.2 199.11 364.703 199.426 365.125 199.835C365.548 200.244 365.879 200.737 366.099 201.282C366.319 201.828 366.421 202.413 366.4 203.001C366.45 203.221 366.42 203.491 366.4 203.731ZM360.27 202.181H363.7C363.648 201.771 363.443 201.396 363.126 201.131C362.809 200.865 362.403 200.73 361.99 200.751C361.578 200.734 361.173 200.871 360.856 201.135C360.538 201.399 360.329 201.772 360.27 202.181Z" fill="#0B1219"/>
<path d="M373.59 206.831C372.977 207.165 372.287 207.331 371.59 207.311C369.44 207.311 368.19 206.311 368.19 204.111V201.301H366.97V199.111H368.19V196.921H371.12V199.101H373.04V201.291H371.12V204.071C371.097 204.197 371.103 204.326 371.137 204.45C371.172 204.573 371.233 204.687 371.318 204.783C371.403 204.88 371.508 204.955 371.626 205.005C371.744 205.055 371.872 205.077 372 205.071C372.319 205.075 372.632 204.985 372.9 204.811L373.59 206.831Z" fill="#0B1219"/>
<path d="M296.49 220.631V224.511H293.43V220.581L289.31 213.701H292.53L295.1 217.991L297.66 213.701H300.66L296.49 220.631Z" fill="#0B1219"/>
<path d="M299.81 220.311C299.81 217.791 301.81 216.001 304.53 216.001C307.25 216.001 309.26 217.791 309.26 220.311C309.26 222.831 307.26 224.651 304.53 224.651C301.8 224.651 299.81 222.841 299.81 220.311ZM306.29 220.311C306.316 220.064 306.29 219.814 306.214 219.578C306.137 219.342 306.012 219.124 305.846 218.94C305.68 218.755 305.477 218.607 305.25 218.506C305.023 218.405 304.778 218.353 304.53 218.353C304.281 218.353 304.036 218.405 303.809 218.506C303.582 218.607 303.379 218.755 303.213 218.94C303.047 219.124 302.922 219.342 302.846 219.578C302.769 219.814 302.743 220.064 302.77 220.311C302.743 220.558 302.769 220.807 302.846 221.044C302.922 221.28 303.047 221.497 303.213 221.682C303.379 221.867 303.582 222.014 303.809 222.115C304.036 222.216 304.281 222.269 304.53 222.269C304.778 222.269 305.023 222.216 305.25 222.115C305.477 222.014 305.68 221.867 305.846 221.682C306.012 221.497 306.137 221.28 306.214 221.044C306.29 220.807 306.316 220.558 306.29 220.311Z" fill="#0B1219"/>
<path d="M319.42 216.141V224.511H316.59V223.611C316.268 223.942 315.88 224.203 315.451 224.375C315.022 224.547 314.562 224.628 314.1 224.611C312.1 224.611 310.55 223.431 310.55 220.781V216.101H313.48V220.301C313.48 221.601 313.99 222.101 314.87 222.101C315.75 222.101 316.45 221.531 316.45 220.101V216.101L319.42 216.141Z" fill="#0B1219"/>
<path d="M326.91 216.001V218.641C326.692 218.611 326.471 218.594 326.25 218.591C325.975 218.562 325.696 218.597 325.436 218.692C325.175 218.787 324.94 218.94 324.747 219.14C324.555 219.339 324.41 219.579 324.324 219.843C324.238 220.106 324.212 220.386 324.25 220.661V224.511H321.32V216.141H324.11V217.141C324.458 216.749 324.892 216.442 325.378 216.245C325.863 216.047 326.387 215.963 326.91 216.001Z" fill="#0B1219"/>
<path d="M342.53 217.701C342.53 220.151 340.67 221.701 337.72 221.701H335.84V224.531H332.78V213.701H337.72C340.67 213.701 342.53 215.231 342.53 217.701ZM339.44 217.701C339.44 216.701 338.8 216.111 337.54 216.111H335.84V219.271H337.59C338.8 219.271 339.44 218.691 339.44 217.701Z" fill="#0B1219"/>
<path d="M351.64 219.861V224.511H348.91V223.431C348.656 223.85 348.288 224.188 347.848 224.404C347.409 224.62 346.916 224.706 346.43 224.651C344.43 224.651 343.31 223.521 343.31 222.071C343.31 220.621 344.44 219.571 347.04 219.571H348.7C348.7 218.721 348.09 218.241 346.93 218.241C346.117 218.24 345.324 218.492 344.66 218.961L343.66 216.961C344.774 216.295 346.051 215.949 347.35 215.961C350.08 216.001 351.64 217.201 351.64 219.861ZM348.7 221.861V221.131H347.44C346.5 221.131 346.16 221.471 346.16 221.981C346.16 222.491 346.56 222.831 347.25 222.831C347.569 222.847 347.885 222.757 348.148 222.574C348.41 222.391 348.604 222.126 348.7 221.821V221.861Z" fill="#0B1219"/>
<path d="M352.83 223.781L353.71 221.781C354.598 222.292 355.605 222.561 356.63 222.561C357.63 222.561 357.94 222.341 357.94 221.991C357.94 220.861 353 222.141 353 218.791C353 217.211 354.45 216.011 357.07 216.011C358.214 215.988 359.347 216.231 360.38 216.721L359.5 218.721C358.763 218.312 357.933 218.098 357.09 218.101C356.09 218.101 355.75 218.381 355.75 218.691C355.75 219.851 360.67 218.601 360.67 221.921C360.67 223.461 359.25 224.671 356.53 224.671C355.241 224.691 353.969 224.384 352.83 223.781Z" fill="#0B1219"/>
<path d="M361.28 223.781L362.16 221.781C363.046 222.29 364.049 222.559 365.07 222.561C366.07 222.561 366.39 222.341 366.39 221.991C366.39 220.861 361.45 222.141 361.45 218.791C361.45 217.211 362.9 216.011 365.52 216.011C366.664 215.989 367.796 216.232 368.83 216.721L367.95 218.721C367.212 218.314 366.383 218.101 365.54 218.101C364.54 218.101 364.19 218.381 364.19 218.691C364.19 219.851 369.12 218.601 369.12 221.921C369.12 223.461 367.7 224.671 364.98 224.671C363.692 224.691 362.419 224.385 361.28 223.781Z" fill="#0B1219"/>
<path d="M384.1 216.141L381.1 224.511H378.26L376.7 219.921L375.07 224.481H372.23L369.23 216.111H372.01L373.72 221.171L375.49 216.111H378L379.73 221.221L381.5 216.111L384.1 216.141Z" fill="#0B1219"/>
<path d="M384.24 220.311C384.24 217.791 386.24 216.001 388.97 216.001C391.7 216.001 393.69 217.791 393.69 220.311C393.69 222.831 391.69 224.651 388.97 224.651C386.25 224.651 384.24 222.841 384.24 220.311ZM390.73 220.311C390.686 219.974 390.546 219.656 390.326 219.397C390.106 219.137 389.816 218.947 389.491 218.848C389.166 218.748 388.819 218.745 388.492 218.838C388.165 218.931 387.871 219.116 387.646 219.371C387.422 219.627 387.275 219.941 387.225 220.278C387.174 220.614 387.222 220.958 387.361 221.268C387.501 221.578 387.727 221.841 388.012 222.026C388.298 222.211 388.63 222.31 388.97 222.311C389.223 222.313 389.473 222.261 389.704 222.158C389.935 222.055 390.141 221.903 390.308 221.714C390.475 221.524 390.599 221.3 390.672 221.058C390.745 220.816 390.765 220.561 390.73 220.311Z" fill="#0B1219"/>
<path d="M400.66 216.001V218.641C400.438 218.611 400.214 218.594 399.99 218.591C399.714 218.56 399.434 218.594 399.173 218.688C398.911 218.782 398.675 218.935 398.482 219.135C398.289 219.335 398.144 219.576 398.059 219.841C397.974 220.105 397.95 220.386 397.99 220.661V224.511H395.05V216.141H397.85V217.141C398.198 216.746 398.633 216.438 399.121 216.24C399.608 216.042 400.135 215.96 400.66 216.001Z" fill="#0B1219"/>
<path d="M410.68 213.051V224.511H407.89V223.671C407.584 224.015 407.203 224.284 406.776 224.458C406.35 224.631 405.889 224.704 405.43 224.671C404.319 224.617 403.271 224.138 402.503 223.333C401.736 222.528 401.308 221.458 401.308 220.346C401.308 219.233 401.736 218.164 402.503 217.358C403.271 216.553 404.319 216.074 405.43 216.021C405.855 215.997 406.28 216.06 406.679 216.208C407.079 216.356 407.443 216.585 407.75 216.881V213.071L410.68 213.051ZM407.79 220.311C407.745 219.973 407.604 219.655 407.384 219.395C407.163 219.135 406.872 218.945 406.546 218.846C406.219 218.748 405.871 218.746 405.544 218.84C405.216 218.935 404.923 219.122 404.699 219.379C404.476 219.636 404.331 219.953 404.282 220.29C404.234 220.627 404.284 220.972 404.427 221.281C404.57 221.591 404.799 221.853 405.086 222.035C405.374 222.218 405.709 222.314 406.05 222.311C406.301 222.312 406.55 222.259 406.779 222.155C407.009 222.051 407.213 221.899 407.378 221.709C407.543 221.52 407.665 221.296 407.736 221.055C407.807 220.814 407.826 220.56 407.79 220.311Z" fill="#0B1219"/>
<path d="M380.759 148.751L372.859 147.111L382.859 99.0008C383.232 96.4782 382.677 93.9063 381.299 91.7608C368.709 74.3308 348.229 81.4108 345.089 96.4708L336.089 139.471L328.189 137.821L338.279 89.4008C338.799 86.8959 339.87 84.5382 341.415 82.4989C342.96 80.4595 344.939 78.7898 347.209 77.6108C372.649 64.5008 393.999 84.8808 389.649 105.771L380.759 148.751Z" fill="#E0E0E0"/>
<path d="M380.759 148.751C380.759 148.751 380.81 148.451 380.93 147.891C381.05 147.331 381.21 146.481 381.43 145.391L383.43 135.821C384.29 131.671 385.329 126.601 386.539 120.711L388.539 111.291C389.159 107.951 390.189 104.451 390.229 100.671C390.29 96.7136 389.448 92.7947 387.769 89.2108C387.549 88.7508 387.339 88.2708 387.109 87.8108L386.309 86.4608C385.765 85.5563 385.167 84.6848 384.519 83.8508C384.199 83.4108 383.819 83.0308 383.469 82.6208C383.119 82.2108 382.78 81.7908 382.37 81.4308C381.592 80.6559 380.764 79.9343 379.889 79.2708C378.115 77.8825 376.174 76.7233 374.109 75.8208L372.499 75.2208L371.589 74.9208L370.749 74.7008L369.059 74.2608C368.479 74.1308 367.899 74.0708 367.319 73.9708C362.496 73.2526 357.567 73.8825 353.079 75.7908C349.517 77.3047 346.328 79.5794 343.737 82.4556C341.145 85.3318 339.215 88.7398 338.079 92.4408C337.349 94.9908 336.879 97.6608 336.309 100.321C334.089 110.991 331.78 122.041 329.43 133.321C329.11 134.831 328.8 136.321 328.49 137.831L328.339 137.601L336.24 139.251L336.019 139.401C337.799 130.851 339.55 122.481 341.24 114.401C342.086 110.341 342.923 106.341 343.749 102.401L344.969 96.5408C345.398 94.6052 346.098 92.74 347.049 91.0008C348.977 87.6443 351.878 84.9522 355.37 83.2808C355.8 83.0908 356.209 82.8608 356.659 82.7108L357.979 82.2508C358.864 81.9848 359.766 81.781 360.68 81.6408C361.587 81.503 362.502 81.4295 363.419 81.4208C363.869 81.4208 364.329 81.4208 364.779 81.4808H365.449L366.12 81.5908C367.879 81.8307 369.597 82.3189 371.219 83.0408C372.788 83.763 374.256 84.6839 375.589 85.7808C378.139 87.9329 380.08 90.7153 381.219 93.8508C382.32 96.7853 382.641 99.9553 382.149 103.051L381.969 104.161C381.899 104.521 381.819 104.881 381.749 105.241L381.299 107.381C380.999 108.791 380.71 110.171 380.43 111.531C379.29 116.951 378.239 121.941 377.299 126.431C375.399 135.431 373.919 142.431 372.939 147.121L372.889 147.051L378.889 148.321L380.349 148.641L380.829 148.751L380.359 148.661L378.909 148.381L372.909 147.161V147.101L377.169 126.401C378.099 121.901 379.169 116.911 380.259 111.481C380.539 110.131 380.83 108.741 381.12 107.331C381.26 106.631 381.409 105.911 381.559 105.201C381.639 104.841 381.709 104.481 381.789 104.111C381.869 103.741 381.899 103.381 381.959 103.021C382.439 99.9712 382.118 96.8495 381.029 93.9608C379.901 90.8768 377.984 88.1426 375.469 86.0308C374.151 84.9525 372.699 84.0484 371.149 83.3408C369.556 82.6387 367.874 82.1609 366.149 81.9208L365.49 81.8208H364.819C364.379 81.8208 363.94 81.7608 363.49 81.8208C361.68 81.8412 359.882 82.1173 358.149 82.6408L356.849 83.1008C356.419 83.2627 355.998 83.4497 355.589 83.6608C352.16 85.3006 349.313 87.9487 347.43 91.2508C346.504 92.9547 345.83 94.7837 345.43 96.6808C345.03 98.6208 344.623 100.574 344.209 102.541C343.389 106.481 342.556 110.481 341.709 114.541L336.499 139.541V139.731H336.309L328.409 138.081H328.229V137.891C328.539 136.401 328.849 134.891 329.169 133.381C331.529 122.071 333.829 111.021 336.059 100.381C336.629 97.7108 337.059 95.0608 337.839 92.4608C338.652 89.9194 339.813 87.503 341.289 85.2808C344.215 80.9835 348.32 77.6222 353.109 75.6008C357.656 73.6736 362.646 73.0402 367.529 73.7708C368.119 73.8708 368.709 73.9408 369.289 74.0608L371.289 74.5808L372.359 74.9208L373.959 75.5208L374.699 75.8308C376.656 76.7175 378.499 77.8354 380.189 79.1608C381.066 79.8399 381.901 80.5712 382.689 81.3508C383.005 81.6941 383.305 82.0511 383.589 82.4208C383.939 82.8408 384.329 83.2208 384.639 83.6608C385.298 84.5073 385.906 85.3922 386.459 86.3108L387.259 87.6708C387.499 88.1408 387.7 88.6708 387.93 89.0908C389.616 92.7179 390.454 96.6815 390.379 100.681C390.379 104.501 389.289 108.011 388.659 111.361C388.029 114.711 387.289 117.861 386.659 120.811C385.419 126.701 384.339 131.811 383.469 135.921C382.599 140.031 381.909 143.271 381.469 145.451L380.939 147.921C380.829 148.481 380.759 148.751 380.759 148.751Z" fill="#0B1219"/>
<path d="M324.78 107.868L395.355 122.573C396.326 122.776 397.176 123.356 397.72 124.185C398.264 125.015 398.455 126.027 398.253 126.998L387.103 180.508C386.919 181.391 386.392 182.165 385.638 182.659C384.884 183.153 383.964 183.327 383.081 183.143L312.174 168.369L324.78 107.868Z" fill="#252C33"/>
<g opacity="0.3">
<path d="M324.817 107.925L395.02 122.553C396.089 122.776 397.027 123.414 397.626 124.328C398.224 125.242 398.436 126.357 398.213 127.427L387.218 180.193C387.013 181.175 386.427 182.035 385.589 182.584C384.75 183.134 383.728 183.327 382.746 183.123L312.211 168.426L324.817 107.925Z" fill="black"/>
</g>
<path d="M325.382 107.996L386.254 120.679C387.309 120.899 388.232 121.529 388.822 122.429C389.412 123.33 389.621 124.428 389.401 125.482L378.637 177.143C378.366 178.441 377.591 179.579 376.482 180.305C375.373 181.032 374.02 181.288 372.722 181.018L312.946 168.562C312.406 168.45 311.893 168.232 311.437 167.922C310.982 167.611 310.591 167.214 310.289 166.752C309.987 166.291 309.779 165.775 309.676 165.233C309.573 164.691 309.578 164.134 309.691 163.594L320.618 111.15C320.836 110.103 321.459 109.184 322.351 108.593C323.243 108.003 324.332 107.788 325.382 107.996Z" fill="#252C33"/>
<g opacity="0.3">
<path d="M360.199 141.281C360.435 140.15 360.442 138.983 360.219 137.85C359.995 136.717 359.547 135.64 358.9 134.683C358.252 133.726 357.42 132.909 356.451 132.28C355.482 131.651 354.397 131.223 353.259 131.021C351.065 130.659 348.815 131.148 346.968 132.387C345.121 133.626 343.816 135.523 343.319 137.691C342.925 139.534 343.147 141.456 343.951 143.162C344.755 144.867 346.096 146.262 347.769 147.131L339.819 157.641L354.329 160.941L352.329 148.091C354.205 147.972 355.99 147.241 357.411 146.011C358.833 144.782 359.812 143.12 360.199 141.281Z" fill="black"/>
</g>
<path d="M378.879 176.371C378.779 176.371 380.939 165.811 383.699 152.831C386.459 139.851 388.789 129.331 388.889 129.351C388.989 129.371 386.829 139.921 384.069 152.921C381.309 165.921 378.979 176.391 378.879 176.371Z" fill="#0B1219"/>
<path d="M373.96 120.061C373.96 120.161 364.63 118.431 353.17 116.201C341.71 113.971 332.419 112.081 332.439 111.981C332.459 111.881 341.77 113.601 353.24 115.831C364.71 118.061 373.98 119.921 373.96 120.061Z" fill="#EE2737"/>
<path d="M342.09 142.251C342.09 142.251 341.97 142.051 341.85 141.651C341.678 141.088 341.571 140.508 341.53 139.921C341.372 137.961 341.807 135.999 342.78 134.291C343.769 132.593 345.242 131.228 347.01 130.371C347.542 130.116 348.098 129.915 348.67 129.771C348.877 129.706 349.093 129.676 349.31 129.681C349.31 129.751 348.42 129.931 347.13 130.611C345.452 131.495 344.06 132.837 343.116 134.482C342.172 136.127 341.716 138.006 341.8 139.901C341.85 141.361 342.16 142.231 342.09 142.251Z" fill="#EE2737"/>
<path d="M344.589 146.921C344.519 147.001 344.059 146.691 343.589 146.231C343.119 145.771 342.759 145.341 342.829 145.231C342.899 145.121 343.359 145.471 343.829 145.921C344.299 146.371 344.659 146.921 344.589 146.921Z" fill="#EE2737"/>
<path d="M365.94 75.6608C365.94 75.6608 365.42 75.6608 364.48 75.5608C363.147 75.4775 361.809 75.5009 360.48 75.6308C356.104 76.0264 351.93 77.6564 348.444 80.3314C344.959 83.0063 342.304 86.6162 340.79 90.7408C340.326 91.9832 339.961 93.2606 339.7 94.5608C339.52 95.4808 339.44 96.0008 339.41 96.0008C339.395 95.8746 339.395 95.747 339.41 95.6208C339.41 95.3708 339.41 95.0008 339.54 94.5308C339.753 93.2095 340.088 91.9106 340.54 90.6508C342.01 86.4353 344.681 82.7418 348.224 80.0251C351.767 77.3084 356.027 75.6871 360.48 75.3608C361.812 75.2535 363.151 75.2736 364.48 75.4208C364.95 75.4208 365.31 75.5408 365.56 75.5708C365.69 75.5825 365.818 75.6128 365.94 75.6608Z" fill="white"/>
<path d="M337.739 102.461C337.714 101.703 337.815 100.946 338.039 100.221C338.138 99.4725 338.361 98.7459 338.699 98.0708C338.73 98.8252 338.632 99.5794 338.409 100.301C338.31 101.054 338.084 101.784 337.739 102.461Z" fill="white"/>
<path d="M18.01 384.521L0.0400391 408.921L30.3 431.441C32.3 428.441 20.93 410.961 20.93 410.961L33.09 395.801L18.01 384.521Z" fill="#252C33"/>
<path d="M12.5899 402.701C12.234 402.571 11.8428 402.578 11.4918 402.721C11.1409 402.863 10.8551 403.13 10.6899 403.471C10.5493 403.823 10.5487 404.216 10.6881 404.57C10.8274 404.923 11.0963 405.209 11.4399 405.371C11.8169 405.504 12.2297 405.492 12.5989 405.339C12.9681 405.186 13.2676 404.902 13.4399 404.541C13.5504 404.158 13.5079 403.746 13.3214 403.394C13.1348 403.041 12.8188 402.775 12.4399 402.651" fill="white"/>
<path d="M0 408.981L1.91 406.361L30.18 429.121C30.18 429.121 31.08 430.721 30.18 431.551L0 408.981Z" fill="#0B1219"/>
<path d="M21.59 411.181C21.48 411.331 20.69 410.851 19.59 410.781C18.49 410.711 17.66 411.051 17.59 410.891C17.52 410.731 18.36 410.041 19.66 410.141C20.96 410.241 21.67 411.071 21.59 411.181Z" fill="#0B1219"/>
<path d="M23.7402 414.861C23.6602 415.031 22.8402 414.801 21.8702 415.051C20.9002 415.301 20.2702 415.861 20.1202 415.741C19.9702 415.621 20.5102 414.741 21.7202 414.431C22.9302 414.121 23.8402 414.721 23.7402 414.861Z" fill="#0B1219"/>
<path d="M22.71 420.001C22.55 419.931 22.9 419.001 23.88 418.511C24.86 418.021 25.79 418.181 25.76 418.351C25.73 418.521 24.98 418.631 24.19 419.081C23.4 419.531 22.87 420.091 22.71 420.001Z" fill="#0B1219"/>
<path d="M23.9305 407.421C23.7605 407.511 23.2405 406.801 22.3605 406.241C21.4805 405.681 20.6405 405.451 20.6505 405.241C20.6605 405.031 21.6505 404.991 22.7105 405.671C23.7705 406.351 24.0905 407.361 23.9305 407.421Z" fill="#0B1219"/>
<path d="M91.1704 282.381C91.7104 285.441 92.5704 311.471 93.1204 325.201C93.6704 338.931 92.3004 345.681 90.7304 348.761C89.1604 351.841 29.9504 395.471 25.4404 405.921L10.4404 393.831C10.4404 393.831 32.4404 354.341 41.8204 347.161C51.2004 339.981 69.2504 333.391 69.2504 333.391L64.1204 258.201L88.7104 256.861L91.1704 282.381Z" fill="#0B1219"/>
<path d="M36.1399 408.651L35.8799 438.921L73.5899 439.441C73.4199 435.841 54.0099 428.331 54.0099 428.331L55.0099 408.921L36.1399 408.651Z" fill="#252C33"/>
<path d="M42.37 426.581C42.0062 426.686 41.6938 426.922 41.4927 427.243C41.2917 427.564 41.2159 427.947 41.28 428.321C41.3728 428.689 41.6024 429.007 41.922 429.212C42.2416 429.416 42.6272 429.491 43 429.421C43.3843 429.307 43.713 429.055 43.9233 428.713C44.1336 428.372 44.2108 427.965 44.14 427.571C44.006 427.197 43.7318 426.89 43.3753 426.714C43.0188 426.539 42.6081 426.509 42.23 426.631" fill="white"/>
<path d="M35.8701 439.031V435.781L72.1201 437.661C72.1201 437.661 73.7801 438.431 73.5701 439.611L35.8701 439.031Z" fill="#0B1219"/>
<path d="M54.59 428.191C54.59 428.381 53.66 428.451 52.75 429.031C51.84 429.611 51.34 430.371 51.17 430.301C51 430.231 51.29 429.161 52.41 428.481C53.53 427.801 54.67 428.021 54.59 428.191Z" fill="#0B1219"/>
<path d="M58.5903 429.921C58.5903 430.101 57.8203 430.401 57.1903 431.171C56.5603 431.941 56.3603 432.771 56.1903 432.751C56.0203 432.731 55.9003 431.701 56.7103 430.751C57.5203 429.801 58.5903 429.711 58.5903 429.921Z" fill="#0B1219"/>
<path d="M60.7401 434.651C60.5701 434.651 60.3301 433.761 60.8101 432.761C61.2901 431.761 62.1701 431.371 62.2401 431.521C62.3101 431.671 61.7801 432.211 61.3901 433.041C61.0001 433.871 60.9201 434.631 60.7401 434.651Z" fill="#0B1219"/>
<path d="M54.3503 423.741C54.2703 423.911 53.4303 423.641 52.3503 423.741C51.2703 423.841 50.4903 424.111 50.3503 423.951C50.2103 423.791 51.0403 423.151 52.2703 423.101C53.5003 423.051 54.4403 423.601 54.3503 423.741Z" fill="#0B1219"/>
<path d="M93.89 253.751C93.89 255.521 96.76 300.331 82.11 332.751C82.11 332.751 77.04 342.891 76.11 347.321C75.18 351.751 56.23 425.231 56.23 425.231L34.33 424.431C34.33 424.431 30.83 387.621 34.33 366.311C37.83 345.001 44.33 347.501 44.33 333.741C44.33 319.981 41.06 291.451 41.06 291.451C41.06 291.451 36.28 283.661 34.65 268.551C33.32 256.281 39.1 243.131 39.1 243.131L44.81 233.021L93.12 230.491L93.89 253.751Z" fill="#0B1219"/>
<path d="M93.89 253.751C93.89 253.751 93.89 253.231 93.89 252.221C93.89 251.211 93.83 249.711 93.79 247.741C93.7 243.791 93.55 237.971 93.37 230.451V230.341H93.25L44.94 232.801H44.84L44.78 232.891C43.01 236.031 41.06 239.461 39.06 243.001C37.5726 246.589 36.4112 250.304 35.59 254.101C34.6828 258.098 34.2764 262.193 34.38 266.291C34.6844 270.57 35.3535 274.815 36.38 278.981C37.3703 283.354 38.9268 287.58 41.01 291.551V291.451C41.84 298.911 42.61 306.641 43.26 314.601C43.58 318.601 43.86 322.601 44.06 326.711C44.16 328.711 44.24 330.811 44.25 332.881C44.25 333.881 44.25 334.951 44.19 335.981C44.1189 337.014 43.992 338.042 43.81 339.061C43.4007 341.114 42.6754 343.09 41.66 344.921C40.66 346.791 39.66 348.641 38.66 350.591C36.849 354.548 35.5292 358.713 34.73 362.991C32.99 371.591 32.64 380.531 32.54 389.541C32.54 401.431 33.1 413.111 34.08 424.401V424.641H34.31L56.21 425.441H56.42L56.47 425.231C62.82 400.621 68.74 377.621 73.96 356.941L75.85 349.291C76.18 348.021 76.39 346.761 76.78 345.561C77.17 344.361 77.61 343.171 78.07 342.011C79.01 339.691 80.07 337.441 81.07 335.251L81.85 333.621C82.1271 333.088 82.3741 332.541 82.59 331.981C83.04 330.871 83.49 329.781 83.94 328.691C87.05 320.626 89.3643 312.276 90.85 303.761C92.9917 291.63 94.0957 279.339 94.15 267.021C94.21 258.401 93.86 253.721 93.86 253.721C93.86 253.721 93.86 254.011 93.86 254.581C93.86 255.151 93.86 256.021 93.92 257.141C93.98 259.391 94.02 262.711 93.92 267.021C93.8275 279.329 92.7137 291.607 90.59 303.731C89.0699 312.219 86.7255 320.538 83.59 328.571L82.25 331.841C82.03 332.401 81.78 332.931 81.51 333.471C81.24 334.011 80.98 334.561 80.72 335.111C79.72 337.301 78.66 339.551 77.72 341.881C77.25 343.051 76.8 344.241 76.41 345.461C76.02 346.681 75.79 347.971 75.47 349.211C74.84 351.731 74.21 354.271 73.56 356.861C68.25 377.521 62.34 400.521 56.01 425.131L56.27 424.941L34.37 424.131L34.63 424.371C33.63 413.101 33.05 401.431 33.09 389.561C33.19 380.561 33.54 371.661 35.27 363.121C36.0667 358.882 37.3729 354.756 39.16 350.831C40.06 348.901 41.16 347.071 42.16 345.171C43.1687 343.291 43.8836 341.267 44.28 339.171C44.4697 338.129 44.5999 337.077 44.67 336.021C44.67 335.021 44.77 333.921 44.73 332.891C44.73 330.811 44.64 328.741 44.54 326.691C44.34 322.591 44.05 318.551 43.72 314.571C43.0534 306.571 42.2967 298.847 41.45 291.401V291.341C39.3661 287.421 37.8029 283.246 36.8 278.921C35.7793 274.785 35.1103 270.57 34.8 266.321C34.6924 262.261 35.0887 258.203 35.98 254.241C36.7858 250.482 37.9202 246.801 39.37 243.241L45.07 233.121L44.91 233.221L93.22 230.611L93.09 230.501C93.33 238.011 93.51 243.831 93.63 247.781C93.7 249.781 93.75 251.241 93.79 252.261C93.83 253.281 93.89 253.751 93.89 253.751Z" fill="#252C33"/>
<path d="M78.1801 161.991C78.1801 161.991 65.1801 159.691 66.3901 176.421C67.1501 186.421 70.0901 203.581 71.7201 214.531C72.2801 218.321 73.5201 225.101 78.5301 229.081L114.43 253.921L125.76 240.371L93.7001 209.841L88.7001 179.641L78.1801 161.991Z" fill="#252C33"/>
<path d="M79.7104 101.691C81.771 103.35 83.4013 105.481 84.4632 107.905C85.525 110.328 85.9872 112.971 85.8104 115.611C85.6104 118.171 84.9004 121.081 86.5704 123.031C88.2404 124.981 91.4404 124.911 93.0204 126.891C94.8704 129.231 93.3204 132.711 94.0204 135.621C94.3772 136.98 95.2059 138.168 96.3583 138.972C97.5107 139.777 98.9115 140.145 100.31 140.011C97.0286 142.696 93.0706 144.426 88.8704 145.011L85.5904 140.921C86.8104 142.361 86.4804 144.651 85.3104 146.121C84.0394 147.489 82.4005 148.461 80.5904 148.921C76.2824 150.246 71.7266 150.559 67.2777 149.836C62.8287 149.113 58.6068 147.373 54.9404 144.751" fill="#0B1219"/>
<path d="M31.6803 124.261C32.3203 122.261 33.4003 120.491 33.8303 118.481C34.7503 114.151 32.6403 109.271 34.7403 105.371C36.2403 102.601 39.4203 101.241 42.4403 100.311C45.4603 99.3808 48.6803 98.6009 50.9303 96.3909C52.5703 94.7709 53.5103 92.5308 55.1503 90.9108C57.4903 88.5908 60.9503 87.8008 64.2303 87.6008C67.6172 87.2735 71.0312 87.8282 74.1403 89.2109C75.6842 89.9152 77.0407 90.9728 78.1004 92.2983C79.16 93.6237 79.8931 95.1798 80.2403 96.8408C80.5003 98.4608 80.3003 100.171 80.8203 101.741C81.3803 103.461 82.7303 104.801 83.5703 106.411C84.4116 108.14 84.655 110.099 84.2622 111.982C83.8695 113.864 82.8628 115.563 81.4003 116.811L58.2203 146.751C53.3503 148.591 41.5503 146.371 37.7903 142.751C34.0303 139.131 30.0703 129.211 31.6803 124.261Z" fill="#0B1219"/>
<path d="M80.79 113.011C79.79 106.211 74.66 98.1808 67.91 99.4208L47.07 106.421C45.07 106.801 46.49 110.151 46.69 112.221L51.22 159.221C51.22 159.221 48.4 161.221 47.4 160.841C47.3431 160.821 47.2814 160.819 47.2234 160.836C47.1655 160.853 47.1143 160.887 47.0769 160.935C47.0394 160.982 47.0177 161.04 47.0147 161.1C47.0117 161.16 47.0275 161.22 47.06 161.271C49.59 164.921 61.38 180.791 73.59 175.921C76.31 174.831 73.3 166.261 73.59 163.091L73.23 154.981C72.96 150.841 72.83 149.141 72.83 149.181C72.83 149.221 81.45 147.061 82.38 135.531C82.85 129.821 81.85 120.561 80.79 113.011Z" fill="#FFBF9D"/>
<path d="M79.3397 123.471C79.3707 123.852 79.2523 124.229 79.0097 124.524C78.767 124.819 78.4191 125.008 78.0397 125.051C77.8548 125.081 77.6659 125.073 77.4841 125.028C77.3022 124.984 77.1312 124.903 76.9811 124.791C76.831 124.679 76.7048 124.538 76.6101 124.377C76.5154 124.215 76.454 124.036 76.4297 123.851C76.3987 123.47 76.517 123.092 76.7597 122.798C77.0023 122.503 77.3502 122.314 77.7297 122.271C77.9145 122.241 78.1034 122.249 78.2853 122.294C78.4671 122.338 78.6381 122.419 78.7882 122.531C78.9383 122.643 79.0645 122.783 79.1592 122.945C79.2539 123.106 79.3153 123.285 79.3397 123.471Z" fill="#0B1219"/>
<path d="M65.1402 124.361C65.174 124.74 65.0579 125.118 64.8169 125.413C64.5758 125.709 64.2289 125.898 63.8502 125.941C63.6655 125.969 63.4771 125.96 63.2958 125.915C63.1145 125.87 62.944 125.789 62.7942 125.678C62.6444 125.566 62.5183 125.426 62.4232 125.265C62.3281 125.104 62.2659 124.926 62.2402 124.741C62.2092 124.36 62.3276 123.982 62.5702 123.688C62.8128 123.393 63.1607 123.204 63.5402 123.161C63.7245 123.131 63.9128 123.139 64.0941 123.184C64.2753 123.228 64.4456 123.309 64.5949 123.421C64.7443 123.533 64.8695 123.674 64.9632 123.836C65.0568 123.997 65.1171 124.176 65.1402 124.361Z" fill="#0B1219"/>
<path d="M79.8597 118.651C79.6997 118.921 78.3397 118.061 76.6397 118.311C74.9397 118.561 73.8497 119.721 73.6397 119.511C73.4297 119.301 73.6397 118.951 74.1297 118.421C74.745 117.73 75.5862 117.281 76.5026 117.155C77.4189 117.028 78.3503 117.233 79.1297 117.731C79.6897 118.121 79.9397 118.531 79.8597 118.651Z" fill="#0B1219"/>
<path d="M64.5904 119.921C64.3904 120.171 63.0604 119.201 61.2304 119.281C59.4004 119.361 58.1004 120.391 57.8904 120.161C57.6804 119.931 57.9804 119.621 58.5504 119.161C59.2986 118.543 60.2306 118.191 61.2004 118.161C62.1654 118.123 63.1156 118.408 63.9004 118.971C64.4704 119.381 64.6804 119.801 64.5904 119.921Z" fill="#0B1219"/>
<path d="M70.3197 130.691C71.1271 130.361 71.9744 130.139 72.8397 130.031C73.2297 129.961 73.6097 129.851 73.6497 129.571C73.6549 129.153 73.529 128.744 73.2897 128.401C72.8397 127.461 72.3697 126.471 71.8697 125.401C69.8697 121.171 68.4197 117.691 68.5897 117.611C68.7597 117.531 70.5097 120.891 72.4897 125.111C72.9697 126.161 73.4297 127.111 73.8597 128.111C74.1522 128.575 74.2692 129.128 74.1897 129.671C74.1439 129.817 74.0651 129.951 73.9593 130.062C73.8535 130.173 73.7236 130.258 73.5797 130.311C73.363 130.385 73.138 130.432 72.9097 130.451C72.0589 130.633 71.1895 130.713 70.3197 130.691Z" fill="#0B1219"/>
<path d="M72.8295 149.201C67.4744 149.692 62.088 148.689 57.2695 146.301C57.2695 146.301 61.7195 154.001 73.0295 152.061L72.8295 149.201Z" fill="#FF9A6C"/>
<path d="M65.5298 135.271C65.7082 134.876 65.9834 134.532 66.3298 134.271C66.7539 134.069 67.2353 134.023 67.6898 134.141C68.3652 134.239 68.9901 134.555 69.4698 135.041C69.7053 135.286 69.8711 135.589 69.9502 135.92C70.0293 136.25 70.0189 136.596 69.9198 136.921C69.7398 137.581 68.7598 137.921 68.0898 138.061C67.3957 138.162 66.6881 138.017 66.0898 137.651C65.8296 137.532 65.6024 137.352 65.4281 137.125C65.2538 136.899 65.1376 136.633 65.0898 136.351C65.1342 135.957 65.2865 135.583 65.5298 135.271Z" fill="#FF9A6C"/>
<path d="M65.8504 133.061C66.1004 133.061 66.2404 134.731 67.7904 135.831C69.3404 136.931 71.1404 136.601 71.1704 136.831C71.2004 137.061 70.8004 137.191 70.0304 137.271C69.0312 137.362 68.032 137.097 67.2104 136.521C66.4176 135.974 65.8716 135.137 65.6904 134.191C65.5904 133.501 65.7304 133.061 65.8504 133.061Z" fill="#0B1219"/>
<path d="M64.4498 113.771C64.3198 114.201 62.7398 114.121 60.9098 114.491C59.0798 114.861 57.6298 115.491 57.3598 115.101C57.2398 114.931 57.4598 114.511 58.0298 114.051C58.7934 113.482 59.6773 113.096 60.6135 112.923C61.5497 112.749 62.5132 112.793 63.4298 113.051C64.1298 113.251 64.4998 113.561 64.4498 113.771Z" fill="#0B1219"/>
<path d="M78.8897 112.921C78.5997 113.301 77.3397 113.031 75.8897 113.131C74.4397 113.231 73.1597 113.581 72.8397 113.231C72.6997 113.061 72.8397 112.681 73.3897 112.301C74.1128 111.824 74.954 111.558 75.8197 111.531C76.6799 111.469 77.54 111.653 78.2997 112.061C78.8197 112.361 79.0197 112.721 78.8897 112.921Z" fill="#0B1219"/>
<path d="M42.4605 108.061C43.4605 106.441 45.4005 105.611 47.2005 104.921C54.9743 101.919 63.0781 99.8546 71.3405 98.7708C72.3405 100.461 71.4205 102.771 69.8705 104.001C68.3205 105.231 66.3205 105.721 64.4705 106.411C62.6205 107.101 60.7105 108.181 59.9405 110.011C59.1705 111.841 59.8205 114.251 59.1005 116.231C57.8705 119.651 53.1005 120.751 51.9105 124.161C50.9905 126.751 52.4905 129.501 52.9105 132.221C53.1025 133.601 52.9979 135.007 52.6036 136.344C52.2093 137.68 51.5344 138.918 50.624 139.973C49.7135 141.028 48.5884 141.877 47.3238 142.463C46.0592 143.049 44.6842 143.358 43.2905 143.371C42.7305 133.577 42.1672 123.791 41.6005 114.011C41.4305 111.971 41.3505 109.771 42.4605 108.061Z" fill="#0B1219"/>
<path d="M22.7402 132.791C24.2902 131.401 26.2302 130.201 26.8402 128.221C27.7402 125.331 25.4202 121.941 26.9202 119.311C28.2802 116.911 32.2902 117.041 33.5602 114.591C34.5602 112.671 33.4102 110.981 33.7802 109.301C34.1502 107.621 36.5502 106.151 38.2502 106.351L51.5902 125.721C52.8302 132.221 54.0802 135.721 52.6902 139.481C51.7709 141.505 51.0767 143.625 50.6202 145.801C50.3202 148.001 50.8902 150.491 52.6802 151.801C44.6802 152.431 37.2002 148.251 30.2802 144.201L22.9902 139.921C22.1922 139.539 21.5041 138.961 20.9902 138.241C19.9002 136.461 21.2002 134.171 22.7402 132.791Z" fill="#0B1219"/>
<path d="M30.1104 142.231C30.3895 142.321 30.6781 142.378 30.9704 142.401C31.8046 142.481 32.6463 142.42 33.4604 142.221C34.7598 141.91 35.9558 141.265 36.9304 140.351C38.2176 139.112 39.0252 137.458 39.2104 135.681C39.3306 134.65 39.2421 133.606 38.9504 132.611C38.5918 131.55 38.0941 130.541 37.4704 129.611C36.809 128.667 36.2932 127.628 35.9404 126.531C35.7529 125.97 35.6943 125.374 35.7687 124.787C35.8432 124.2 36.0488 123.637 36.3704 123.141C37.0904 122.141 38.4404 121.931 39.7004 121.431C40.3809 121.186 40.9728 120.744 41.4004 120.161C41.794 119.537 41.986 118.807 41.9504 118.071C41.7774 116.659 41.4727 115.266 41.0404 113.911C40.8868 113.253 40.8868 112.569 41.0404 111.911C41.2165 111.247 41.6245 110.669 42.1904 110.281C43.4072 109.579 44.7858 109.207 46.1904 109.201C47.644 109.153 49.0616 108.736 50.3104 107.991C51.5255 107.25 52.5119 106.188 53.1604 104.921C53.6926 103.705 54.0301 102.412 54.1604 101.091C54.2991 99.8677 54.5604 98.6617 54.9404 97.4908C55.3615 96.4261 56.0021 95.4618 56.8204 94.6608C58.3296 93.2287 60.2781 92.3478 62.3504 92.1608C64.0781 92.0131 65.8123 92.36 67.3504 93.1608C68.5072 93.7528 69.55 94.545 70.4304 95.5009C71.1661 96.3351 71.8036 97.2511 72.3304 98.2308C72.3304 98.2308 72.3304 98.1608 72.2604 98.0208C72.1783 97.8223 72.0848 97.6286 71.9804 97.4408C71.5985 96.7149 71.1319 96.0368 70.5904 95.4208C69.7107 94.4266 68.661 93.597 67.4904 92.9709C65.9361 92.1166 64.1701 91.7245 62.4004 91.8408C60.2287 91.9999 58.1775 92.9001 56.5904 94.3909C55.7159 95.2355 55.0337 96.2588 54.5904 97.3909C54.1939 98.5834 53.9191 99.813 53.7704 101.061C53.6316 102.339 53.2942 103.587 52.7704 104.761C52.1606 105.941 51.241 106.933 50.1104 107.631C48.9189 108.33 47.571 108.718 46.1904 108.761C44.6856 108.758 43.2076 109.158 41.9104 109.921C41.2614 110.362 40.7929 111.023 40.5904 111.781C40.4151 112.521 40.4151 113.291 40.5904 114.031C41.0138 115.361 41.3151 116.726 41.4904 118.111C41.5316 118.754 41.3707 119.394 41.0304 119.941C40.6441 120.448 40.1198 120.834 39.5204 121.051C38.9304 121.301 38.2904 121.471 37.6704 121.731C37.0248 121.975 36.4554 122.385 36.0204 122.921C35.6672 123.473 35.4409 124.097 35.3579 124.747C35.2749 125.397 35.3372 126.058 35.5404 126.681C35.9148 127.814 36.4539 128.885 37.1404 129.861C37.7495 130.745 38.2371 131.707 38.5904 132.721C38.8737 133.667 38.9688 134.659 38.8704 135.641C38.7065 137.351 37.9494 138.95 36.7304 140.161C35.7973 141.064 34.6469 141.712 33.3904 142.041C32.3203 142.32 31.2055 142.385 30.1104 142.231Z" fill="#252C33"/>
<path d="M19.4504 128.461C19.3195 128.657 19.231 128.878 19.1904 129.111C19.0574 129.797 19.1782 130.507 19.5304 131.111C19.7744 131.542 20.1171 131.908 20.5304 132.181C21.0455 132.492 21.6384 132.652 22.2404 132.641C22.9719 132.625 23.6851 132.408 24.3022 132.015C24.9193 131.622 25.4168 131.067 25.7404 130.411C26.1207 129.658 26.3161 128.825 26.3104 127.981C26.2862 127.074 26.0964 126.179 25.7504 125.341C25.1204 123.611 23.9604 121.921 23.9404 119.901C23.9026 119.403 23.9654 118.904 24.1252 118.431C24.285 117.959 24.5384 117.523 24.8704 117.151C25.6812 116.481 26.723 116.158 27.7704 116.251C28.9359 116.336 30.1073 116.214 31.2304 115.891C31.8188 115.651 32.316 115.231 32.6504 114.691C32.9722 114.154 33.1736 113.553 33.2404 112.931C33.298 111.737 33.2005 110.54 32.9504 109.371C32.7713 108.274 32.8362 107.15 33.1404 106.081C33.7072 104.039 35.0349 102.293 36.8504 101.201C38.5737 100.323 40.4867 99.8834 42.4204 99.9209C44.1388 99.9248 45.8469 99.6547 47.4804 99.1208C48.8084 98.6335 50.0256 97.8855 51.0604 96.9209C51.8528 96.1888 52.5274 95.3388 53.0604 94.4009C53.5294 93.6229 53.8515 92.7653 54.0104 91.8708C53.7127 92.7152 53.3412 93.5317 52.9004 94.3109C51.6405 96.4134 49.7 98.0223 47.4004 98.8708C45.7806 99.3664 44.0941 99.6092 42.4004 99.5909C40.4105 99.5348 38.4379 99.9747 36.6604 100.871C34.7513 101.99 33.3419 103.797 32.7204 105.921C32.4004 107.049 32.3287 108.233 32.5104 109.391C32.7444 110.522 32.8418 111.677 32.8004 112.831C32.7767 113.38 32.6029 113.911 32.2978 114.368C31.9928 114.825 31.5682 115.189 31.0704 115.421C30.0018 115.724 28.8879 115.836 27.7804 115.751C26.6205 115.649 25.4674 116.009 24.5704 116.751C24.2041 117.168 23.9265 117.655 23.7546 118.183C23.5827 118.711 23.52 119.268 23.5704 119.821C23.6145 120.859 23.8626 121.878 24.3004 122.821C24.6904 123.721 25.1204 124.561 25.4504 125.401C25.7859 126.197 25.9756 127.047 26.0104 127.911C26.024 128.699 25.8528 129.48 25.5104 130.191C25.2202 130.804 24.7675 131.326 24.2016 131.699C23.6357 132.073 22.9781 132.285 22.3004 132.311C21.7445 132.331 21.194 132.196 20.7104 131.921C20.2964 131.679 19.9519 131.335 19.7104 130.921C19.3598 130.364 19.2148 129.703 19.3004 129.051C19.3504 128.691 19.4804 128.471 19.4504 128.461Z" fill="#0B1219"/>
<path d="M103.68 133.231C103.918 133.907 103.918 134.644 103.68 135.321C103.548 135.709 103.33 136.063 103.043 136.355C102.756 136.648 102.406 136.872 102.02 137.011C101.506 137.163 100.959 137.168 100.442 137.027C99.9241 136.886 99.4562 136.603 99.0902 136.211C98.6702 135.749 98.4259 135.154 98.4002 134.531C98.3809 133.851 98.486 133.173 98.7102 132.531C99.1302 131.181 100 129.711 99.8702 127.941C99.807 127.043 99.5574 126.169 99.1372 125.374C98.7171 124.578 98.1357 123.879 97.4302 123.321C96.6913 122.729 95.8461 122.285 94.9402 122.011C94.0147 121.754 93.0604 121.617 92.1002 121.601C91.1697 121.593 90.2421 121.496 89.3302 121.311C88.4789 121.135 87.7173 120.664 87.1802 119.981C86.7045 119.28 86.4375 118.458 86.4102 117.611C86.3657 116.786 86.4329 115.958 86.6102 115.151C87.0491 113.628 87.2911 112.055 87.3302 110.471C87.2496 109.064 86.7518 107.713 85.9002 106.591C85.18 105.7 84.2978 104.954 83.3002 104.391C82.5712 103.959 81.8729 103.478 81.2102 102.951C80.6667 102.485 80.2242 101.914 79.9102 101.271C79.9102 101.271 79.9102 101.271 79.9102 101.411C79.9496 101.546 80.0032 101.677 80.0702 101.801C80.3196 102.287 80.6589 102.721 81.0702 103.081C81.7184 103.645 82.4106 104.157 83.1402 104.611C84.0942 105.178 84.935 105.917 85.6202 106.791C86.4128 107.867 86.8656 109.155 86.9202 110.491C86.8608 112.039 86.6089 113.575 86.1702 115.061C85.9767 115.906 85.8993 116.774 85.9402 117.641C85.9774 118.574 86.2754 119.478 86.8002 120.251C87.3963 121.022 88.2467 121.557 89.2002 121.761C90.1383 121.953 91.0925 122.057 92.0502 122.071C92.9758 122.083 93.8962 122.211 94.7902 122.451C95.6387 122.715 96.4318 123.131 97.1301 123.681C97.7874 124.199 98.3302 124.848 98.7244 125.586C99.1185 126.324 99.3554 127.136 99.4202 127.971C99.5602 129.581 98.7602 130.971 98.3202 132.421C98.089 133.116 97.9874 133.849 98.0201 134.581C98.0637 135.28 98.3502 135.941 98.8302 136.451C99.2409 136.881 99.7645 137.187 100.341 137.334C100.917 137.481 101.524 137.462 102.09 137.281C102.504 137.12 102.876 136.868 103.177 136.542C103.479 136.216 103.702 135.826 103.83 135.401C104.011 134.88 104.039 134.317 103.91 133.781C103.867 133.585 103.789 133.399 103.68 133.231Z" fill="#0B1219"/>
<path d="M94.1198 211.561V200.501C95.3598 194.291 94.7698 186.931 91.8798 181.261C89.7833 177.606 87.4656 174.083 84.9398 170.711L73.9398 156.421C67.8798 160.831 58.3898 157.641 50.2498 154.681C50.2498 154.681 42.2498 159.131 38.4698 163.311C34.5398 167.711 47.9798 222.761 47.9798 222.761C41.8898 234.941 34.0298 245.761 32.8398 256.861L96.4398 259.311L93.7398 230.151L94.1198 211.561Z" fill="#252C33"/>
<path d="M93.2402 230.461C93.177 230.047 93.1602 229.628 93.1902 229.211C93.1902 228.301 93.1902 227.211 93.1902 225.821C93.2402 222.821 93.3002 218.951 93.3702 214.641C93.4402 210.331 93.5702 206.321 93.7102 203.461C93.7802 202.031 93.8502 200.871 93.9102 200.071C93.9172 199.656 93.9708 199.244 94.0702 198.841C94.1107 199.253 94.1107 199.668 94.0702 200.081C94.0702 200.991 94.0702 202.081 94.0702 203.471C94.0202 206.471 93.9502 210.341 93.8802 214.651C93.8102 218.961 93.6902 222.971 93.5502 225.831C93.4802 227.261 93.4102 228.421 93.3402 229.221C93.3559 229.637 93.3223 230.053 93.2402 230.461Z" fill="#0B1219"/>
<path d="M122.29 240.521C122.29 240.521 128.49 240.861 132.29 243.261C136.09 245.661 142.29 249.401 144.84 254.031C146.01 256.161 142.68 256.611 141.03 255.381C139.38 254.151 136.87 251.811 135.62 251.531L134.37 251.241C135.511 253.824 136.783 256.347 138.18 258.801C139.47 260.801 140.59 264.121 136.71 264.271C136.71 264.271 134.1 267.671 131.46 265.151C131.46 265.151 129.4 268.241 126.08 263.961C126.08 263.961 124.14 266.411 123.34 265.471C122.54 264.531 119.89 263.051 119.12 259.991C117.965 256.429 116.63 252.928 115.12 249.501L122.29 240.521Z" fill="#FFBF9D"/>
<path d="M261.1 154.581C261.79 154.581 290.18 151.581 290.18 151.581C290.18 151.581 292.59 140.041 292.46 137.041C292.33 134.041 290.31 114.191 290.31 114.191L300.94 109.191C300.94 109.191 315.15 157.111 312.05 161.091C308.95 165.071 303.12 168.641 302.62 168.661C302.12 168.681 275.11 180.661 256.32 174.431C237.53 168.201 261.1 154.581 261.1 154.581Z" fill="#FFBF9D"/>
<path d="M236.22 180.451C240.4 184.601 247.6 188.051 259.62 185.051C283.38 179.111 301.19 174.051 308.27 170.251C315.35 166.451 312.59 149.471 313.19 148.701C314.98 146.381 313.01 141.401 310.46 140.621C303.19 138.421 290.54 139.291 289.9 139.951C286.17 143.871 289.57 148.631 289.57 148.631L258.24 152.741C254.388 152.56 250.528 152.805 246.73 153.471" fill="#252C33"/>
<path d="M246.73 153.471L247.48 153.311C247.98 153.221 248.72 153.091 249.7 152.971C252.535 152.614 255.395 152.493 258.25 152.611L289.57 148.411L289.42 148.761C288.391 147.247 287.885 145.439 287.98 143.611C288.065 142.665 288.374 141.754 288.88 140.951C289.134 140.547 289.422 140.166 289.74 139.811C289.865 139.718 290.003 139.644 290.15 139.591L290.51 139.501C290.75 139.441 290.98 139.421 291.21 139.371C295.09 138.923 299.004 138.843 302.9 139.131C304.945 139.255 306.978 139.536 308.98 139.971C309.48 140.081 309.98 140.231 310.5 140.361C311.033 140.531 311.522 140.818 311.93 141.201C312.725 141.956 313.331 142.888 313.7 143.921C314.097 144.955 314.237 146.07 314.11 147.171C314.018 147.744 313.803 148.289 313.48 148.771C313.39 148.871 313.4 149.141 313.39 149.401V150.201C313.46 152.351 313.56 154.541 313.5 156.741C313.516 159.864 313.005 162.967 311.99 165.921C311.468 167.4 310.573 168.72 309.39 169.751C308.777 170.23 308.105 170.626 307.39 170.931C306.73 171.281 306.03 171.551 305.39 171.871C302.65 173.041 299.9 174.001 297.19 174.871C294.48 175.741 291.82 176.581 289.19 177.351C278.73 180.351 269.19 182.781 261.25 184.771C259.353 185.272 257.43 185.67 255.49 185.961C253.751 186.203 251.995 186.297 250.24 186.241C247.421 186.181 244.64 185.576 242.05 184.461C240.426 183.744 238.911 182.801 237.55 181.661C237.071 181.273 236.623 180.849 236.21 180.391C236.21 180.391 236.67 180.831 237.62 181.581C238.998 182.68 240.519 183.588 242.14 184.281C244.714 185.343 247.466 185.91 250.25 185.951C251.986 185.992 253.722 185.885 255.44 185.631C257.367 185.327 259.276 184.92 261.16 184.411C269.16 182.411 278.62 179.951 289.05 176.891C291.66 176.121 294.32 175.301 297.05 174.401C299.78 173.501 302.49 172.551 305.2 171.401C305.86 171.091 306.55 170.821 307.2 170.471C307.868 170.177 308.496 169.801 309.07 169.351C310.186 168.381 311.031 167.137 311.52 165.741C312.505 162.826 312.995 159.767 312.97 156.691C313.03 154.501 312.97 152.331 312.86 150.171V149.351C312.86 149.211 312.86 149.071 312.86 148.921C312.852 148.841 312.852 148.761 312.86 148.681C312.882 148.619 312.909 148.559 312.94 148.501L312.99 148.421C313.271 148.011 313.456 147.542 313.53 147.051C313.647 146.034 313.513 145.004 313.14 144.051C312.804 143.096 312.249 142.233 311.52 141.531C311.166 141.199 310.742 140.949 310.28 140.801C309.78 140.671 309.28 140.531 308.79 140.411C306.814 139.982 304.808 139.705 302.79 139.581C298.935 139.286 295.061 139.36 291.22 139.801C290.99 139.801 290.76 139.861 290.54 139.921L290.22 139.991C290.15 140.018 290.083 140.052 290.02 140.091C289.719 140.419 289.448 140.774 289.21 141.151C288.734 141.887 288.445 142.728 288.37 143.601C288.283 145.32 288.753 147.02 289.71 148.451L289.91 148.761H289.56L258.22 152.761C255.381 152.617 252.536 152.697 249.71 153.001C248.71 153.101 247.98 153.211 247.48 153.281C246.98 153.351 246.73 153.471 246.73 153.471Z" fill="#0B1219"/>
<path d="M161.903 186.039L149.142 163.111L390.513 28.7657C393.294 27.2179 396.575 26.8381 399.636 27.71C402.697 28.5819 405.286 30.634 406.834 33.4149L407.928 35.3809C409.476 38.1618 409.856 41.4436 408.984 44.5045C408.112 47.5653 406.06 50.1544 403.279 51.7022L161.908 186.047L161.903 186.039Z" fill="#EE2737"/>
<path d="M364.304 64.7831L334.749 11.6839C334.606 11.4269 334.515 11.1442 334.481 10.852C334.447 10.5598 334.471 10.2638 334.552 9.98086C334.633 9.69796 334.768 9.4337 334.951 9.20317C335.134 8.97263 335.36 8.78035 335.617 8.63729L349.178 1.08937C349.435 0.94631 349.718 0.855266 350.01 0.821456C350.302 0.787646 350.598 0.811718 350.881 0.892306C351.164 0.972894 351.428 1.10842 351.659 1.29114C351.889 1.47386 352.081 1.70019 352.225 1.95722L381.779 55.0564L364.304 64.7831Z" fill="#EE2737"/>
<path d="M306.163 40.0573L327.703 78.7566C328.573 80.3201 330.546 80.8822 332.109 80.0119L343.923 73.4367C345.486 72.5664 346.048 70.5934 345.178 69.0299L323.638 30.3305C322.768 28.767 320.795 28.205 319.231 29.0752L307.418 35.6505C305.855 36.5207 305.293 38.4937 306.163 40.0573Z" fill="#EE2737"/>
<path d="M325.18 37.7973L338.516 61.7561L365.655 46.6505L352.32 22.6917L325.18 37.7973Z" fill="#EE2737"/>
<path d="M386.98 30.7808C387.05 30.9008 339.68 57.4008 281.2 89.9608C222.72 122.521 175.2 148.821 175.2 148.691C175.2 148.561 222.49 122.071 280.99 89.5008C339.49 56.9308 386.91 30.6508 386.98 30.7808Z" fill="#0B1219"/>
<path d="M64.1497 230.331C81.9497 262.331 119.48 275.331 147.98 259.481C176.48 243.631 185.18 204.831 167.38 172.871C149.58 140.911 112.06 127.871 83.5497 143.721C55.0397 159.571 46.3597 198.371 64.1497 230.331ZM151.94 181.471C164.41 203.871 158.32 231.041 138.34 242.151C118.36 253.261 92.0697 244.151 79.5997 221.731C67.1297 199.311 73.2197 172.161 93.1897 161.041C113.16 149.921 139.47 159.071 151.94 181.471Z" fill="#EE2737"/>
<path d="M189.772 140.22L202.942 163.881C204.694 167.028 208.664 168.159 211.81 166.408L212.876 165.814C216.023 164.063 217.154 160.093 215.402 156.946L202.232 133.285C200.481 130.138 196.511 129.007 193.365 130.759L192.299 131.352C189.152 133.103 188.021 137.073 189.772 140.22Z" fill="#EE2737"/>
<path d="M215.065 126.141L228.235 149.803C229.987 152.949 233.957 154.08 237.103 152.329L238.169 151.735C241.316 149.984 242.447 146.014 240.695 142.867L227.525 119.206C225.774 116.059 221.804 114.928 218.657 116.68L217.591 117.273C214.445 119.024 213.314 122.995 215.065 126.141Z" fill="#EE2737"/>
<path d="M201.95 132.921C202.08 132.851 205.13 138.221 208.78 144.921C212.43 151.621 215.28 157.081 215.15 157.151C215.02 157.221 211.97 151.861 208.32 145.151C204.67 138.441 201.82 132.921 201.95 132.921Z" fill="#0B1219"/>
<path d="M190.34 141.171C190.47 141.101 193.45 146.231 197.01 152.611C200.57 158.991 203.34 164.241 203.22 164.311C203.1 164.381 200.11 159.251 196.59 152.921C193.07 146.591 190.22 141.241 190.34 141.171Z" fill="#0B1219"/>
<path d="M227.4 118.991C227.53 118.921 230.64 124.261 234.35 130.921C238.06 137.581 240.96 143.051 240.83 143.121C240.7 143.191 237.6 137.841 233.89 131.181C230.18 124.521 227.28 119.061 227.4 118.991Z" fill="#0B1219"/>
<path d="M215.19 126.361C215.31 126.291 218.36 131.601 221.98 138.221C225.6 144.841 228.45 150.221 228.32 150.331C228.19 150.441 225.16 145.091 221.53 138.471C217.9 131.851 215.06 126.431 215.19 126.361Z" fill="#0B1219"/>
<path d="M287.72 90.2908C288.884 90.4279 290.058 90.1268 291.012 89.446C291.967 88.7652 292.634 87.7535 292.884 86.608C293.133 85.4624 292.947 84.265 292.363 83.2488C291.778 82.2327 290.836 81.4705 289.72 81.1108C290.441 80.3723 290.912 79.4256 291.065 78.4047C291.219 77.3838 291.047 76.3406 290.575 75.4226C290.103 74.5046 289.354 73.7584 288.434 73.2897C287.514 72.821 286.47 72.6535 285.45 72.8108C285.408 71.7955 285.104 70.8083 284.567 69.9452C284.031 69.0821 283.28 68.3724 282.389 67.8853C281.497 67.3981 280.494 67.1499 279.478 67.1649C278.462 67.1799 277.467 67.4576 276.59 67.9708C275.446 67.0358 274.023 66.5102 272.546 66.4776C271.069 66.4449 269.624 66.9072 268.44 67.7908C267.445 67.601 266.416 67.7367 265.504 68.1779C264.593 68.6191 263.848 69.3423 263.38 70.2402C262.912 71.1382 262.746 72.163 262.906 73.1628C263.066 74.1627 263.545 75.0842 264.27 75.7908" fill="#0B1219"/>
<path d="M267.43 72.4508H268.43C273.472 72.4551 278.328 74.3579 282.03 77.7805C285.733 81.2032 288.01 85.8946 288.41 90.9208C289.16 100.611 289.86 111.321 289.78 116.521C289.59 127.321 278.85 128.921 278.85 128.921L279.72 141.861L253.59 141.011L251.42 94.1108C250.5 82.9208 256.23 73.0708 267.43 72.4508Z" fill="#FFBF9D"/>
<path d="M278.94 128.921C273.941 128.907 269.051 127.46 264.85 124.751C264.85 124.751 268.31 132.901 279.05 131.961L278.94 128.921Z" fill="#FF9A6C"/>
<path d="M282.5 101.071C282.502 101.471 282.348 101.857 282.069 102.145C281.791 102.433 281.41 102.6 281.01 102.611C280.814 102.624 280.618 102.599 280.433 102.536C280.248 102.474 280.077 102.375 279.93 102.246C279.783 102.116 279.663 101.959 279.577 101.783C279.491 101.607 279.441 101.416 279.43 101.221C279.429 100.82 279.584 100.434 279.862 100.145C280.14 99.8564 280.519 99.6863 280.92 99.6708C281.116 99.6572 281.313 99.6828 281.499 99.7462C281.685 99.8095 281.856 99.9092 282.003 100.04C282.15 100.17 282.27 100.328 282.355 100.505C282.44 100.682 282.49 100.875 282.5 101.071Z" fill="#0B1219"/>
<path d="M286.08 96.2108C285.89 96.4108 284.72 95.5508 283.08 95.5508C281.44 95.5508 280.21 96.3708 280.03 96.1708C279.85 95.9708 280.14 95.7208 280.67 95.3308C281.387 94.8379 282.24 94.5793 283.11 94.5908C283.97 94.5872 284.808 94.8607 285.5 95.3708C286 95.7608 286.17 96.1308 286.08 96.2108Z" fill="#0B1219"/>
<path d="M267.59 100.351C267.598 100.758 267.445 101.151 267.164 101.445C266.883 101.739 266.496 101.91 266.09 101.921C265.895 101.934 265.699 101.909 265.513 101.846C265.328 101.784 265.157 101.685 265.01 101.556C264.863 101.426 264.743 101.269 264.657 101.093C264.571 100.917 264.521 100.726 264.51 100.531C264.507 100.129 264.661 99.7423 264.94 99.4528C265.218 99.1632 265.598 98.9939 266 98.9808C266.194 98.9658 266.39 98.9894 266.575 99.0502C266.76 99.1111 266.932 99.2079 267.08 99.3352C267.227 99.4626 267.349 99.6178 267.436 99.7921C267.524 99.9664 267.576 100.156 267.59 100.351Z" fill="#0B1219"/>
<path d="M269.82 96.4708C269.63 96.6708 268.46 95.8108 266.82 95.8108C265.18 95.8108 263.95 96.6308 263.77 96.4308C263.59 96.2308 263.88 95.9808 264.41 95.5908C265.128 95.0979 265.98 94.8394 266.85 94.8508C267.71 94.8472 268.548 95.1207 269.24 95.6308C269.74 96.0208 269.91 96.3808 269.82 96.4708Z" fill="#0B1219"/>
<path d="M275.78 108.761C276.652 108.487 277.556 108.325 278.47 108.281C278.89 108.281 279.29 108.161 279.37 107.871C279.405 107.435 279.307 107 279.09 106.621L277.85 103.401C276.13 98.8108 274.85 95.0408 275.07 94.9808C275.29 94.9208 276.8 98.5708 278.52 103.151C278.93 104.281 279.33 105.361 279.71 106.391C279.969 106.903 280.043 107.49 279.92 108.051C279.857 108.199 279.761 108.331 279.64 108.437C279.519 108.542 279.375 108.619 279.22 108.661C278.989 108.729 278.75 108.763 278.51 108.761C277.603 108.874 276.686 108.874 275.78 108.761Z" fill="#0B1219"/>
<path d="M271.27 90.1109C271.05 90.5309 269.64 90.1109 267.89 90.0109C266.14 89.9109 264.68 90.2409 264.52 89.8009C264.45 89.5909 264.76 89.2209 265.39 88.8809C266.203 88.4794 267.105 88.2934 268.01 88.3409C268.908 88.3727 269.781 88.6418 270.54 89.1209C271.11 89.5109 271.37 89.9209 271.27 90.1109Z" fill="#0B1219"/>
<path d="M286.18 89.4008C285.83 89.7708 284.46 89.4008 282.82 89.4008C281.18 89.4008 279.82 89.6508 279.47 89.2508C279.33 89.0608 279.55 88.6808 280.16 88.3308C281.001 87.8903 281.942 87.6799 282.89 87.7208C283.833 87.7335 284.755 87.9995 285.56 88.4908C286.14 88.8308 286.33 89.2108 286.18 89.4008Z" fill="#0B1219"/>
<path d="M287.39 86.0208C287.39 86.0208 284.57 79.2708 281.32 77.6908C277.39 75.7708 275.69 80.0808 271.94 79.0208C268.19 77.9608 264.44 76.1308 260.6 79.0208C256.4 82.1808 258.36 84.4108 258.08 89.1908C256.98 108.551 253.42 114.011 252.45 104.891C252.34 103.891 249.57 103.091 249.17 98.8908C248.65 93.4208 248.46 86.7708 249.7 82.8908C250.7 79.6208 252.61 77.3608 255.96 74.8908C261.26 70.9708 268.52 70.8908 273.45 71.4208C278.38 71.9508 287.86 77.5808 287.39 86.0208Z" fill="#0B1219"/>
<path d="M253.13 104.591C253.119 104.196 253.028 103.807 252.862 103.448C252.697 103.089 252.46 102.768 252.166 102.503C251.873 102.239 251.528 102.037 251.154 101.909C250.78 101.781 250.384 101.731 249.99 101.761C247.99 101.951 245.74 103.081 245.86 107.231C246.07 114.591 253.42 112.861 253.43 112.641C253.44 112.421 253.25 107.671 253.13 104.591Z" fill="#FFBF9D"/>
<path d="M251.74 109.921C251.74 109.921 251.62 110.021 251.4 110.121C251.102 110.258 250.762 110.276 250.45 110.171C249.965 109.883 249.565 109.471 249.292 108.977C249.019 108.483 248.884 107.925 248.9 107.361C248.862 106.733 248.964 106.104 249.2 105.521C249.264 105.29 249.383 105.079 249.546 104.904C249.71 104.73 249.914 104.598 250.14 104.521C250.287 104.476 250.445 104.485 250.586 104.545C250.726 104.606 250.841 104.714 250.91 104.851C251.01 105.051 250.97 105.201 251.01 105.211C251.05 105.221 251.16 105.081 251.09 104.781C251.051 104.598 250.944 104.438 250.79 104.331C250.689 104.257 250.574 104.203 250.452 104.174C250.331 104.145 250.204 104.14 250.08 104.161C249.779 104.229 249.5 104.373 249.271 104.579C249.042 104.786 248.869 105.048 248.77 105.341C248.473 105.985 248.339 106.692 248.38 107.401C248.47 108.881 249.27 110.251 250.38 110.531C250.578 110.583 250.786 110.589 250.987 110.55C251.188 110.51 251.377 110.425 251.54 110.301C251.74 110.101 251.77 109.921 251.74 109.921Z" fill="#FF9A6C"/>
<path d="M253.32 90.3308C254.221 91.0647 255.29 91.563 256.43 91.7808C257.003 91.8706 257.589 91.7499 258.08 91.4411C258.571 91.1323 258.933 90.6562 259.1 90.1008C259.19 89.5908 259.1 88.9908 259.4 88.6008C259.7 88.2108 260.55 88.2808 261.16 88.3508C263.3 88.5808 265.81 86.2208 266.36 84.1408C266.638 84.5397 267.058 84.8176 267.533 84.918C268.009 85.0183 268.505 84.9335 268.92 84.6808C269.601 84.2652 270.203 83.7339 270.7 83.1108C270.99 82.7141 271.372 82.3933 271.812 82.1756C272.253 81.958 272.739 81.85 273.23 81.8608C273.748 82.0397 274.285 82.1572 274.83 82.2108C275.83 82.1308 276.27 81.0008 276.42 80.0408C276.57 79.0808 276.69 77.9708 277.51 77.4508C278.352 77.1211 279.283 77.0963 280.14 77.3808C281.03 77.5208 282.14 77.3108 282.41 76.4408C282.447 76.2083 282.437 75.9708 282.38 75.7424C282.324 75.5139 282.222 75.2992 282.08 75.1108C281.486 74.2189 280.607 73.5539 279.587 73.2235C278.567 72.8932 277.465 72.9169 276.46 73.2908C276.107 72.0601 275.394 70.9626 274.415 70.1381C273.435 69.3136 272.232 68.7994 270.958 68.6611C269.685 68.5227 268.4 68.7664 267.266 69.3612C266.132 69.956 265.2 70.8749 264.59 72.0008C263.812 71.2875 262.872 70.7732 261.851 70.5015C260.831 70.2299 259.759 70.2092 258.729 70.441C257.699 70.6728 256.74 71.1503 255.934 71.8328C255.128 72.5154 254.499 73.3827 254.1 74.3608C253.2 74.1207 252.249 74.1506 251.366 74.4469C250.483 74.7431 249.706 75.2926 249.132 76.027C248.559 76.7613 248.214 77.6481 248.141 78.577C248.068 79.5058 248.269 80.4357 248.72 81.2508C248.035 81.5892 247.447 82.0962 247.012 82.7242C246.576 83.3521 246.307 84.0805 246.23 84.8408C246.23 86.3608 247.68 87.8408 249.15 87.4808C248.846 88.0798 248.782 88.7727 248.972 89.4174C249.162 90.062 249.591 90.6095 250.172 90.9473C250.753 91.2852 251.442 91.3878 252.096 91.2341C252.75 91.0804 253.321 90.682 253.69 90.1208" fill="#0B1219"/>
<path d="M277 75.4508C277 75.4508 277 75.4508 277 75.5908C277 75.7308 277 75.8108 276.95 75.9808C276.847 76.4799 276.665 76.9592 276.41 77.4008C276.004 78.0928 275.447 78.6842 274.78 79.1308C273.899 79.7319 272.846 80.0302 271.78 79.9808L271.9 79.8208C272.117 80.4811 272.063 81.2001 271.75 81.8208C271.42 82.4787 270.995 83.0851 270.49 83.6208C270.245 83.9332 269.967 84.2182 269.66 84.4708C269.116 84.8287 268.463 84.9819 267.817 84.9032C267.17 84.8244 266.573 84.5188 266.13 84.0408L266.4 83.9608C266.297 84.725 266.035 85.4589 265.63 86.1152C265.225 86.7715 264.687 87.3355 264.05 87.7708C263.351 88.2907 262.502 88.568 261.63 88.5608C260.813 88.5162 260.009 88.3372 259.25 88.0308L259.45 87.9408C259.065 88.8313 258.464 89.6116 257.7 90.2108C257.352 90.5092 256.941 90.726 256.498 90.8454C256.056 90.9647 255.592 90.9837 255.14 90.9008C254.367 90.7326 253.66 90.3419 253.105 89.777C252.551 89.212 252.174 88.4973 252.02 87.7208L252.19 87.8008C251.412 88.2038 250.52 88.3307 249.66 88.1608C249.02 88.0387 248.417 87.7681 247.9 87.3708C247.579 87.1186 247.302 86.8144 247.08 86.4708C246.999 86.3515 246.939 86.2198 246.9 86.0808C247.18 86.5407 247.543 86.9442 247.97 87.2708C248.48 87.6394 249.069 87.8826 249.69 87.9808C250.507 88.1354 251.352 88.0011 252.08 87.6008L252.22 87.5208V87.6808C252.372 88.4035 252.73 89.0664 253.253 89.5886C253.775 90.1107 254.438 90.4694 255.16 90.6208C255.573 90.6928 255.996 90.6718 256.399 90.5594C256.802 90.4469 257.175 90.2458 257.49 89.9708C258.207 89.4012 258.77 88.6624 259.13 87.8208L259.19 87.6908H259.33C260.054 87.9819 260.821 88.1509 261.6 88.1908C262.407 88.1973 263.193 87.9411 263.84 87.4608C264.44 87.0495 264.946 86.5178 265.329 85.8997C265.711 85.2816 265.96 84.5906 266.06 83.8708V83.5208L266.29 83.7908C266.551 84.0781 266.877 84.2975 267.241 84.4299C267.605 84.5624 267.996 84.6039 268.38 84.5508C268.739 84.5031 269.081 84.373 269.38 84.1708C269.67 83.9381 269.931 83.673 270.16 83.3808C270.655 82.8706 271.073 82.2912 271.4 81.6608C271.548 81.3801 271.638 81.0728 271.665 80.7569C271.693 80.441 271.657 80.1228 271.56 79.8208L271.5 79.6408H271.69C272.712 79.7042 273.726 79.434 274.58 78.8708C275.237 78.4483 275.79 77.8846 276.2 77.2208C276.57 76.6827 276.84 76.0835 277 75.4508Z" fill="#252C33"/>
<path d="M275.76 114.251C275.7 113.981 273.91 114.421 272.25 113.201C270.59 111.981 270.32 110.021 270.07 110.071C269.82 110.121 269.82 110.591 270 111.401C270.247 112.458 270.86 113.393 271.73 114.041C272.562 114.66 273.602 114.933 274.63 114.801C275.4 114.681 275.8 114.371 275.76 114.251Z" fill="#0B1219"/>
<path d="M331.22 394.041L338.32 418.231C338.32 418.231 365.32 419.131 367.05 423.481L320.59 438.921L307.97 401.671L331.22 394.041Z" fill="#252C33"/>
<path d="M323.3 421.001C322.899 421.286 322.617 421.709 322.509 422.188C322.4 422.668 322.471 423.171 322.71 423.601C322.979 424.012 323.395 424.304 323.873 424.418C324.352 424.531 324.855 424.457 325.28 424.211C325.705 423.908 326.003 423.458 326.115 422.948C326.228 422.438 326.148 421.905 325.89 421.451C325.564 421.05 325.096 420.791 324.583 420.727C324.071 420.664 323.554 420.801 323.14 421.111" fill="#E0E0E0"/>
<path d="M364.43 421.731C364.43 421.731 366.8 421.941 367.05 423.481L320.59 438.921L319.47 435.111L364.39 421.711" fill="#0B1219"/>
<path d="M338.99 417.741C339.06 417.971 337.99 418.451 337.09 419.551C336.19 420.651 335.94 421.801 335.7 421.781C335.46 421.761 335.37 420.341 336.45 419.031C337.53 417.721 338.97 417.521 338.99 417.741Z" fill="white"/>
<path d="M344.53 418.131C344.66 418.341 343.81 419.051 343.35 420.261C342.89 421.471 343.02 422.571 342.79 422.631C342.56 422.691 341.99 421.461 342.58 419.961C343.17 418.461 344.46 417.921 344.53 418.131Z" fill="white"/>
<path d="M349.24 423.041C349.05 423.161 348.36 422.131 348.53 420.701C348.7 419.271 349.59 418.411 349.75 418.571C349.91 418.731 349.47 419.571 349.35 420.791C349.23 422.011 349.46 422.921 349.24 423.041Z" fill="white"/>
<path d="M336.76 412.411C336.76 412.651 335.59 412.681 334.34 413.191C333.09 413.701 332.22 414.441 332.04 414.291C331.86 414.141 332.55 413.011 334.04 412.421C335.53 411.831 336.82 412.191 336.76 412.411Z" fill="white"/>
<path d="M222.88 394.251L212.77 417.351C212.77 417.351 232.86 435.351 231.41 439.831L185.91 421.831L200.18 385.191L222.88 394.251Z" fill="#252C33"/>
<path d="M199.48 409.821C198.991 409.782 198.504 409.925 198.113 410.222C197.722 410.519 197.454 410.949 197.36 411.431C197.304 411.919 197.437 412.41 197.73 412.804C198.024 413.198 198.456 413.465 198.94 413.551C199.46 413.589 199.975 413.435 200.388 413.118C200.801 412.801 201.083 412.343 201.18 411.831C201.18 410.831 200.27 409.691 199.29 409.831" fill="#E0E0E0"/>
<path d="M230.52 436.811C230.52 436.811 232.2 438.501 231.41 439.811L185.91 421.811L187.5 418.181L230.5 436.781" fill="#0B1219"/>
<path d="M213.59 417.411C213.5 417.631 212.35 417.291 210.97 417.571C209.59 417.851 208.64 418.571 208.47 418.391C208.3 418.211 209.14 417.071 210.81 416.761C212.48 416.451 213.73 417.221 213.59 417.411Z" fill="white"/>
<path d="M217.59 421.271C217.59 421.501 216.45 421.501 215.32 422.141C214.19 422.781 213.59 423.691 213.32 423.601C213.05 423.511 213.46 422.191 214.87 421.421C216.28 420.651 217.67 421.061 217.59 421.271Z" fill="white"/>
<path d="M218.05 428.051C217.83 428.051 217.96 426.791 219.05 425.801C220.14 424.811 221.33 424.731 221.35 424.951C221.37 425.171 220.47 425.571 219.62 426.401C218.77 427.231 218.28 428.121 218.05 428.051Z" fill="white"/>
<path d="M215.32 411.921C215.15 412.081 214.25 411.381 212.96 410.921C211.67 410.461 210.54 410.521 210.5 410.291C210.46 410.061 211.71 409.631 213.22 410.131C214.73 410.631 215.5 411.761 215.32 411.921Z" fill="white"/>
<path d="M239.91 267.351L223.97 332.011C223.97 332.011 195.22 380.411 190.35 404.631L216.65 414.971C216.65 414.971 235.78 368.321 241.39 359.761C243.914 355.925 246.815 352.35 250.05 349.091C252.153 347.005 253.661 344.395 254.42 341.531L266.49 295.401L239.91 267.351Z" fill="#0B1219"/>
<path d="M233.12 257.011C233.12 257.011 235.34 274.331 252.01 282.011L287.13 339.211C287.13 339.211 289.88 357.811 295.13 373.481C300.38 389.151 310.99 419.351 310.99 419.351L339.88 408.551L321.47 345.611L318.47 323.781L289.81 250.781L265.19 236.021L233.12 257.011Z" fill="#0B1219"/>
<path d="M233.12 257.011L233.65 256.651L235.24 255.591L241.48 251.471L265.14 235.921L265.22 235.871L265.3 235.921L289.94 250.651V250.711L318.66 323.641V323.691C319.61 330.591 320.66 337.981 321.66 345.521C326.66 362.521 331.96 380.711 337.44 399.451C338.327 402.471 339.207 405.471 340.08 408.451L340.15 408.681L339.92 408.761L311.03 419.561L310.78 419.651L310.7 419.401C305.7 404.891 300.86 390.921 296.29 377.671C295.14 374.361 294.01 371.081 293.07 367.801C292.13 364.521 291.28 361.261 290.51 358.041C288.99 351.601 287.77 345.311 286.81 339.211V339.291L251.89 282.071L251.95 282.121C247.727 280.146 243.976 277.288 240.95 273.741C238.733 271.137 236.913 268.218 235.55 265.081C234.707 263.144 234.038 261.136 233.55 259.081C233.38 258.401 233.28 257.871 233.22 257.511C233.16 257.151 233.15 256.971 233.15 256.971C233.15 256.971 233.15 257.151 233.26 257.501C233.37 257.851 233.43 258.381 233.62 259.071C234.136 261.099 234.825 263.08 235.68 264.991C237.06 268.096 238.886 270.983 241.1 273.561C244.137 277.071 247.887 279.894 252.1 281.841L287.29 339.001V339.051C288.29 345.131 289.49 351.411 291.01 357.841C291.78 361.051 292.62 364.301 293.57 367.571C294.52 370.841 295.64 374.101 296.79 377.411C301.38 390.661 306.21 404.631 311.23 419.131L310.9 418.981L339.79 408.181L339.63 408.491C338.763 405.511 337.883 402.511 336.99 399.491L321.23 345.551C320.23 338.011 319.17 330.621 318.23 323.721V323.781L289.62 250.781L289.7 250.871L265.1 236.081H265.25L241.59 251.561L235.29 255.621L233.67 256.671L233.12 257.011Z" fill="#252C33"/>
<path d="M248.59 133.441C248.59 133.441 240.17 139.921 236.08 147.161C231.18 155.831 230.65 168.681 230.5 188.641C230.35 207.101 233.11 212.231 232.05 219.191C229.96 232.781 228.41 278.391 228.41 278.391C228.41 278.391 255.41 268.021 260.65 263.391L265.92 258.811L299.71 269.981L292.89 228.461L288.21 176.711L282.21 149.261L281.21 138.491L252.19 126.831L248.59 133.441Z" fill="#252C33"/>
<path d="M280.12 137.921C280.47 137.991 279.29 140.361 277.21 143.841L277.12 143.981L276.96 143.921C274.03 142.781 270.15 141.351 265.91 139.801C261.13 138.061 256.81 136.441 253.72 135.181C252.17 134.551 250.93 134.021 250.08 133.631C249.629 133.456 249.194 133.242 248.78 132.991C249.255 133.097 249.717 133.251 250.16 133.451L253.85 134.841L266.09 139.311C270.33 140.861 274.2 142.311 277.09 143.551L276.85 143.631C279.03 140.221 280.32 137.971 280.12 137.921Z" fill="#0B1219"/>
<path d="M315.04 116.361C315.04 116.361 312.9 113.031 310.88 109.961C308.86 106.891 305.8 105.381 305.31 103.781C304.82 102.181 302.13 95.0509 301.7 93.2809C301.326 91.5667 301.152 89.8151 301.18 88.0609C301.18 88.0609 303.39 87.1209 304.45 90.2809C305.09 92.1809 307.13 98.6309 307.57 98.9509C308.01 99.2709 308.57 98.8009 308.57 98.8009C307.661 96.3858 306.877 93.926 306.22 91.4309C306.12 90.2609 306.53 82.5009 306.53 82.5009C307.078 82.3904 307.648 82.4799 308.136 82.7532C308.624 83.0265 308.998 83.4656 309.19 83.9909C310.24 85.9909 310.28 90.9909 310.28 90.9909L311.87 96.5709L311.31 91.0509L312.11 80.9009C312.887 81.0116 313.611 81.359 314.183 81.8958C314.756 82.4326 315.149 83.1327 315.31 83.9009C315.98 86.6409 315.09 90.4609 315.54 91.2709C315.99 92.0809 316.48 96.9809 316.48 96.9809C316.48 96.9809 317.03 85.0809 318.3 84.7409C319.57 84.4009 320.61 85.6609 320.43 88.0609C320.25 90.4609 320.2 95.5409 320.86 97.7809C321.52 100.021 328.29 108.781 327.74 112.621C327.403 114.941 327.192 117.278 327.11 119.621H315.51L315.04 116.361Z" fill="#FFBF9D"/>
<path d="M274.35 146.331C275 146.581 302.71 153.441 302.71 153.441C302.71 153.441 308.9 143.441 309.81 140.541C310.72 137.641 315.59 118.321 315.59 118.321L327.3 117.221C327.3 117.221 324.3 167.111 320.06 169.801C315.82 172.491 309.06 173.851 308.62 173.701C308.18 173.551 278.67 175.601 263.12 163.351C247.57 151.101 274.35 146.331 274.35 146.331Z" fill="#FFBF9D"/>
<g opacity="0.3">
<path d="M254.49 172.741C257.464 176.107 261.432 178.44 265.82 179.401C273.17 181.021 288.82 183.891 288.82 183.891L288.06 176.211L254.06 172.571" fill="black"/>
</g>
<path d="M242.15 162.181C244.67 167.501 250.27 173.181 262.58 174.471C286.95 176.991 305.4 178.331 313.37 177.131C321.34 175.931 324.51 159.061 325.37 158.541C327.85 156.981 327.69 151.621 325.55 150.021C319.47 145.471 307.28 142.021 306.46 142.391C301.61 144.801 303.19 150.441 303.19 150.441L272.29 143.621C268.731 142.141 265.018 141.061 261.22 140.401" fill="#252C33"/>
<path d="M261.22 140.401C261.22 140.401 261.48 140.401 261.98 140.501C262.48 140.601 263.23 140.721 264.19 140.931C266.977 141.563 269.706 142.426 272.35 143.511L303.23 150.231L302.97 150.511C302.512 148.739 302.653 146.865 303.37 145.181C303.765 144.318 304.362 143.564 305.11 142.981C305.489 142.685 305.894 142.424 306.32 142.201C306.466 142.157 306.617 142.134 306.77 142.131H307.14C307.39 142.131 307.61 142.211 307.85 142.251C311.65 143.149 315.356 144.405 318.92 146.001C320.798 146.819 322.613 147.775 324.35 148.861C324.78 149.141 325.21 149.451 325.64 149.751C326.084 150.089 326.447 150.523 326.7 151.021C327.187 152.003 327.441 153.084 327.44 154.181C327.465 155.29 327.218 156.389 326.72 157.381C326.443 157.892 326.053 158.334 325.58 158.671C325.46 158.731 325.38 158.991 325.28 159.231L325.02 159.981C324.36 161.981 323.7 164.121 322.9 166.181C321.852 169.135 320.317 171.893 318.36 174.341C317.65 175.271 316.745 176.034 315.708 176.577C314.672 177.12 313.529 177.428 312.36 177.481C311.61 177.591 310.86 177.611 310.12 177.671C307.12 177.851 304.24 177.811 301.39 177.731C298.54 177.651 295.75 177.501 293.04 177.331C282.17 176.631 272.42 175.641 264.24 174.791C262.286 174.62 260.343 174.339 258.42 173.951C256.713 173.586 255.041 173.077 253.42 172.431C250.793 171.411 248.387 169.897 246.33 167.971C245.046 166.742 243.942 165.338 243.05 163.801C242.73 163.273 242.453 162.722 242.22 162.151C242.22 162.151 242.5 162.721 243.14 163.751C244.064 165.25 245.184 166.618 246.47 167.821C248.525 169.705 250.921 171.178 253.53 172.161C255.153 172.787 256.826 173.279 258.53 173.631C260.447 173.998 262.384 174.262 264.33 174.421C272.51 175.231 282.26 176.181 293.11 176.861C295.83 177.021 298.61 177.161 301.45 177.231C304.29 177.301 307.2 177.341 310.14 177.171C310.87 177.101 311.62 177.081 312.35 176.971C313.078 176.932 313.798 176.794 314.49 176.561C315.871 176.028 317.091 175.146 318.03 174.001C319.945 171.6 321.446 168.896 322.47 166.001C323.27 164.001 323.92 161.891 324.58 159.831L324.86 159.051C324.86 158.931 324.96 158.801 325.02 158.661C325.056 158.584 325.1 158.51 325.15 158.441C325.188 158.393 325.232 158.349 325.28 158.311L325.35 158.251C325.765 157.963 326.107 157.583 326.35 157.141C326.817 156.212 327.044 155.18 327.01 154.141C327.012 153.129 326.783 152.13 326.34 151.221C326.121 150.791 325.811 150.416 325.43 150.121C325 149.831 324.59 149.521 324.16 149.251C322.448 148.173 320.656 147.227 318.8 146.421C315.276 144.832 311.609 143.58 307.85 142.681C307.62 142.681 307.39 142.581 307.17 142.561H306.84H306.62C306.226 142.771 305.851 143.015 305.5 143.291C304.803 143.816 304.244 144.502 303.87 145.291C303.207 146.873 303.07 148.625 303.48 150.291L303.57 150.641L303.22 150.561L272.39 143.661C269.77 142.559 267.069 141.663 264.31 140.981C263.31 140.751 262.62 140.591 262.12 140.491C261.62 140.391 261.22 140.401 261.22 140.401Z" fill="#0B1219"/>
<path d="M313.37 160.091C312.66 159.915 311.984 159.621 311.37 159.221C309.837 158.365 308.425 157.309 307.17 156.081C305.91 154.857 304.808 153.479 303.89 151.981C303.473 151.367 303.153 150.692 302.94 149.981C304.311 152.001 305.846 153.904 307.53 155.671C309.341 157.316 311.296 158.795 313.37 160.091Z" fill="#0B1219"/>
<path d="M95.8096 242.451C95.8096 242.451 102.01 242.781 105.81 245.191C109.61 247.601 115.81 251.321 118.36 255.961C119.53 258.091 116.2 258.541 114.56 257.301C112.92 256.061 110.39 253.741 109.14 253.451L107.89 253.171C109.029 255.751 110.301 258.271 111.7 260.721C112.99 262.721 114.11 266.041 110.24 266.201C110.24 266.201 107.62 269.601 104.98 267.081C104.98 267.081 102.92 270.161 99.5996 265.891C99.5996 265.891 97.6696 268.331 96.8596 267.401C96.0496 266.471 93.4096 264.981 92.6396 261.921C91.4907 258.357 90.1555 254.855 88.6396 251.431L95.8096 242.451Z" fill="#FFBF9D"/>
<path d="M43.0496 160.921C39.8715 161.944 37.1286 164.004 35.2596 166.771C32.8796 170.431 32.1496 176.771 32.8296 181.491C34.2696 191.441 38.8296 208.231 41.3996 219.011C42.2796 222.731 44.0896 229.391 49.3996 232.921L87.2896 255.641L97.4196 240.641L62.8796 212.491L56.0496 173.911L43.0496 160.921Z" fill="#252C33"/>
<path d="M36.5 198.841C36.5519 198.967 36.5921 199.097 36.62 199.231L36.94 200.401C37.21 201.461 37.59 202.981 38.09 204.931C39.09 208.931 40.51 214.611 42.28 221.681C43.3076 225.532 45.4843 228.978 48.52 231.561C50.2541 232.949 52.1081 234.181 54.06 235.241L60.15 238.921L87.44 255.401L87.09 255.481L90.74 250.071L97.22 240.441L97.27 240.791L63.04 212.601H62.98V212.531C60.72 203.021 59.08 195.231 58.04 189.811C57.53 187.101 57.17 184.991 56.94 183.551C56.84 182.851 56.76 182.301 56.7 181.911C56.64 181.521 56.63 181.351 56.63 181.351C56.6843 181.531 56.7277 181.715 56.76 181.901C56.83 182.291 56.93 182.831 57.05 183.531C57.32 184.961 57.71 187.071 58.27 189.771C59.36 195.171 61.06 202.941 63.37 212.441L63.3 212.331L97.59 240.391L97.77 240.541L97.64 240.731L91.16 250.361L87.51 255.771L87.38 255.971L87.16 255.851L59.91 239.321L53.83 235.631C51.8651 234.56 49.998 233.318 48.25 231.921C45.1618 229.276 42.9594 225.747 41.94 221.811C40.23 214.721 38.86 208.991 37.94 205.021C37.49 203.021 37.13 201.531 36.88 200.471L36.59 199.241C36.5507 199.11 36.5206 198.976 36.5 198.841Z" fill="#0B1219"/>
<path d="M37.1201 166.251C37.3554 166.096 37.616 165.985 37.8901 165.921C38.616 165.697 39.3582 165.529 40.1101 165.421C42.6183 165.034 45.1849 165.381 47.5001 166.421C49.7378 167.587 51.6385 169.309 53.0201 171.421C53.439 172.059 53.7751 172.748 54.0201 173.471C54.1275 173.728 54.1884 174.002 54.2001 174.281C53.7679 173.363 53.27 172.477 52.7101 171.631C51.2867 169.66 49.4243 168.048 47.2701 166.921C45.0359 165.931 42.579 165.551 40.1501 165.821C38.2801 165.971 37.1501 166.341 37.1201 166.251Z" fill="#0B1219"/>
</svg>
