<svg width="110" height="108" viewBox="0 0 110 108" fill="none" xmlns="http://www.w3.org/2000/svg">
<g clip-path="url(#clip0_180_156)">
<path d="M69.8329 24.1481H40.1927C39.5172 24.1489 38.8697 24.4176 38.3921 24.8952C37.9145 25.3728 37.6458 26.0203 37.645 26.6958V92.5716L37.3053 92.6753L30.034 94.902C29.6894 95.0071 29.3172 94.9711 28.9991 94.802C28.681 94.6329 28.443 94.3445 28.3373 94.0001L6.7087 23.3515C6.60345 23.0069 6.63932 22.6346 6.80844 22.3164C6.97756 21.9982 7.26609 21.7602 7.61061 21.6547L18.8156 18.2237L51.2991 8.28078L62.504 4.84983C62.6745 4.79735 62.8537 4.77901 63.0313 4.79586C63.2089 4.81271 63.3815 4.86443 63.5391 4.94804C63.6967 5.03165 63.8363 5.14553 63.9498 5.28314C64.0634 5.42076 64.1487 5.57941 64.2008 5.75003L69.7294 23.8084L69.8329 24.1481Z" fill="white"/>
<path d="M76.3033 23.8123L69.6402 2.04792C69.5293 1.68528 69.3481 1.34804 69.1068 1.05547C68.8656 0.762907 68.5691 0.520743 68.2342 0.34282C67.8993 0.164897 67.5327 0.0546996 67.1552 0.0185306C66.7777 -0.0176384 66.3968 0.0209292 66.0343 0.132025L50.2808 4.95402L17.799 14.8986L2.04559 19.7223C1.31377 19.9471 0.701006 20.453 0.3418 21.129C-0.0174057 21.805 -0.0937061 22.596 0.12965 23.3282L22.903 97.7099C23.0844 98.301 23.4505 98.8184 23.9476 99.1861C24.4446 99.5538 25.0464 99.7526 25.6647 99.7532C25.9509 99.7533 26.2355 99.7104 26.5088 99.6258L37.3078 96.3206L37.6475 96.2153V95.8603L37.3078 95.9639L26.4087 99.3014C25.7627 99.4983 25.065 99.431 24.4686 99.1142C23.8722 98.7973 23.4258 98.2569 23.2274 97.6114L0.455829 23.228C0.357502 22.9082 0.323232 22.5721 0.354981 22.239C0.38673 21.9059 0.483872 21.5823 0.640849 21.2868C0.797827 20.9913 1.01156 20.7297 1.26979 20.5169C1.52803 20.3041 1.8257 20.1443 2.14577 20.0468L17.8992 15.2231L50.3811 5.28013L66.1345 0.456439C66.3773 0.382351 66.6297 0.344575 66.8835 0.344339C67.4283 0.345562 67.9583 0.521177 68.396 0.845463C68.8337 1.16975 69.156 1.62566 69.3158 2.14643L75.9484 23.8123L76.0537 24.152H76.407L76.3033 23.8123Z" fill="#EE2737"/>
<path d="M20.8374 21.7103C20.5101 21.7101 20.1914 21.605 19.9282 21.4104C19.6649 21.2157 19.471 20.9419 19.3748 20.629L17.1871 13.4831C17.1283 13.2912 17.1079 13.0895 17.1271 12.8897C17.1462 12.6898 17.2046 12.4957 17.2988 12.3185C17.3929 12.1412 17.5211 11.9842 17.676 11.8564C17.8309 11.7287 18.0094 11.6327 18.2013 11.574L48.0842 2.42527C48.4719 2.30697 48.8906 2.34732 49.2486 2.53745C49.6065 2.72757 49.8744 3.05195 49.9935 3.43938L52.1812 10.5853C52.2994 10.973 52.259 11.3917 52.0689 11.7496C51.8788 12.1075 51.5544 12.3754 51.1671 12.4945L21.284 21.6432C21.1393 21.6877 20.9888 21.7103 20.8374 21.7103Z" fill="#EE2737"/>
<path d="M32.2974 7.63549C34.1735 7.63549 35.6943 6.11462 35.6943 4.23852C35.6943 2.36243 34.1735 0.841553 32.2974 0.841553C30.4213 0.841553 28.9004 2.36243 28.9004 4.23852C28.9004 6.11462 30.4213 7.63549 32.2974 7.63549Z" fill="#EE2737"/>
<path d="M32.2976 6.38954C33.4856 6.38954 34.4486 5.42648 34.4486 4.23847C34.4486 3.05047 33.4856 2.0874 32.2976 2.0874C31.1096 2.0874 30.1465 3.05047 30.1465 4.23847C30.1465 5.42648 31.1096 6.38954 32.2976 6.38954Z" fill="white"/>
<path d="M102.356 98.8814H44.9476C44.5649 98.881 44.1979 98.7287 43.9272 98.4581C43.6566 98.1874 43.5043 97.8204 43.5039 97.4377V28.649C43.5043 28.2663 43.6566 27.8993 43.9272 27.6286C44.1979 27.358 44.5649 27.2057 44.9476 27.2053H102.356C102.739 27.2058 103.106 27.358 103.377 27.6287C103.647 27.8993 103.8 28.2663 103.8 28.649V97.4377C103.8 97.8204 103.647 98.1874 103.377 98.458C103.106 98.7287 102.739 98.8809 102.356 98.8814Z" fill="#59161C"/>
<path d="M75.9452 23.8083H40.1921C39.4266 23.8094 38.6929 24.114 38.1516 24.6553C37.6103 25.1965 37.3058 25.9303 37.3047 26.6958V95.96L37.6444 95.8564V26.6958C37.6452 26.0203 37.9139 25.3728 38.3915 24.8952C38.8691 24.4176 39.5167 24.1489 40.1921 24.148H76.0505L75.9452 23.8083ZM107.112 23.8083H40.1921C39.4266 23.8094 38.6929 24.114 38.1516 24.6553C37.6103 25.1965 37.3058 25.9303 37.3047 26.6958V104.486C37.3058 105.252 37.6103 105.986 38.1516 106.527C38.6929 107.068 39.4266 107.373 40.1921 107.374H107.112C107.878 107.373 108.612 107.068 109.153 106.527C109.694 105.986 109.999 105.252 110 104.486V26.6958C109.999 25.9303 109.694 25.1965 109.153 24.6553C108.612 24.114 107.878 23.8094 107.112 23.8083ZM109.66 104.486C109.659 105.162 109.391 105.809 108.913 106.287C108.435 106.765 107.788 107.033 107.112 107.034H40.1921C39.5167 107.033 38.8691 106.765 38.3915 106.287C37.9139 105.809 37.6452 105.162 37.6444 104.486V26.6958C37.6452 26.0203 37.9139 25.3728 38.3915 24.8952C38.8691 24.4176 39.5167 24.1489 40.1921 24.148H107.112C107.788 24.1489 108.435 24.4176 108.913 24.8952C109.391 25.3728 109.659 26.0203 109.66 26.6958V104.486Z" fill="#EE2737"/>
<path d="M89.2787 31.2816H58.0267C57.6214 31.2811 57.2328 31.1199 56.9463 30.8334C56.6597 30.5468 56.4985 30.1582 56.498 29.753V22.2796C56.4985 21.8743 56.6597 21.4858 56.9463 21.1992C57.2329 20.9126 57.6214 20.7514 58.0267 20.751H89.2787C89.684 20.7514 90.0726 20.9126 90.3591 21.1992C90.6457 21.4858 90.8069 21.8743 90.8074 22.2796V29.753C90.8069 30.1582 90.6457 30.5468 90.3592 30.8334C90.0726 31.1199 89.684 31.2811 89.2787 31.2816Z" fill="#EE2737"/>
<path d="M73.6528 21.2605C75.5289 21.2605 77.0498 19.7396 77.0498 17.8635C77.0498 15.9874 75.5289 14.4666 73.6528 14.4666C71.7767 14.4666 70.2559 15.9874 70.2559 17.8635C70.2559 19.7396 71.7767 21.2605 73.6528 21.2605Z" fill="#EE2737"/>
<path d="M73.6531 19.9328C74.7958 19.9328 75.7221 19.0065 75.7221 17.8638C75.7221 16.721 74.7958 15.7947 73.6531 15.7947C72.5103 15.7947 71.584 16.721 71.584 17.8638C71.584 19.0065 72.5103 19.9328 73.6531 19.9328Z" fill="white"/>
</g>
<defs>
<clipPath id="clip0_180_156">
<rect width="110" height="107.374" fill="white"/>
</clipPath>
</defs>
</svg>
