<svg width="500" height="500" viewBox="0 0 500 500" fill="none" xmlns="http://www.w3.org/2000/svg">
<g clip-path="url(#clip0_158_492)">
<path d="M379.737 110.875C379.737 110.875 331.055 57.5373 253.982 60.0887C176.908 62.6401 111.164 114.321 56.8111 154.756C2.45802 195.191 -12.1127 257.997 19.4834 307.029C51.0795 356.062 101.43 335.421 165.529 367.247C229.628 399.073 241.805 417.15 313.208 409.411C384.61 401.673 438.963 322.519 430.862 238.202C422.76 153.886 379.737 110.875 379.737 110.875Z" fill="#EE2737"/>
<path d="M260.305 440.27C392.88 440.27 500.354 434.407 500.354 427.174C500.354 419.942 392.88 414.079 260.305 414.079C127.73 414.079 20.2568 419.942 20.2568 427.174C20.2568 434.407 127.73 440.27 260.305 440.27Z" fill="#EE2737"/>
<path opacity="0.3" d="M260.305 440.27C392.88 440.27 500.354 434.407 500.354 427.174C500.354 419.942 392.88 414.079 260.305 414.079C127.73 414.079 20.2568 419.942 20.2568 427.174C20.2568 434.407 127.73 440.27 260.305 440.27Z" fill="white"/>
<path d="M402.167 229.786C402.095 229.786 403.002 225.276 403.098 224.95C404.138 221.733 408.056 216.123 411.841 216.135C412.47 216.153 413.088 216.303 413.656 216.576C414.223 216.848 414.727 217.237 415.134 217.718C415.541 218.198 415.843 218.758 416.019 219.362C416.195 219.967 416.243 220.602 416.158 221.225C415.879 223.898 413.485 226.159 411.321 227.477C408.781 229.061 402.167 229.786 402.167 229.786Z" fill="#EE2737"/>
<path d="M394.828 199.424C398.395 200.705 400.172 207.308 400.051 210.693C400.051 210.983 399.374 215.53 399.314 215.53H399.241C399.519 216.57 399.822 217.694 400.124 218.916C400.656 221.189 401.236 223.753 401.684 226.606C402.202 229.667 402.542 232.756 402.699 235.857C402.892 239.326 402.775 242.807 402.349 246.256C402.342 246.296 402.342 246.336 402.349 246.376C402.82 245.373 404.211 242.592 404.344 242.386C406.206 239.557 411.454 235.131 415.118 236.195C415.718 236.38 416.273 236.689 416.747 237.103C417.22 237.516 417.601 238.024 417.866 238.594C418.13 239.164 418.272 239.783 418.282 240.411C418.292 241.04 418.169 241.663 417.923 242.241C416.956 244.732 414.054 246.292 411.623 246.981C408.878 247.767 402.76 246.836 402.276 246.763C401.76 250.26 401.009 253.718 400.027 257.114C399.463 259.097 398.85 261.08 398.189 263.063C398.612 262.205 399.011 261.443 399.072 261.334C400.934 258.505 406.182 254.079 409.846 255.131C410.447 255.314 411.003 255.623 411.478 256.036C411.952 256.449 412.334 256.957 412.599 257.527C412.864 258.098 413.005 258.718 413.014 259.347C413.023 259.975 412.899 260.599 412.651 261.177C411.684 263.68 408.782 265.228 406.351 265.929C403.921 266.63 398.649 265.929 397.27 265.748C397.016 266.497 396.762 267.259 396.496 268.009C395.287 271.636 393.981 275.264 392.869 278.819C392.47 280.028 392.119 281.334 391.768 282.592C392.155 281.83 392.482 281.189 392.542 281.104C394.392 278.275 399.652 273.849 403.304 274.901C403.904 275.087 404.459 275.396 404.933 275.809C405.407 276.222 405.789 276.73 406.054 277.299C406.319 277.869 406.463 278.488 406.474 279.116C406.486 279.744 406.366 280.368 406.121 280.947C405.154 283.438 402.24 284.998 399.809 285.687C397.379 286.376 392.627 285.772 390.982 285.542C390.656 286.848 390.342 288.142 390.088 289.412C389.93 290.282 389.725 291.116 389.616 291.999C389.507 292.882 389.374 293.74 389.253 294.587C389.084 296.243 388.89 297.961 388.77 299.581C388.673 300.705 388.6 301.782 388.528 302.858C388.903 301.649 389.737 299.158 389.797 298.952C391.14 296.294 393.138 294.022 395.601 292.35C395.736 292.047 395.902 291.759 396.097 291.491C396.44 290.964 396.89 290.514 397.417 290.171C397.945 289.829 398.539 289.601 399.161 289.503C399.782 289.405 400.417 289.439 401.025 289.602C401.632 289.765 402.199 290.055 402.687 290.451C405.565 292.87 404.84 299.738 403.522 302.858C403.449 303.039 402.373 304.938 401.684 306.123C402.204 305.494 402.687 304.913 403.231 304.212C404.283 302.93 405.372 301.673 406.533 300.318L408.31 298.396C408.89 297.731 409.592 297.114 410.233 296.473C411.744 295.01 413.352 293.595 415.009 292.205C413.872 291.286 409.918 287.936 408.782 285.663C407.645 283.39 406.835 280.21 408.02 277.815C408.279 277.24 408.657 276.726 409.128 276.307C409.599 275.887 410.153 275.572 410.755 275.382C411.356 275.191 411.991 275.13 412.618 275.201C413.245 275.272 413.849 275.475 414.392 275.796C417.597 277.803 417.923 284.635 417.089 287.888C417.089 288.094 416.17 290.379 415.674 291.624C416.678 290.802 417.669 289.968 418.709 289.206C421.708 286.884 424.816 284.635 427.899 282.374L430.716 280.282C430.317 279.956 425.529 276.086 424.247 273.547C423.123 271.286 422.3 268.094 423.485 265.687C423.746 265.113 424.124 264.601 424.596 264.182C425.067 263.764 425.621 263.45 426.222 263.259C426.823 263.069 427.457 263.007 428.083 263.077C428.71 263.148 429.314 263.349 429.858 263.668C433.062 265.687 433.389 272.519 432.554 275.76C432.494 276.014 431.248 279.303 430.886 280.125C432.953 278.577 434.997 277.029 436.932 275.421C439.581 273.258 442.085 270.923 444.429 268.432C444.247 268.287 439.229 264.272 437.923 261.661C436.786 259.399 435.976 256.207 437.161 253.813C437.419 253.238 437.795 252.724 438.266 252.305C438.736 251.886 439.289 251.571 439.89 251.38C440.49 251.189 441.124 251.128 441.75 251.199C442.376 251.27 442.98 251.473 443.522 251.794C446.738 253.801 447.065 260.633 446.23 263.886C446.17 264.091 445.227 266.606 444.743 267.791L444.936 267.9C447.23 265.332 449.29 262.564 451.091 259.629C452.095 258.033 452.978 256.449 453.8 254.877C452.784 254.224 448.201 251.25 446.762 248.976C445.323 246.703 444.235 243.777 445.142 241.262C445.337 240.67 445.654 240.125 446.072 239.662C446.489 239.2 446.999 238.829 447.568 238.574C448.137 238.319 448.752 238.186 449.376 238.182C449.999 238.179 450.616 238.305 451.188 238.553C454.61 240.198 455.674 246.957 455.202 250.306C455.202 250.488 454.719 252.314 454.368 253.644C454.719 252.93 455.106 252.205 455.432 251.516C456.641 248.928 457.669 246.485 458.516 244.26C458.999 243.051 459.398 241.842 459.725 240.838C459.06 239.629 456.472 234.974 456.218 232.374C455.964 229.774 456.375 226.582 458.346 224.768C458.796 224.327 459.333 223.986 459.923 223.766C460.514 223.547 461.144 223.454 461.772 223.494C462.401 223.534 463.014 223.706 463.571 223.998C464.129 224.291 464.619 224.697 465.009 225.191C467.282 228.227 465.118 234.708 463.159 237.477C462.99 237.707 459.906 241.104 459.87 241.104V241.032C459.531 242.06 459.169 243.16 458.733 244.345C457.935 246.534 456.992 249.013 455.807 251.6C454.544 254.437 453.119 257.198 451.539 259.871C449.778 262.866 447.755 265.698 445.493 268.335L445.408 268.432C446.351 267.84 449.036 266.304 449.265 266.207C452.385 264.877 459.181 264.115 461.672 266.981C462.071 267.467 462.363 268.032 462.531 268.639C462.698 269.245 462.736 269.88 462.642 270.502C462.549 271.125 462.326 271.72 461.988 272.251C461.65 272.782 461.204 273.236 460.68 273.583C458.491 275.131 455.202 274.792 452.796 274.055C450.075 273.196 445.541 269.049 445.118 268.722C442.76 271.353 440.227 273.821 437.536 276.11C435.964 277.465 434.356 278.771 432.699 280.052C433.534 279.581 434.283 279.158 434.392 279.109C437.5 277.779 444.296 277.017 446.786 279.883C447.187 280.369 447.482 280.933 447.65 281.54C447.818 282.147 447.857 282.783 447.763 283.405C447.67 284.028 447.446 284.624 447.107 285.155C446.768 285.686 446.321 286.139 445.795 286.485C443.618 288.033 440.329 287.694 437.923 286.957C435.517 286.219 431.49 282.737 430.45 281.806L428.552 283.269C425.505 285.603 422.506 287.912 419.543 290.27C418.516 291.104 417.536 291.963 416.545 292.809C417.294 292.386 417.911 292.035 418.02 291.999C421.127 290.657 427.923 289.907 430.414 292.761C430.817 293.246 431.113 293.81 431.282 294.418C431.451 295.025 431.49 295.661 431.397 296.284C431.303 296.907 431.079 297.504 430.739 298.035C430.398 298.565 429.95 299.018 429.423 299.363C427.234 300.911 423.957 300.572 421.551 299.847C419.144 299.121 415.505 295.953 414.296 294.853C413.316 295.76 412.325 296.655 411.418 297.586C410.801 298.227 410.208 298.795 409.604 299.484C408.999 300.173 408.395 300.79 407.863 301.443C406.811 302.725 405.71 304.055 404.707 305.337C404.005 306.219 403.352 307.078 402.699 307.936C403.703 307.102 405.735 305.518 405.916 305.385C408.782 303.595 415.384 301.818 418.286 304.26C418.755 304.682 419.129 305.198 419.386 305.774C419.642 306.35 419.775 306.973 419.775 307.604C419.775 308.234 419.642 308.858 419.386 309.434C419.129 310.01 418.755 310.525 418.286 310.947C416.363 312.797 413.074 313.003 410.583 312.616C407.826 312.181 402.845 308.988 402.228 308.529C401.14 309.956 400.1 311.358 399.132 312.701C395.783 317.332 393.171 321.31 391.381 324.127L391.2 324.405L388.878 323.281C388.999 323.1 389.12 322.93 389.241 322.737C391.115 319.931 393.848 315.965 397.331 311.358C398.431 309.907 399.628 308.372 400.874 306.8C399.577 305.39 398.366 303.904 397.246 302.35C394.574 303.39 389.024 303.438 388.31 303.438C388.201 305.228 388.105 306.969 388.032 308.613C387.79 314.333 387.814 319.097 387.875 322.422V322.821L385.323 321.612C385.323 318.311 385.456 313.825 385.795 308.541C385.904 306.715 386.061 304.768 386.242 302.785C385.529 302.604 379.761 301.116 377.585 299.375C375.614 297.803 373.534 295.24 373.606 292.568C373.6 291.937 373.726 291.313 373.978 290.735C374.229 290.157 374.6 289.638 375.066 289.214C375.531 288.789 376.082 288.467 376.68 288.27C377.279 288.073 377.913 288.005 378.54 288.069C382.3 288.553 385.444 294.623 386.073 297.948C386.073 298.142 386.267 300.367 386.339 301.697C386.424 300.875 386.484 300.089 386.569 299.279C386.738 297.622 386.956 295.965 387.186 294.188C387.319 293.341 387.464 292.483 387.597 291.612C387.73 290.742 387.959 289.847 388.141 288.952C388.6 286.896 389.157 284.829 389.773 282.761C388.322 282.604 383.183 281.999 380.97 280.742C378.757 279.484 376.339 277.259 376.013 274.611C375.91 273.989 375.939 273.351 376.1 272.741C376.261 272.131 376.549 271.562 376.945 271.071C377.341 270.58 377.837 270.178 378.399 269.892C378.962 269.606 379.578 269.442 380.209 269.412C383.993 269.315 388.032 274.841 389.144 278.033C389.217 278.239 389.761 280.621 390.027 281.939C390.414 280.73 390.777 279.448 391.236 278.214C392.445 274.587 393.812 271.032 395.142 267.441C395.553 266.34 395.94 265.24 396.351 264.152C395.831 264.152 389.701 263.511 387.234 262.096C385.045 260.887 382.603 258.613 382.264 255.965C382.165 255.343 382.198 254.707 382.36 254.099C382.522 253.49 382.81 252.923 383.206 252.432C383.601 251.942 384.095 251.541 384.656 251.254C385.216 250.966 385.831 250.8 386.46 250.766C390.257 250.669 394.296 256.195 395.408 259.387C395.493 259.629 396.267 263.015 396.424 263.946C397.294 261.528 398.153 259.109 398.842 256.691C399.865 253.426 400.673 250.098 401.26 246.727C401.019 246.727 394.61 246.123 392.095 244.672C389.894 243.462 387.452 241.189 387.125 238.541C387.026 237.919 387.059 237.283 387.221 236.674C387.383 236.066 387.671 235.498 388.067 235.008C388.462 234.518 388.956 234.116 389.517 233.829C390.077 233.542 390.692 233.376 391.321 233.341C395.106 233.257 399.144 238.771 400.257 241.963C400.329 242.181 400.922 244.792 401.176 246.038H401.393C401.893 242.632 402.087 239.188 401.974 235.748C401.974 233.849 401.793 232.048 401.611 230.282C400.402 230.282 394.912 230.282 392.494 229.242C390.075 228.202 387.5 226.292 386.871 223.692C386.703 223.083 386.666 222.446 386.762 221.821C386.858 221.197 387.084 220.6 387.427 220.069C387.769 219.538 388.22 219.086 388.749 218.741C389.278 218.396 389.875 218.168 390.499 218.069C394.259 217.561 398.878 222.604 400.342 225.663C400.414 225.832 401.043 227.61 401.466 228.904C401.381 228.118 401.297 227.295 401.188 226.546C400.813 223.704 400.281 221.116 399.797 218.843C399.507 217.549 399.229 216.425 398.951 215.3C397.742 214.696 393.002 212.205 391.369 210.185C389.737 208.166 388.31 205.276 388.951 202.676C389.089 202.057 389.357 201.473 389.737 200.965C390.118 200.457 390.602 200.035 391.157 199.727C391.713 199.42 392.327 199.234 392.96 199.181C393.593 199.129 394.229 199.212 394.828 199.424Z" fill="#EE2737"/>
<path d="M463.365 257.864C460.403 257.743 454.478 254.708 454.478 254.696C454.478 254.684 457.658 251.407 457.887 251.225C460.536 249.109 466.896 246.594 470.052 248.686C470.567 249.05 470.999 249.518 471.321 250.059C471.644 250.601 471.848 251.204 471.922 251.83C471.997 252.456 471.938 253.091 471.751 253.693C471.565 254.295 471.253 254.851 470.838 255.324C469.145 257.356 465.892 257.961 463.365 257.864Z" fill="#EE2737"/>
<g opacity="0.5">
<path d="M402.167 229.786C402.095 229.786 403.002 225.276 403.098 224.95C404.138 221.733 408.056 216.123 411.841 216.135C412.47 216.153 413.088 216.303 413.656 216.576C414.223 216.848 414.727 217.237 415.134 217.718C415.541 218.198 415.843 218.758 416.019 219.362C416.195 219.967 416.243 220.602 416.158 221.225C415.879 223.898 413.485 226.159 411.321 227.477C408.781 229.061 402.167 229.786 402.167 229.786Z" fill="white"/>
<path d="M394.828 199.424C398.395 200.705 400.172 207.308 400.051 210.693C400.051 210.983 399.374 215.53 399.314 215.53H399.241C399.519 216.57 399.822 217.694 400.124 218.916C400.656 221.189 401.236 223.753 401.684 226.606C402.202 229.667 402.542 232.756 402.699 235.857C402.892 239.326 402.775 242.807 402.349 246.256C402.342 246.296 402.342 246.336 402.349 246.376C402.82 245.373 404.211 242.592 404.344 242.386C406.206 239.557 411.454 235.131 415.118 236.195C415.718 236.38 416.273 236.689 416.747 237.103C417.22 237.516 417.601 238.024 417.866 238.594C418.13 239.164 418.272 239.783 418.282 240.411C418.292 241.04 418.169 241.663 417.923 242.241C416.956 244.732 414.054 246.292 411.623 246.981C408.878 247.767 402.76 246.836 402.276 246.763C401.76 250.26 401.009 253.718 400.027 257.114C399.463 259.097 398.85 261.08 398.189 263.063C398.612 262.205 399.011 261.443 399.072 261.334C400.934 258.505 406.182 254.079 409.846 255.131C410.447 255.314 411.003 255.623 411.478 256.036C411.952 256.449 412.334 256.957 412.599 257.527C412.864 258.098 413.005 258.718 413.014 259.347C413.023 259.975 412.899 260.599 412.651 261.177C411.684 263.68 408.782 265.228 406.351 265.929C403.921 266.63 398.649 265.929 397.27 265.748C397.016 266.497 396.762 267.259 396.496 268.009C395.287 271.636 393.981 275.264 392.869 278.819C392.47 280.028 392.119 281.334 391.768 282.592C392.155 281.83 392.482 281.189 392.542 281.104C394.392 278.275 399.652 273.849 403.304 274.901C403.904 275.087 404.459 275.396 404.933 275.809C405.407 276.222 405.789 276.73 406.054 277.299C406.319 277.869 406.463 278.488 406.474 279.116C406.486 279.744 406.366 280.368 406.121 280.947C405.154 283.438 402.24 284.998 399.809 285.687C397.379 286.376 392.627 285.772 390.982 285.542C390.656 286.848 390.342 288.142 390.088 289.412C389.93 290.282 389.725 291.116 389.616 291.999C389.507 292.882 389.374 293.74 389.253 294.587C389.084 296.243 388.89 297.961 388.77 299.581C388.673 300.705 388.6 301.782 388.528 302.858C388.903 301.649 389.737 299.158 389.797 298.952C391.14 296.294 393.138 294.022 395.601 292.35C395.736 292.047 395.902 291.759 396.097 291.491C396.44 290.964 396.89 290.514 397.417 290.171C397.945 289.829 398.539 289.601 399.161 289.503C399.782 289.405 400.417 289.439 401.025 289.602C401.632 289.765 402.199 290.055 402.687 290.451C405.565 292.87 404.84 299.738 403.522 302.858C403.449 303.039 402.373 304.938 401.684 306.123C402.204 305.494 402.687 304.913 403.231 304.212C404.283 302.93 405.372 301.673 406.533 300.318L408.31 298.396C408.89 297.731 409.592 297.114 410.233 296.473C411.744 295.01 413.352 293.595 415.009 292.205C413.872 291.286 409.918 287.936 408.782 285.663C407.645 283.39 406.835 280.21 408.02 277.815C408.279 277.24 408.657 276.726 409.128 276.307C409.599 275.887 410.153 275.572 410.755 275.382C411.356 275.191 411.991 275.13 412.618 275.201C413.245 275.272 413.849 275.475 414.392 275.796C417.597 277.803 417.923 284.635 417.089 287.888C417.089 288.094 416.17 290.379 415.674 291.624C416.678 290.802 417.669 289.968 418.709 289.206C421.708 286.884 424.816 284.635 427.899 282.374L430.716 280.282C430.317 279.956 425.529 276.086 424.247 273.547C423.123 271.286 422.3 268.094 423.485 265.687C423.746 265.113 424.124 264.601 424.596 264.182C425.067 263.764 425.621 263.45 426.222 263.259C426.823 263.069 427.457 263.007 428.083 263.077C428.71 263.148 429.314 263.349 429.858 263.668C433.062 265.687 433.389 272.519 432.554 275.76C432.494 276.014 431.248 279.303 430.886 280.125C432.953 278.577 434.997 277.029 436.932 275.421C439.581 273.258 442.085 270.923 444.429 268.432C444.247 268.287 439.229 264.272 437.923 261.661C436.786 259.399 435.976 256.207 437.161 253.813C437.419 253.238 437.795 252.724 438.266 252.305C438.736 251.886 439.289 251.571 439.89 251.38C440.49 251.189 441.124 251.128 441.75 251.199C442.376 251.27 442.98 251.473 443.522 251.794C446.738 253.801 447.065 260.633 446.23 263.886C446.17 264.091 445.227 266.606 444.743 267.791L444.936 267.9C447.23 265.332 449.29 262.564 451.091 259.629C452.095 258.033 452.978 256.449 453.8 254.877C452.784 254.224 448.201 251.25 446.762 248.976C445.323 246.703 444.235 243.777 445.142 241.262C445.337 240.67 445.654 240.125 446.072 239.662C446.489 239.2 446.999 238.829 447.568 238.574C448.137 238.319 448.752 238.186 449.376 238.182C449.999 238.179 450.616 238.305 451.188 238.553C454.61 240.198 455.674 246.957 455.202 250.306C455.202 250.488 454.719 252.314 454.368 253.644C454.719 252.93 455.106 252.205 455.432 251.516C456.641 248.928 457.669 246.485 458.516 244.26C458.999 243.051 459.398 241.842 459.725 240.838C459.06 239.629 456.472 234.974 456.218 232.374C455.964 229.774 456.375 226.582 458.346 224.768C458.796 224.327 459.333 223.986 459.923 223.766C460.514 223.547 461.144 223.454 461.772 223.494C462.401 223.534 463.014 223.706 463.571 223.998C464.129 224.291 464.619 224.697 465.009 225.191C467.282 228.227 465.118 234.708 463.159 237.477C462.99 237.707 459.906 241.104 459.87 241.104V241.032C459.531 242.06 459.169 243.16 458.733 244.345C457.935 246.534 456.992 249.013 455.807 251.6C454.544 254.437 453.119 257.198 451.539 259.871C449.778 262.866 447.755 265.698 445.493 268.335L445.408 268.432C446.351 267.84 449.036 266.304 449.265 266.207C452.385 264.877 459.181 264.115 461.672 266.981C462.071 267.467 462.363 268.032 462.531 268.639C462.698 269.245 462.736 269.88 462.642 270.502C462.549 271.125 462.326 271.72 461.988 272.251C461.65 272.782 461.204 273.236 460.68 273.583C458.491 275.131 455.202 274.792 452.796 274.055C450.075 273.196 445.541 269.049 445.118 268.722C442.76 271.353 440.227 273.821 437.536 276.11C435.964 277.465 434.356 278.771 432.699 280.052C433.534 279.581 434.283 279.158 434.392 279.109C437.5 277.779 444.296 277.017 446.786 279.883C447.187 280.369 447.482 280.933 447.65 281.54C447.818 282.147 447.857 282.783 447.763 283.405C447.67 284.028 447.446 284.624 447.107 285.155C446.768 285.686 446.321 286.139 445.795 286.485C443.618 288.033 440.329 287.694 437.923 286.957C435.517 286.219 431.49 282.737 430.45 281.806L428.552 283.269C425.505 285.603 422.506 287.912 419.543 290.27C418.516 291.104 417.536 291.963 416.545 292.809C417.294 292.386 417.911 292.035 418.02 291.999C421.127 290.657 427.923 289.907 430.414 292.761C430.817 293.246 431.113 293.81 431.282 294.418C431.451 295.025 431.49 295.661 431.397 296.284C431.303 296.907 431.079 297.504 430.739 298.035C430.398 298.565 429.95 299.018 429.423 299.363C427.234 300.911 423.957 300.572 421.551 299.847C419.144 299.121 415.505 295.953 414.296 294.853C413.316 295.76 412.325 296.655 411.418 297.586C410.801 298.227 410.208 298.795 409.604 299.484C408.999 300.173 408.395 300.79 407.863 301.443C406.811 302.725 405.71 304.055 404.707 305.337C404.005 306.219 403.352 307.078 402.699 307.936C403.703 307.102 405.735 305.518 405.916 305.385C408.782 303.595 415.384 301.818 418.286 304.26C418.755 304.682 419.129 305.198 419.386 305.774C419.642 306.35 419.775 306.973 419.775 307.604C419.775 308.234 419.642 308.858 419.386 309.434C419.129 310.01 418.755 310.525 418.286 310.947C416.363 312.797 413.074 313.003 410.583 312.616C407.826 312.181 402.845 308.988 402.228 308.529C401.14 309.956 400.1 311.358 399.132 312.701C395.783 317.332 393.171 321.31 391.381 324.127L391.2 324.405L388.878 323.281C388.999 323.1 389.12 322.93 389.241 322.737C391.115 319.931 393.848 315.965 397.331 311.358C398.431 309.907 399.628 308.372 400.874 306.8C399.577 305.39 398.366 303.904 397.246 302.35C394.574 303.39 389.024 303.438 388.31 303.438C388.201 305.228 388.105 306.969 388.032 308.613C387.79 314.333 387.814 319.097 387.875 322.422V322.821L385.323 321.612C385.323 318.311 385.456 313.825 385.795 308.541C385.904 306.715 386.061 304.768 386.242 302.785C385.529 302.604 379.761 301.116 377.585 299.375C375.614 297.803 373.534 295.24 373.606 292.568C373.6 291.937 373.726 291.313 373.978 290.735C374.229 290.157 374.6 289.638 375.066 289.214C375.531 288.789 376.082 288.467 376.68 288.27C377.279 288.073 377.913 288.005 378.54 288.069C382.3 288.553 385.444 294.623 386.073 297.948C386.073 298.142 386.267 300.367 386.339 301.697C386.424 300.875 386.484 300.089 386.569 299.279C386.738 297.622 386.956 295.965 387.186 294.188C387.319 293.341 387.464 292.483 387.597 291.612C387.73 290.742 387.959 289.847 388.141 288.952C388.6 286.896 389.157 284.829 389.773 282.761C388.322 282.604 383.183 281.999 380.97 280.742C378.757 279.484 376.339 277.259 376.013 274.611C375.91 273.989 375.939 273.351 376.1 272.741C376.261 272.131 376.549 271.562 376.945 271.071C377.341 270.58 377.837 270.178 378.399 269.892C378.962 269.606 379.578 269.442 380.209 269.412C383.993 269.315 388.032 274.841 389.144 278.033C389.217 278.239 389.761 280.621 390.027 281.939C390.414 280.73 390.777 279.448 391.236 278.214C392.445 274.587 393.812 271.032 395.142 267.441C395.553 266.34 395.94 265.24 396.351 264.152C395.831 264.152 389.701 263.511 387.234 262.096C385.045 260.887 382.603 258.613 382.264 255.965C382.165 255.343 382.198 254.707 382.36 254.099C382.522 253.49 382.81 252.923 383.206 252.432C383.601 251.942 384.095 251.541 384.656 251.254C385.216 250.966 385.831 250.8 386.46 250.766C390.257 250.669 394.296 256.195 395.408 259.387C395.493 259.629 396.267 263.015 396.424 263.946C397.294 261.528 398.153 259.109 398.842 256.691C399.865 253.426 400.673 250.098 401.26 246.727C401.019 246.727 394.61 246.123 392.095 244.672C389.894 243.462 387.452 241.189 387.125 238.541C387.026 237.919 387.059 237.283 387.221 236.674C387.383 236.066 387.671 235.498 388.067 235.008C388.462 234.518 388.956 234.116 389.517 233.829C390.077 233.542 390.692 233.376 391.321 233.341C395.106 233.257 399.144 238.771 400.257 241.963C400.329 242.181 400.922 244.792 401.176 246.038H401.393C401.893 242.632 402.087 239.188 401.974 235.748C401.974 233.849 401.793 232.048 401.611 230.282C400.402 230.282 394.912 230.282 392.494 229.242C390.075 228.202 387.5 226.292 386.871 223.692C386.703 223.083 386.666 222.446 386.762 221.821C386.858 221.197 387.084 220.6 387.427 220.069C387.769 219.538 388.22 219.086 388.749 218.741C389.278 218.396 389.875 218.168 390.499 218.069C394.259 217.561 398.878 222.604 400.342 225.663C400.414 225.832 401.043 227.61 401.466 228.904C401.381 228.118 401.297 227.295 401.188 226.546C400.813 223.704 400.281 221.116 399.797 218.843C399.507 217.549 399.229 216.425 398.951 215.3C397.742 214.696 393.002 212.205 391.369 210.185C389.737 208.166 388.31 205.276 388.951 202.676C389.089 202.057 389.357 201.473 389.737 200.965C390.118 200.457 390.602 200.035 391.157 199.727C391.713 199.42 392.327 199.234 392.96 199.181C393.593 199.129 394.229 199.212 394.828 199.424Z" fill="white"/>
<path d="M463.365 257.864C460.403 257.743 454.478 254.708 454.478 254.696C454.478 254.684 457.658 251.407 457.887 251.225C460.536 249.109 466.896 246.594 470.052 248.686C470.567 249.05 470.999 249.518 471.321 250.059C471.644 250.601 471.848 251.204 471.922 251.83C471.997 252.456 471.938 253.091 471.751 253.693C471.565 254.295 471.253 254.851 470.838 255.324C469.145 257.356 465.892 257.961 463.365 257.864Z" fill="white"/>
</g>
<path d="M428.77 332.06C428.77 332.06 410.789 288.71 400.729 290.597C390.668 292.483 417.96 359.69 417.96 359.69C417.96 359.69 386.327 300.016 364.755 300.016C343.183 300.016 372.664 365.977 399.979 387.961C399.979 387.961 356.847 341.479 331.684 351.528C306.521 361.576 382.011 408.686 382.011 408.686C382.011 408.686 338.153 394.865 343.183 405.542C348.214 416.219 361.878 418.106 361.878 418.106L312.301 420.621H484.852L446.025 416.848C446.025 416.848 486.291 396.751 475.505 388.589C464.719 380.427 440.995 398.009 440.995 398.009C440.995 398.009 481.974 352.785 474.066 335.82C466.158 318.855 430.922 366.606 430.922 366.606C430.922 366.606 459.689 305.675 453.897 294.998C448.105 284.321 428.77 332.06 428.77 332.06Z" fill="#EE2737"/>
<path opacity="0.4" d="M428.77 332.06C428.77 332.06 410.789 288.71 400.729 290.597C390.668 292.483 417.96 359.69 417.96 359.69C417.96 359.69 386.327 300.016 364.755 300.016C343.183 300.016 372.664 365.977 399.979 387.961C399.979 387.961 356.847 341.479 331.684 351.528C306.521 361.576 382.011 408.686 382.011 408.686C382.011 408.686 338.153 394.865 343.183 405.542C348.214 416.219 361.878 418.106 361.878 418.106L312.301 420.621H484.852L446.025 416.848C446.025 416.848 486.291 396.751 475.505 388.589C464.719 380.427 440.995 398.009 440.995 398.009C440.995 398.009 481.974 352.785 474.066 335.82C466.158 318.855 430.922 366.606 430.922 366.606C430.922 366.606 459.689 305.675 453.897 294.998C448.105 284.321 428.77 332.06 428.77 332.06Z" fill="white"/>
<path d="M434.526 334.333C418.697 381.068 418.697 414.139 418.697 414.139C418.697 414.139 437.391 414.853 456.811 400.476" stroke="#263238" stroke-linecap="round" stroke-linejoin="round"/>
<path d="M426.617 359.508C423.353 345.534 419.024 331.83 413.667 318.517" stroke="#263238" stroke-linecap="round" stroke-linejoin="round"/>
<path d="M379.882 332.181L420.136 391.854C420.136 391.854 447.463 368.879 456.81 355.905" stroke="#263238" stroke-linecap="round" stroke-linejoin="round"/>
<path d="M419.424 406.243C419.424 406.243 377.005 386.11 359.75 374.647" stroke="#263238" stroke-linecap="round" stroke-linejoin="round"/>
<path d="M381.345 84.4418H252.155C246.866 84.4418 242.578 88.7294 242.578 94.0186V411.044C242.578 416.333 246.866 420.621 252.155 420.621H381.345C386.634 420.621 390.922 416.333 390.922 411.044V94.0186C390.922 88.7294 386.634 84.4418 381.345 84.4418Z" fill="white" stroke="#263238" stroke-linecap="round" stroke-linejoin="round"/>
<path d="M385.964 143.293C385.441 143.293 384.94 143.085 384.57 142.716C384.201 142.346 383.993 141.845 383.993 141.322V114.901C384.032 114.404 384.257 113.939 384.624 113.6C384.99 113.261 385.471 113.073 385.97 113.073C386.469 113.073 386.95 113.261 387.317 113.6C387.683 113.939 387.908 114.404 387.947 114.901V141.274C387.952 141.537 387.904 141.799 387.807 142.044C387.709 142.289 387.564 142.511 387.379 142.699C387.195 142.887 386.975 143.037 386.732 143.139C386.489 143.241 386.228 143.293 385.964 143.293Z" fill="#263238"/>
<path d="M385.964 167.767C385.441 167.767 384.94 167.559 384.57 167.19C384.201 166.82 383.993 166.319 383.993 165.796V151.032C384.032 150.534 384.257 150.07 384.624 149.731C384.99 149.392 385.471 149.204 385.97 149.204C386.469 149.204 386.95 149.392 387.317 149.731C387.683 150.07 387.908 150.534 387.947 151.032V165.796C387.944 166.32 387.734 166.821 387.362 167.19C386.991 167.56 386.488 167.767 385.964 167.767Z" fill="#263238"/>
<path d="M370.16 84.4418H240.97C235.681 84.4418 231.394 88.7294 231.394 94.0186V411.044C231.394 416.333 235.681 420.621 240.97 420.621H370.16C375.449 420.621 379.737 416.333 379.737 411.044V94.0186C379.737 88.7294 375.449 84.4418 370.16 84.4418Z" fill="#263238" stroke="#263238" stroke-linecap="round" stroke-linejoin="round"/>
<path d="M369.858 106.824H241.272V395.167H369.858V106.824Z" fill="#EE2737"/>
<path d="M286.472 97.6098H320.704" stroke="white" stroke-width="3" stroke-linecap="round" stroke-linejoin="round"/>
<path d="M300.958 405.373C300.958 407.731 299.483 409.641 297.657 409.641C295.831 409.641 294.368 407.731 294.368 405.373C294.368 403.015 295.843 401.092 297.657 401.092C299.471 401.092 300.958 403.003 300.958 405.373Z" fill="white"/>
<path d="M305.566 178.577C317.881 178.577 327.863 166.938 327.863 152.58C327.863 138.222 317.881 126.582 305.566 126.582C293.251 126.582 283.269 138.222 283.269 152.58C283.269 166.938 293.251 178.577 305.566 178.577Z" fill="white"/>
<path d="M305.565 152.253C310.24 152.253 314.029 147.83 314.029 142.374C314.029 136.918 310.24 132.495 305.565 132.495C300.89 132.495 297.101 136.918 297.101 142.374C297.101 147.83 300.89 152.253 305.565 152.253Z" fill="#263238" stroke="#263238" stroke-linecap="round" stroke-linejoin="round"/>
<path d="M305.566 154.877C297.101 154.877 290.173 161.37 290.173 169.387C290.18 170.133 290.248 170.878 290.378 171.612C292.256 173.804 294.586 175.563 297.207 176.769C299.829 177.975 302.68 178.599 305.566 178.599C308.451 178.599 311.303 177.975 313.925 176.769C316.546 175.563 318.876 173.804 320.753 171.612C320.873 170.876 320.938 170.133 320.947 169.387C320.947 161.37 314.054 154.877 305.566 154.877Z" fill="#263238" stroke="#263238" stroke-linecap="round" stroke-linejoin="round"/>
<path d="M332.675 265.82H278.455C277.02 265.764 275.666 265.14 274.691 264.085C273.716 263.031 273.199 261.632 273.255 260.197V226.727C273.255 207.441 287.765 191.745 305.565 191.745C323.364 191.745 337.862 207.465 337.862 226.727V260.173C337.893 260.885 337.783 261.595 337.539 262.265C337.295 262.934 336.921 263.548 336.439 264.072C335.958 264.597 335.377 265.021 334.731 265.321C334.085 265.621 333.386 265.791 332.675 265.82ZM283.642 254.575H327.475V226.763C327.475 213.68 317.644 203.027 305.565 203.027C293.485 203.027 283.642 213.68 283.642 226.763V254.575Z" fill="#263238"/>
<path d="M343.207 242.979H267.923V314.2H343.207V242.979Z" fill="white"/>
<path d="M316.532 292.011L310.946 278.577C312.181 277.643 313.18 276.432 313.863 275.042C314.545 273.652 314.892 272.121 314.875 270.572C314.875 265.216 310.873 260.899 305.927 260.899C300.982 260.899 296.992 265.228 296.992 270.572C296.973 272.12 297.317 273.651 297.998 275.041C298.678 276.431 299.676 277.642 300.909 278.577L295.335 292.011H316.532Z" fill="#263238" stroke="#263238" stroke-linecap="round" stroke-linejoin="round"/>
<path d="M282.627 378.202C282.743 378.287 282.883 378.334 283.026 378.335C283.129 378.335 283.23 378.309 283.321 378.261C283.412 378.212 283.489 378.143 283.546 378.057L369.858 260.657V258.432L282.531 377.283C282.476 377.35 282.436 377.427 282.412 377.509C282.387 377.591 282.379 377.678 282.388 377.763C282.397 377.848 282.423 377.931 282.464 378.006C282.505 378.082 282.56 378.148 282.627 378.202Z" fill="white"/>
<path d="M352.493 149.121C352.442 149.191 352.404 149.27 352.384 149.354C352.363 149.438 352.36 149.526 352.373 149.611C352.387 149.697 352.417 149.779 352.463 149.852C352.508 149.926 352.568 149.99 352.638 150.04C352.78 150.141 352.955 150.182 353.127 150.155C353.299 150.128 353.453 150.035 353.557 149.895L369.857 127.731V125.554L352.493 149.121Z" fill="white"/>
<path d="M241.272 302.652L347.826 157.755C347.929 157.614 347.971 157.438 347.944 157.265C347.917 157.093 347.822 156.939 347.681 156.836C347.54 156.733 347.364 156.691 347.192 156.718C347.019 156.745 346.865 156.84 346.762 156.981L241.321 300.427L241.272 302.652Z" fill="white"/>
<path d="M272.615 392.495C272.718 392.493 272.819 392.468 272.911 392.422C273.004 392.376 273.084 392.31 273.147 392.229L279.193 384.055C279.245 383.985 279.282 383.906 279.302 383.822C279.323 383.738 279.327 383.65 279.313 383.565C279.3 383.479 279.269 383.397 279.224 383.324C279.178 383.25 279.119 383.186 279.048 383.136C278.906 383.035 278.731 382.994 278.559 383.021C278.387 383.048 278.233 383.141 278.129 383.281L272.083 391.443C272.031 391.512 271.993 391.59 271.972 391.674C271.95 391.758 271.946 391.845 271.958 391.93C271.97 392.016 271.999 392.098 272.044 392.172C272.088 392.246 272.147 392.311 272.216 392.362C272.33 392.452 272.471 392.499 272.615 392.495Z" fill="white"/>
<path d="M369.858 284.164L298.999 380.548C298.927 380.646 298.884 380.762 298.874 380.882C298.864 381.003 298.888 381.125 298.944 381.233C298.999 381.34 299.083 381.431 299.187 381.494C299.291 381.556 299.41 381.589 299.531 381.588C299.635 381.59 299.737 381.567 299.83 381.52C299.923 381.474 300.003 381.406 300.063 381.322L369.858 286.376V284.164Z" fill="white"/>
<path d="M120.995 148.698C122.194 146.042 122.773 143.147 122.688 140.234C122.688 134.829 116.147 131.697 108.456 130.838C100.766 129.98 97.3558 133.112 98.4924 135.107C99.6736 136.752 101.115 138.194 102.761 139.375C102.761 139.375 95.0704 135.107 89.9434 138.529C84.8165 141.951 92.2288 140.524 90.8019 143.934C89.3751 147.344 81.4065 145.929 79.4114 155.034C77.4162 164.139 83.1115 173.257 77.9845 177.247C72.8576 181.237 57.4283 175.82 52.9301 185.784C48.4319 195.748 54.8165 200.173 44.0063 206.437C33.1961 212.701 25.3122 218.819 28.444 234.188C31.5758 249.557 41.8298 254.938 62.0474 249.508C82.2651 244.079 80.8382 231.854 87.4404 219.279C94.0426 206.703 104.248 209.315 107.38 202.193C110.512 195.071 106.521 186.534 106.812 179.98C107.102 173.426 113.644 172.011 116.207 164.26C118.77 156.509 120.995 148.698 120.995 148.698Z" fill="#263238" stroke="#263238" stroke-linecap="round" stroke-linejoin="round"/>
<path d="M30.8021 233.898C30.2718 234.968 30.0025 236.149 30.0161 237.344" stroke="white" stroke-width="0.5" stroke-linecap="round" stroke-linejoin="round"/>
<path d="M110.064 143.051C110.064 143.051 106.509 138.94 113.353 140.85C121.975 143.269 111.854 153.245 107.96 155.252C100.149 159.254 89.8225 157.973 83.7766 165.252C78.2868 171.83 85.6992 178.686 82.4102 183.898C79.1212 189.109 65.9531 186.086 61.5758 192.362C57.1986 198.638 69.5202 212.108 56.9084 219.508C47.7911 224.865 37.8032 226.921 32.9785 231.165" stroke="white" stroke-width="0.5" stroke-linecap="round" stroke-linejoin="round"/>
<path d="M89.6162 167.38C88.8689 169.129 88.6422 171.056 88.9633 172.93C90.0516 177.586 96.3635 186.364 90.6078 191.298C84.852 196.231 74.973 195.953 73.3406 201.733C71.7082 207.513 74.9851 223.39 69.5074 230.754C64.0298 238.118 53.3285 237.61 47.5727 242.543C41.817 247.477 42.6392 250.222 42.6392 250.222" stroke="white" stroke-width="0.5" stroke-linecap="round" stroke-linejoin="round"/>
<path d="M92.5191 161.963C92.0208 162.667 91.5606 163.398 91.1406 164.152" stroke="white" stroke-width="0.5" stroke-linecap="round" stroke-linejoin="round"/>
<path d="M124.684 233.462L126.075 244.345C126.075 244.345 133.33 251.6 138.663 256.086C143.995 260.572 157.659 270.064 157.659 270.064L150.73 272.035C150.73 272.035 128.082 258.613 123.608 257.525C119.134 256.437 115.785 249.98 114.394 248.021C113.004 246.062 121.045 231.503 124.684 233.462Z" fill="white" stroke="#263238" stroke-linecap="round" stroke-linejoin="round"/>
<path d="M138.517 410.524C138.517 410.524 145.361 416.304 148.19 418.239C151.02 420.173 154.321 421.044 153.801 422.096C153.281 423.148 151.866 424.2 145.204 423.305C138.541 422.41 136.618 420.149 135.385 419.798C134.152 419.448 131.177 420.33 128.904 418.928C126.63 417.525 130.234 409.17 130.234 409.17C131.232 410.337 132.612 411.113 134.128 411.361C135.644 411.609 137.198 411.312 138.517 410.524Z" fill="white" stroke="#263238" stroke-linecap="round" stroke-linejoin="round"/>
<path d="M153.776 422.096C153.781 422.04 153.781 421.983 153.776 421.927C149.929 422.28 146.05 421.915 142.337 420.85C138.032 419.835 136.763 417.549 132.664 417.549C131.055 417.564 129.456 417.302 127.936 416.775C127.892 417.179 127.947 417.587 128.096 417.964C128.246 418.341 128.486 418.676 128.794 418.94C131.067 420.343 134.054 419.46 135.275 419.811C136.497 420.161 138.431 422.447 145.094 423.317C151.757 424.188 153.244 423.148 153.776 422.096Z" fill="white" stroke="#263238" stroke-linecap="round" stroke-linejoin="round"/>
<path d="M102.688 176.824C102.688 176.824 104.006 185.699 102.313 189.279C100.62 192.858 95.3239 193.245 90.8015 194.006C86.2792 194.768 75.8922 198.722 77.0168 208.916C78.1413 219.109 91.1764 241.189 91.1764 247.416C91.1764 253.644 87.2102 256.848 82.8693 268.928C78.5283 281.008 79.0966 303.474 80.4509 318.009C81.4435 327.601 83.3382 337.079 86.1099 346.316C86.1099 346.316 75.2272 363.873 70.3904 371.419C65.5537 378.964 48.625 411.818 48.625 411.818C48.625 411.818 48.625 412.942 51.261 413.704C53.1156 414.155 55.0343 414.282 56.9321 414.079C56.9321 414.079 89.3868 375.01 95.4327 368.408C101.479 361.806 107.138 350.27 107.887 344.998C108.637 339.726 107.706 307.441 107.706 307.441C107.706 307.441 114.49 323.668 119.798 331.975C123.018 337.059 125.972 342.305 128.649 347.694C127.906 354.526 127.906 361.419 128.649 368.251C129.967 377.682 128.855 407.985 130.173 410.439C131.491 412.894 136.606 411.866 137.742 410.742C138.879 409.617 139.411 402.277 139.411 402.277C139.411 402.277 141.672 379.303 143.039 368.493C144.405 357.682 146.666 348.48 145.88 346.026C145.094 343.571 140.403 317.332 136.811 304.913C133.22 292.495 122.301 269.242 119.883 263.208C117.464 257.175 116.098 251.685 116.485 249.798C116.872 247.912 124.224 236.594 126.158 233.571C127.261 231.522 127.87 229.243 127.935 226.917C128 224.59 127.52 222.281 126.533 220.173C124.272 215.264 126.533 208.65 126.158 204.696C125.783 200.742 119.931 199.025 116.908 197.525C113.885 196.026 112.748 192.616 112.748 189.786C112.933 187.403 113.509 185.066 114.453 182.87C114.453 182.87 105.143 176.824 102.688 176.824Z" fill="white" stroke="#263238" stroke-linecap="round" stroke-linejoin="round"/>
<path d="M125.566 217.199C124.571 214.672 123.743 212.083 123.087 209.448" stroke="#263238" stroke-linecap="round" stroke-linejoin="round"/>
<path d="M101.056 238.214C101.056 238.214 104.466 238.964 111.298 235.554" stroke="#263238" stroke-linecap="round" stroke-linejoin="round"/>
<path d="M136.847 304.792C133.425 292.894 123.28 271.165 120.245 263.994C105.735 269.436 92.1679 264.792 85.7955 261.794C84.8765 263.801 83.885 266.123 82.8693 268.928C78.5283 281.02 79.0966 303.474 80.4509 318.009C81.4435 327.601 83.3382 337.079 86.1099 346.316C86.1099 346.316 75.2272 363.873 70.3904 371.419C65.5537 378.964 48.625 411.818 48.625 411.818C48.625 411.818 48.625 412.942 51.261 413.704C53.1156 414.155 55.0343 414.282 56.9321 414.079C56.9321 414.079 89.3868 375.01 95.4327 368.408C101.479 361.806 107.138 350.27 107.887 344.998C108.637 339.726 107.706 307.441 107.706 307.441C107.706 307.441 114.49 323.668 119.798 331.975C123.018 337.059 125.972 342.305 128.649 347.694C127.906 354.526 127.906 361.419 128.649 368.251C129.967 377.682 128.855 407.985 130.173 410.439C131.491 412.894 136.606 411.866 137.742 410.742C138.879 409.617 139.411 402.277 139.411 402.277C139.411 402.277 141.672 379.303 143.039 368.493C144.405 357.682 146.666 348.48 145.88 346.026C145.094 343.571 140.439 317.247 136.847 304.792Z" fill="#263238" stroke="#263238" stroke-linecap="round" stroke-linejoin="round"/>
<path d="M210.777 292.809V290.343H212.845V270.971H210.777H190.366H188.298V290.343H190.366V292.809H188.286V297.308H196.255V295.796H204.888V297.308H212.857V292.809H210.777Z" fill="#EE2737" stroke="#263238" stroke-linecap="round" stroke-linejoin="round"/>
<path d="M78.8545 265.179H221.249C221.82 265.179 222.367 265.406 222.771 265.81C223.174 266.213 223.401 266.761 223.401 267.332V271.661C223.401 272.231 223.174 272.779 222.771 273.183C222.367 273.586 221.82 273.813 221.249 273.813H78.8545V265.167V265.179Z" fill="#EE2737" stroke="#263238" stroke-linecap="round" stroke-linejoin="round"/>
<path d="M181.055 263.886H172.386C171.724 263.886 171.188 264.421 171.188 265.083V273.922C171.188 274.583 171.724 275.119 172.386 275.119H181.055C181.717 275.119 182.253 274.583 182.253 273.922V265.083C182.253 264.421 181.717 263.886 181.055 263.886Z" fill="#EE2737" stroke="#263238" stroke-linecap="round" stroke-linejoin="round"/>
<path d="M83.31 273.138C85.3162 260.887 77.0108 249.328 64.7593 247.322C52.5077 245.316 40.9495 253.621 38.9432 265.873C36.9369 278.124 45.2424 289.683 57.4939 291.689C69.7455 293.695 81.3037 285.39 83.31 273.138Z" fill="#EE2737" stroke="#263238" stroke-linecap="round" stroke-linejoin="round"/>
<path d="M65.747 269.448C67.0502 268.824 68.1561 267.852 68.9433 266.641C69.7304 265.429 70.1684 264.024 70.2089 262.58C70.2089 258.166 66.146 254.587 61.1279 254.587C56.1098 254.587 52.0469 258.214 52.0469 262.58C52.0847 264.025 52.5215 265.431 53.309 266.643C54.0965 267.855 55.2039 268.826 56.5088 269.448C55.2047 270.074 54.0983 271.047 53.3111 272.261C52.524 273.475 52.0866 274.882 52.0469 276.328C52.0469 280.742 56.1098 284.321 61.1279 284.321C66.146 284.321 70.2089 280.693 70.2089 276.328C70.1665 274.883 69.728 273.477 68.9412 272.263C68.1543 271.05 67.0494 270.076 65.747 269.448Z" fill="white" stroke="#263238" stroke-linecap="round" stroke-linejoin="round"/>
<path d="M153.22 274.006C153.22 274.006 160.257 276.981 162.434 276.981C164.61 276.981 167.125 274.792 168.371 272.144C169.616 269.496 169.58 268.239 168.842 268.867L167.283 270.077C167.283 270.077 168.492 267.428 167.125 267.743C166.179 268.058 165.394 268.731 164.937 269.617C164.937 269.617 164.78 267.271 163.534 268.408C162.71 269.154 161.975 269.994 161.345 270.911C161.345 270.911 161.188 267.948 160.402 268.722C159.616 269.496 156.666 273.716 156.666 273.716L153.22 274.006Z" fill="white" stroke="#263238" stroke-linecap="round" stroke-linejoin="round"/>
<path d="M161.346 270.887C161.346 270.887 160.875 274.635 158.541 275.264Z" fill="white"/>
<path d="M161.346 270.887C161.346 270.887 160.875 274.635 158.541 275.264" stroke="#263238" stroke-linecap="round" stroke-linejoin="round"/>
<path d="M164.937 269.641C164.937 269.641 163.728 275.566 161.817 276.509Z" fill="white"/>
<path d="M164.937 269.641C164.937 269.641 163.728 275.566 161.817 276.509" stroke="#263238" stroke-linecap="round" stroke-linejoin="round"/>
<path d="M167.283 270.101C166.66 272.263 165.821 274.357 164.78 276.352Z" fill="white"/>
<path d="M167.283 270.101C166.66 272.263 165.821 274.357 164.78 276.352" stroke="#263238" stroke-linecap="round" stroke-linejoin="round"/>
<path d="M116.46 197.162C115.243 196.34 114.256 195.219 113.596 193.906C112.935 192.594 112.622 191.133 112.688 189.665C112.905 187.32 113.501 185.025 114.453 182.87C114.453 182.87 105.203 176.824 102.748 176.824C102.748 176.824 104.066 185.699 102.373 189.279C101.819 190.392 100.914 191.292 99.7979 191.842C102.033 197.861 105.063 203.554 108.806 208.771C112.204 213.039 113.861 204.043 116.46 197.162Z" fill="white" stroke="#263238" stroke-linecap="round" stroke-linejoin="round"/>
<path d="M87.9121 195.228C85.6047 195.622 83.4204 196.547 81.5318 197.93C79.6431 199.313 78.1018 201.116 77.0294 203.196C73.3051 210.379 57.0294 242.979 58.42 244.925C66.3281 256.05 95.0947 264.055 98.0209 266.981C100.946 270.041 104.157 272.814 107.61 275.264C110.536 277.126 116.376 276.328 117.441 275.796C118.505 275.264 119.303 272.87 117.441 272.87C116.729 272.879 116.036 272.644 115.477 272.204C114.918 271.764 114.527 271.145 114.369 270.451C114.103 269.387 117.295 271.515 118.892 270.717C120.488 269.919 115.324 267.005 113.728 265.675C112.132 264.345 110.802 262.495 108.674 262.495C106.546 262.495 102.543 262.495 102.543 262.495C102.543 262.495 92.7489 255.397 86.8238 250.113C82.2135 245.953 77.1846 242.281 71.8178 239.158L89.7743 209.617" fill="white"/>
<path d="M87.9121 195.228C85.6047 195.622 83.4204 196.547 81.5318 197.93C79.6431 199.313 78.1018 201.116 77.0294 203.196C73.3051 210.379 57.0294 242.979 58.42 244.925C66.3281 256.05 95.0947 264.055 98.0209 266.981C100.946 270.041 104.157 272.814 107.61 275.264C110.536 277.126 116.376 276.328 117.441 275.796C118.505 275.264 119.303 272.87 117.441 272.87C116.729 272.879 116.036 272.644 115.477 272.204C114.918 271.764 114.527 271.145 114.369 270.451C114.103 269.387 117.295 271.515 118.892 270.717C120.488 269.919 115.324 267.005 113.728 265.675C112.132 264.345 110.802 262.495 108.674 262.495C106.546 262.495 102.543 262.495 102.543 262.495C102.543 262.495 92.7489 255.397 86.8238 250.113C82.2135 245.953 77.1846 242.281 71.8178 239.158L89.7743 209.617" stroke="#263238" stroke-linecap="round" stroke-linejoin="round"/>
<path d="M113.716 265.687C112.12 264.357 110.79 262.507 108.662 262.507C106.534 262.507 102.531 262.507 102.531 262.507C102.531 262.507 92.7367 255.409 86.8117 250.125C82.2013 245.965 77.1725 242.294 71.8056 239.17L78.9882 227.344C75.3162 225.121 71.1158 223.923 66.8238 223.873C61.987 233.958 57.646 243.922 58.3594 244.974C66.2675 256.098 95.0342 264.103 97.9604 267.029C100.886 270.089 104.097 272.863 107.549 275.312C110.475 277.175 116.316 276.376 117.38 275.844C118.444 275.312 119.242 272.918 117.38 272.918C116.669 272.928 115.975 272.693 115.416 272.252C114.857 271.812 114.466 271.194 114.309 270.5C114.043 269.436 117.235 271.564 118.831 270.766C120.427 269.968 115.312 267.029 113.716 265.687Z" fill="white" stroke="#263238" stroke-linecap="round" stroke-linejoin="round"/>
<path d="M123.451 163.801C122.508 161.915 122.508 160.403 122.883 157.755C123.257 155.107 120.996 148.686 120.996 148.686C118.687 152.676 112.012 155.046 109.062 155.941C105.809 156.933 110.561 159.182 110.053 162.193C109.545 165.204 103.052 166.945 103.052 166.945C103.052 166.945 101.154 163.039 98.5175 163.039C95.8814 163.039 94.0072 169.085 95.5066 172.289C95.8973 173.177 96.5778 173.906 97.4368 174.356C98.2958 174.806 99.2822 174.952 100.235 174.768C100.235 174.768 100.053 180.439 103.632 182.132C107.451 183.954 111.436 185.408 115.531 186.473C117.792 186.848 120.053 185.723 120.996 182.326C121.734 178.901 122.239 175.431 122.508 171.939C124.091 170.903 125.548 169.685 126.849 168.311C127.756 167.005 124.394 165.687 123.451 163.801Z" fill="white" stroke="#263238" stroke-linecap="round" stroke-linejoin="round"/>
<path d="M119.774 163.886C119.774 164.925 119.435 165.76 119.024 165.76C118.613 165.76 118.274 164.925 118.274 163.886C118.274 162.846 118.613 162.011 119.024 162.011C119.435 162.011 119.774 162.846 119.774 163.886Z" fill="#263238"/>
<path d="M116.521 160.766C116.521 160.766 118.529 158.505 120.028 159.013" stroke="#263238" stroke-linecap="round" stroke-linejoin="round"/>
<path d="M120.028 176.268C119.121 176.541 118.16 176.573 117.237 176.361C116.315 176.149 115.463 175.7 114.768 175.058" stroke="#263238" stroke-linecap="round" stroke-linejoin="round"/>
<path d="M48.7099 411.818C48.7099 411.818 44.1996 420.862 44.3689 422.096C44.5382 423.329 53.4862 429.811 57.67 432.084C61.8538 434.357 69.4233 434.72 68.8913 431.564C68.3592 428.408 61.1766 426.304 59.4233 421.564C58.4896 419.112 57.6824 416.614 57.0049 414.079C54.082 414.122 51.2064 413.339 48.7099 411.818Z" fill="white" stroke="#263238" stroke-linecap="round" stroke-linejoin="round"/>
<path d="M68.9161 431.612C65.6967 432.044 62.4207 431.579 59.4481 430.27C52.9548 427.453 46.667 421.697 44.9378 420.064C44.6307 420.717 44.4346 421.415 44.3574 422.132C44.5388 423.341 53.4747 429.847 57.6585 432.12C61.8423 434.393 69.3514 434.708 68.9161 431.612Z" fill="white" stroke="#263238" stroke-linecap="round" stroke-linejoin="round"/>
</g>
<defs>
<clipPath id="clip0_158_492">
<rect width="500" height="500" fill="white"/>
</clipPath>
</defs>
</svg>
