<svg width="301" height="181" viewBox="0 0 301 181" fill="none" xmlns="http://www.w3.org/2000/svg">
<path d="M139.99 144.2C135.599 122.97 130.111 115.892 130.111 115.892L128.014 114.266L125.493 112.308L125.505 112.056L124.907 111.853L124.766 111.743L124.536 111.567L124.499 111.606L124.421 111.687L113.011 107.809L98.5356 102.892L91.8326 94.1794C90.7409 92.7605 89.3354 91.6136 87.7263 90.8288C86.1172 90.0439 84.3482 89.6423 82.558 89.6556L61.1507 89.814C58.2561 89.8354 55.4743 90.9388 53.3521 92.9073L39.2815 105.959L17.3566 116.43L17.3196 116.393L17.0894 116.558L13.7018 118.177L13.8416 118.905L11.7449 120.418C11.7449 120.418 6.25649 127.004 1.86576 146.758C0.748812 151.784 0.199008 162.567 0.000557686 175.853C-0.00941044 176.525 0.114339 177.193 0.364608 177.817C0.614877 178.441 0.986673 179.008 1.45838 179.487C1.93008 179.966 2.49229 180.347 3.1123 180.606C3.73231 180.866 4.39776 181 5.06996 181H122.175L136.791 181C137.463 181 138.128 180.866 138.747 180.606C139.367 180.347 139.929 179.967 140.4 179.489C140.872 179.011 141.244 178.443 141.495 177.82C141.745 177.197 141.87 176.53 141.86 175.858C141.667 161.401 141.117 149.651 139.99 144.2Z" fill="#182430"/>
<path d="M155.015 0C150.459 0 146.089 1.80989 142.867 5.03151C139.646 8.25314 137.836 12.6226 137.836 17.1787C137.836 21.7347 139.646 26.1042 142.867 29.3258C146.089 32.5474 150.459 34.3573 155.015 34.3573H283.037C287.593 34.3573 291.962 32.5474 295.184 29.3258C298.405 26.1042 300.215 21.7347 300.215 17.1787C300.215 12.6226 298.405 8.25314 295.184 5.03151C291.962 1.80989 287.593 0 283.037 0H155.015Z" fill="#E5E5E5"/>
<path d="M155.015 3.47656C151.381 3.47656 147.895 4.92017 145.326 7.4898C142.756 10.0594 141.312 13.5446 141.313 17.1786C141.312 20.8126 142.756 24.2978 145.326 26.8674C147.895 29.437 151.381 30.8806 155.015 30.8806H283.036C286.67 30.8806 290.156 29.437 292.725 26.8674C295.295 24.2978 296.739 20.8126 296.739 17.1786C296.739 13.5446 295.295 10.0594 292.725 7.4898C290.156 4.92017 286.67 3.47656 283.036 3.47656H155.015Z" fill="white"/>
<path d="M75.2165 81.6133C90.7057 81.6133 103.262 69.0568 103.262 53.5676C103.262 38.0784 90.7057 25.522 75.2165 25.522C59.7274 25.522 47.1709 38.0784 47.1709 53.5676C47.1709 69.0568 59.7274 81.6133 75.2165 81.6133Z" fill="#9E616A"/>
<path d="M68.0411 80.2402C67.9212 79.9764 67.8018 79.7117 67.6826 79.446C67.7285 79.4475 67.774 79.4541 67.8199 79.4553L68.0411 80.2402Z" fill="#2F2E41"/>
<path d="M46.3906 26.7975C47.8091 25.666 49.4669 24.6248 51.2805 24.6834C53.094 24.7418 54.9331 26.3798 54.5574 28.1549C57.8885 22.2569 63.1906 17.7206 69.5331 15.3424C75.8756 12.9641 82.8532 12.8958 89.241 15.1495C93.7484 16.7398 98.1686 19.9212 99.2041 24.5874C99.4699 25.7853 99.5269 27.0987 100.275 28.0714C101.218 29.2977 103.022 29.5752 104.508 29.1437C104.523 29.1394 104.537 29.1351 104.552 29.1306C104.803 29.0449 105.074 29.0365 105.33 29.1064C105.586 29.1764 105.815 29.3215 105.987 29.523C106.16 29.7244 106.268 29.973 106.297 30.2366C106.327 30.5001 106.277 30.7665 106.153 31.0012L104.878 33.3798C106.486 33.7381 108.156 33.7026 109.747 33.2762C110.011 33.2069 110.291 33.2211 110.547 33.3167C110.803 33.4124 111.023 33.5849 111.177 33.8106C111.331 34.0363 111.411 34.3041 111.407 34.5773C111.403 34.8505 111.314 35.1157 111.153 35.3366C106.948 41.1103 99.9219 44.8387 92.7522 44.7949C87.6564 44.7638 82.5082 43.0076 77.5489 44.1794C75.6303 44.6327 73.8376 45.5099 72.3022 46.7464C70.7668 47.983 69.5278 49.5476 68.676 51.3254C67.8241 53.1033 67.3812 55.0493 67.3795 57.0207C67.3779 58.9921 67.8176 60.9389 68.6665 62.7182C67.143 61.0517 64.1978 61.4463 62.6394 63.0802C61.081 64.7141 60.6775 67.1527 60.8346 69.4052C61.0747 72.8503 62.4245 76.0965 63.8475 79.2559C51.9172 78.8804 40.6331 70.5114 36.8348 59.1923C33.0206 47.8257 37.018 34.2743 46.3906 26.7975Z" fill="#2F2E41"/>
<path opacity="0.2" d="M27.6035 137.791L35.4697 180.589L40.1896 181L27.6035 137.791Z" fill="#0B1219"/>
<path opacity="0.2" d="M114.252 134.563L106.386 180.558L101.666 181L114.252 134.563Z" fill="#0B1219"/>
<path d="M183.293 25.3716H157.822C157.741 25.3721 157.661 25.3567 157.586 25.3261C157.511 25.2955 157.443 25.2504 157.385 25.1934C157.328 25.1364 157.282 25.0685 157.251 24.9938C157.22 24.9191 157.204 24.839 157.204 24.7581C157.204 24.6771 157.22 24.597 157.251 24.5223C157.282 24.4476 157.328 24.3798 157.385 24.3228C157.443 24.2657 157.511 24.2206 157.586 24.19C157.661 24.1595 157.741 24.144 157.822 24.1445H183.293C183.455 24.1456 183.61 24.2108 183.725 24.3257C183.839 24.4406 183.903 24.5961 183.903 24.7581C183.903 24.9201 183.839 25.0755 183.725 25.1904C183.61 25.3054 183.455 25.3705 183.293 25.3716Z" fill="#EE2737"/>
<path d="M215.606 25.5762H190.134C190.053 25.5767 189.973 25.5613 189.898 25.5307C189.823 25.5001 189.755 25.455 189.698 25.398C189.64 25.3409 189.595 25.2731 189.564 25.1984C189.533 25.1237 189.517 25.0436 189.517 24.9627C189.517 24.8817 189.533 24.8016 189.564 24.7269C189.595 24.6522 189.64 24.5844 189.698 24.5273C189.755 24.4703 189.823 24.4252 189.898 24.3946C189.973 24.364 190.053 24.3486 190.134 24.3491H215.606C215.687 24.3486 215.767 24.364 215.842 24.3946C215.917 24.4252 215.985 24.4703 216.042 24.5273C216.1 24.5844 216.145 24.6522 216.177 24.7269C216.208 24.8016 216.224 24.8817 216.224 24.9627C216.224 25.0436 216.208 25.1237 216.177 25.1984C216.145 25.2731 216.1 25.3409 216.042 25.398C215.985 25.455 215.917 25.5001 215.842 25.5307C215.767 25.5613 215.687 25.5767 215.606 25.5762Z" fill="#EE2737"/>
<path d="M247.918 25.7808H222.446C222.284 25.7797 222.129 25.7145 222.015 25.5996C221.901 25.4847 221.837 25.3292 221.837 25.1672C221.837 25.0052 221.901 24.8498 222.015 24.7349C222.129 24.6199 222.284 24.5548 222.446 24.5537H247.918C247.999 24.5532 248.079 24.5686 248.154 24.5992C248.229 24.6298 248.297 24.6749 248.354 24.7319C248.412 24.789 248.457 24.8568 248.488 24.9315C248.52 25.0062 248.536 25.0863 248.536 25.1672C248.536 25.2482 248.52 25.3283 248.488 25.403C248.457 25.4777 248.412 25.5455 248.354 25.6026C248.297 25.6596 248.229 25.7047 248.154 25.7353C248.079 25.7659 247.999 25.7813 247.918 25.7808Z" fill="#EE2737"/>
<path d="M280.229 25.9851H254.758C254.596 25.984 254.441 25.9189 254.327 25.8039C254.213 25.689 254.148 25.5336 254.148 25.3716C254.148 25.2096 254.213 25.0542 254.327 24.9392C254.441 24.8243 254.596 24.7592 254.758 24.7581H280.229C280.391 24.7592 280.546 24.8243 280.661 24.9392C280.775 25.0542 280.839 25.2096 280.839 25.3716C280.839 25.5336 280.775 25.689 280.661 25.8039C280.546 25.9189 280.391 25.984 280.229 25.9851Z" fill="#EE2737"/>
<path d="M170.502 19.7255C173.116 19.7255 175.236 17.606 175.236 14.9914C175.236 12.3768 173.116 10.2573 170.502 10.2573C167.887 10.2573 165.768 12.3768 165.768 14.9914C165.768 17.606 167.887 19.7255 170.502 19.7255Z" fill="#EE2737"/>
<path d="M203.009 19.7255C205.624 19.7255 207.744 17.606 207.744 14.9914C207.744 12.3768 205.624 10.2573 203.009 10.2573C200.395 10.2573 198.275 12.3768 198.275 14.9914C198.275 17.606 200.395 19.7255 203.009 19.7255Z" fill="#EE2737"/>
<path d="M235.516 19.7255C238.131 19.7255 240.25 17.606 240.25 14.9914C240.25 12.3768 238.131 10.2573 235.516 10.2573C232.902 10.2573 230.782 12.3768 230.782 14.9914C230.782 17.606 232.902 19.7255 235.516 19.7255Z" fill="#EE2737"/>
<path d="M268.024 19.7255C270.639 19.7255 272.758 17.606 272.758 14.9914C272.758 12.3768 270.639 10.2573 268.024 10.2573C265.41 10.2573 263.29 12.3768 263.29 14.9914C263.29 17.606 265.41 19.7255 268.024 19.7255Z" fill="#EE2737"/>
</svg>
