<svg width="110" height="111" viewBox="0 0 110 111" fill="none" xmlns="http://www.w3.org/2000/svg">
<path d="M3.40366 52.256L3.78905 51.3651C7.04237 43.855 14.072 38.6296 22.1578 38.034C23.1963 37.9564 24.2424 37.9564 25.286 38.034C32.7911 38.5921 39.8909 43.2318 43.492 49.9286C45.6092 53.8677 46.7003 58.59 50.0863 61.4804C54.4958 65.2443 60.9974 64.486 66.6732 63.525C72.349 62.564 78.8581 61.8208 83.2501 65.6046C86.0004 67.9746 87.2842 71.7059 87.5895 75.3446C88.3978 84.9769 82.9097 94.4441 75.0217 99.8596C67.1336 105.275 57.2085 107.029 47.6763 106.436C34.3252 105.605 20.9791 100.112 12.025 90.027C3.07082 79.9393 -0.890718 65.0641 3.40116 52.2585L3.40366 52.256Z" fill="white"/>
<path d="M40.3572 16.1369C41.8065 10.1234 38.1064 4.07355 32.0928 2.62427C26.0793 1.175 20.0295 4.87507 18.5802 10.8886C17.1309 16.9022 20.831 22.952 26.8445 24.4012C32.8581 25.8505 38.9079 22.1504 40.3572 16.1369Z" fill="white"/>
<path d="M59.8351 45.7168C56.6315 41.1592 54.7744 35.6003 54.8344 29.6185C54.907 22.2527 57.8453 15.3548 63.1063 10.1965C68.3673 5.0381 75.3227 2.23742 82.6886 2.31251C97.8958 2.46268 110.147 14.9569 109.997 30.1667C109.925 37.5325 106.986 44.4304 101.725 49.5887C96.4642 54.7471 89.5113 57.5478 82.1429 57.4727C72.9175 57.3801 64.7782 52.7448 59.8376 45.7168H59.8351ZM103.48 15.1271C98.8694 8.56962 91.2783 4.2447 82.6685 4.15961C75.7957 4.09203 69.3059 6.705 64.3978 11.518C59.4897 16.3309 56.7491 22.7658 56.6815 29.6386C56.6139 36.5114 59.2269 43.0013 64.0399 47.9093C68.8503 52.8174 75.2877 55.558 82.1605 55.6256C89.0333 55.6932 95.5231 53.0802 100.431 48.2697C105.339 43.4568 108.08 37.022 108.147 30.1491C108.203 24.5703 106.468 19.3794 103.48 15.1296V15.1271Z" fill="#455A64"/>
<path d="M59.8351 45.7168C56.6315 41.1592 54.7744 35.6003 54.8344 29.6185C54.907 22.2527 57.8453 15.3548 63.1063 10.1965C68.3673 5.0381 75.3227 2.23742 82.6886 2.31251C97.8958 2.46268 110.147 14.9569 109.997 30.1667C109.925 37.5325 106.986 44.4304 101.725 49.5887C96.4642 54.7471 89.5113 57.5478 82.1429 57.4727C72.9175 57.3801 64.7782 52.7448 59.8376 45.7168H59.8351ZM103.48 15.1271C98.8694 8.56962 91.2783 4.2447 82.6685 4.15961C75.7957 4.09203 69.3059 6.705 64.3978 11.518C59.4897 16.3309 56.7491 22.7658 56.6815 29.6386C56.6139 36.5114 59.2269 43.0013 64.0399 47.9093C68.8503 52.8174 75.2877 55.558 82.1605 55.6256C89.0333 55.6932 95.5231 53.0802 100.431 48.2697C105.339 43.4568 108.08 37.022 108.147 30.1491C108.203 24.5703 106.468 19.3794 103.48 15.1296V15.1271Z" fill="#455A64"/>
<g opacity="0.3">
<path d="M59.8361 45.7168C56.6324 41.1592 54.7753 35.6003 54.8354 29.6185C54.908 22.2527 57.8463 15.3548 63.1073 10.1965C68.3683 5.0381 75.3237 2.23742 82.6895 2.31251C97.8968 2.46268 110.148 14.9569 109.998 30.1667C109.925 37.5325 106.987 44.4304 101.726 49.5887C96.4652 54.7471 89.5123 57.5478 82.1439 57.4727C72.9184 57.3801 64.7792 52.7448 59.8386 45.7168H59.8361ZM103.481 15.1271C98.8704 8.56962 91.2793 4.2447 82.6695 4.15961C75.7967 4.09203 69.3068 6.705 64.3988 11.518C59.4907 16.3309 56.7501 22.7658 56.6825 29.6386C56.6149 36.5114 59.2279 43.0013 64.0409 47.9093C68.8513 52.8174 75.2886 55.558 82.1614 55.6256C89.0342 55.6932 95.5241 53.0802 100.432 48.2697C105.34 43.4568 108.081 37.022 108.148 30.1491C108.204 24.5703 106.469 19.3794 103.481 15.1296V15.1271Z" fill="black"/>
</g>
<path d="M104.142 89.9101C102.198 90.5959 100.065 89.5723 99.3796 87.6275L88.1543 55.7288L94.9345 52.9631L106.425 85.1472C107.111 87.0919 106.087 89.2244 104.142 89.9101Z" fill="#455A64"/>
<path d="M58.4015 45.2881C55.1979 40.7305 53.3408 35.1716 53.4008 29.1898C53.4734 21.824 56.4117 14.9261 61.6727 9.76776C66.9337 4.60939 73.8891 1.80871 81.255 1.8838C96.4622 2.03397 108.714 14.5282 108.563 29.738C108.491 37.1038 105.553 44.0017 100.292 49.16C95.0306 54.3184 88.0777 57.1191 80.7094 57.044C71.4839 56.9514 63.3446 52.3161 58.404 45.2881H58.4015ZM102.046 14.6984C97.4359 8.14091 89.8447 3.81599 81.235 3.72839C74.3621 3.66082 67.8723 6.27379 62.9642 11.0843C58.0561 15.8972 55.3155 22.332 55.2479 29.2049C55.1804 36.0777 57.7933 42.5675 62.6063 47.4756C67.4168 52.3837 73.8541 55.1243 80.7269 55.1919C87.5997 55.2595 94.0896 52.6465 98.9976 47.836C103.906 43.0231 106.646 36.5882 106.714 29.7154C106.769 24.1366 105.034 18.9457 102.046 14.6959V14.6984Z" fill="#455A64"/>
<path d="M60.3765 62.341C60.8671 62.2584 72.8883 60.6115 72.8883 60.6115C72.8883 60.6115 62.9319 49.3362 63.1772 49.3362L67.1067 45.219C67.1067 45.219 81.9436 57.7182 82.8421 60.4113C83.7406 63.1043 81.9436 65.6347 80.4744 66.776C79.0052 67.9173 66.3583 72.2672 61.5454 72.2672C56.7324 72.2672 60.3765 62.341 60.3765 62.341Z" fill="#FFBF9D"/>
<path d="M66.6156 44.7678C66.6156 44.7678 63.7598 39.7897 62.2907 38.8937C60.8215 37.9951 61.4747 38.2404 61.4747 38.2404C61.4747 38.2404 60.6588 36.118 58.6991 36.6086C58.6991 36.6086 57.1498 33.5901 55.1901 34.4061C53.2329 35.222 55.9234 45.9116 59.1071 48.442C62.2907 50.9724 65.0638 50.8097 65.0638 50.8097C65.0638 50.8097 69.4513 46.8452 69.206 47.0079L66.6131 44.7703L66.6156 44.7678Z" fill="#FFBF9D"/>
<path d="M77.8114 63.68C77.7989 63.695 77.5386 63.5022 77.1131 63.1969C76.6876 62.8916 76.0945 62.4811 75.4187 62.0606C74.7404 61.6401 74.1097 61.2897 73.6492 61.042C73.1887 60.7942 72.9008 60.649 72.9083 60.629C72.9134 60.6215 72.9884 60.6465 73.1236 60.7041C73.2587 60.7591 73.454 60.8467 73.6892 60.9594C74.1623 61.1846 74.8055 61.525 75.4863 61.948C76.167 62.371 76.7552 62.7964 77.1682 63.1218C77.3734 63.2845 77.5386 63.4197 77.6487 63.5173C77.7589 63.6149 77.8164 63.6724 77.8114 63.6774V63.68Z" fill="#FF9A6C"/>
<path d="M62.6926 26.3041C63.9965 27.518 64.1642 29.7606 63.4359 31.2247C63.4359 31.2247 63.4534 30.9169 64.5672 31.4325C65.681 31.948 66.4493 32.7515 66.7146 33.6275C67.005 34.586 67.2803 37.1965 65.4732 38.2777C66.5144 40.1849 62.1795 44.3096 61.0006 45.2632C59.3112 46.6297 59.0409 46.3269 56.876 46.1542C53.3945 45.8764 53.7149 43.8741 51.3422 41.3087C46.9522 36.5658 41.5786 32.8691 36.25 29.2099C36.6129 25.4632 40.6375 22.0893 44.3968 22.247C48.0584 22.3997 50.4161 24.9926 55.199 25.0152C55.199 25.0152 60.3524 24.1342 62.6901 26.3041H62.6926Z" fill="#263238"/>
<path d="M58.0918 55.995C59.6185 52.2007 60.4695 46.8196 61.3455 41.466C62.1339 36.648 58.1018 30.7313 53.2538 30.1481L39.4431 29.9329L38.462 32.1479L35.0255 49.7479L31.4189 61.6865L44.8542 68.3841L46.8965 61.3486C46.8965 61.3486 55.0208 63.6312 58.0918 56V55.995Z" fill="#FFBF9D"/>
<path d="M51.0771 51.4768C51.0847 51.4267 51.1647 51.4017 52.296 51.5343C52.5814 51.5719 52.8567 51.5869 52.9393 51.4517C53.0419 51.3091 52.9818 51.0513 52.9067 50.771C52.7716 50.1903 52.6289 49.5821 52.4787 48.9464C52.3136 48.2806 51.9281 46.2008 51.9882 45.8729C52.1183 45.8654 52.3736 46.3284 52.9518 48.9189C53.0869 49.5571 53.2196 50.1653 53.3422 50.7459C53.3873 51.0137 53.5024 51.3316 53.2822 51.6244C53.167 51.7696 52.9343 51.8422 52.7465 51.8397C52.5563 51.8422 52.3987 51.8096 52.2585 51.7871C51.1372 51.5919 51.0771 51.4793 51.0771 51.4793V51.4768Z" fill="#263238"/>
<path d="M46.8976 61.341C46.8976 61.341 43.3761 61.1583 38.8234 56.7783C38.8234 56.7783 38.0551 61.291 46.1092 64.0566L46.8976 61.341Z" fill="#FF9A6C"/>
<path d="M45.2485 39.8406C45.3461 39.4852 46.3297 39.6529 47.4861 39.4677C48.6449 39.3125 49.5784 38.8645 49.7311 39.1824C49.7987 39.3351 49.636 39.6704 49.2606 40.0158C48.8876 40.3587 48.2895 40.6866 47.5962 40.7892C46.9029 40.8893 46.2672 40.7442 45.8442 40.5164C45.4187 40.2886 45.206 40.0083 45.2485 39.8406Z" fill="#263238"/>
<path d="M55.6924 40.3306C55.9952 40.1278 56.6335 40.7185 57.5345 41.0939C58.4205 41.5044 59.284 41.572 59.344 41.9374C59.3641 42.1101 59.1313 42.3429 58.6908 42.473C58.2553 42.6057 57.6171 42.6007 57.0014 42.3328C56.3882 42.0625 55.9502 41.5945 55.7475 41.1815C55.5422 40.7661 55.5522 40.4357 55.6924 40.3331V40.3306Z" fill="#263238"/>
<path d="M38.0074 26.4469C38.0074 26.4469 33.1293 25.2806 31.0595 30.7443C28.9896 36.208 30.246 41.7669 32.1307 44.7753C34.0153 47.7812 35.5771 48.532 35.5771 48.532L40.5578 39.5794L38.0049 26.4469H38.0074Z" fill="#263238"/>
<path d="M61.6881 36.8171C60.8821 33.7811 58.597 31.2683 55.8464 29.7541C53.0958 28.2398 49.9122 27.6517 46.7711 27.5941C43.6325 27.5365 40.5065 27.987 37.3979 28.4351C36.6446 28.5427 35.8187 28.6928 35.3381 29.2835C35.0127 29.684 34.9101 30.2171 34.8175 30.7252C34.0466 35.0125 33.2758 39.2974 32.5049 43.5848L33.033 46.4555C34.402 46.7934 35.7986 46.0651 36.9374 45.2367C40.9194 42.3459 43.7176 37.8708 44.5711 33.0278C44.8539 33.651 44.8189 34.3643 44.889 35.0451C44.959 35.7258 45.1968 36.4667 45.7975 36.7921C46.8036 37.3352 47.9925 36.334 48.418 35.2728C48.8435 34.2116 48.9411 32.9727 49.7119 32.1293C50.4253 33.9613 51.5615 35.6282 53.0057 36.9623C53.6865 37.5905 54.6476 38.1761 55.486 37.7832C56.0792 37.5054 56.3795 36.8021 56.372 36.1463C56.3645 35.4906 56.1092 34.8649 55.8589 34.2592C56.8225 35.9886 58.2992 37.4253 60.0537 38.3388C60.4391 38.539 60.9047 38.7167 61.2951 38.524C61.8633 38.2437 61.8457 37.4303 61.683 36.8196L61.6881 36.8171Z" fill="#263238"/>
<path d="M36.6338 42.6842C36.5237 42.6041 32.0861 40.1663 31.1676 45.0444C30.249 49.9224 35.3348 49.8373 35.3699 49.6997C35.4049 49.562 36.6338 42.6867 36.6338 42.6867V42.6842Z" fill="#FFBF9D"/>
<path d="M32.689 45.7699C32.694 45.6723 32.704 45.5771 32.7215 45.4795C32.7916 45.034 32.9643 44.6286 33.1896 44.3082C33.4048 43.9803 33.6826 43.7726 33.9504 43.7751C34.2207 43.7651 34.3734 43.9528 34.4084 44.103C34.4485 44.2506 34.3984 44.3432 34.4235 44.3558C34.436 44.3708 34.5436 44.2932 34.5436 44.0854C34.5436 43.9853 34.5061 43.8602 34.4084 43.7451C34.3083 43.6274 34.1456 43.5473 33.9629 43.5323C33.5825 43.4873 33.177 43.7701 32.9343 44.1205C32.669 44.4709 32.4637 44.9239 32.3836 45.4245C32.231 46.4131 32.5588 47.4267 33.2271 47.7646C33.5525 47.9198 33.8578 47.8697 34.028 47.7821C34.2007 47.6895 34.2483 47.5869 34.2332 47.5744C34.2157 47.5544 34.1356 47.617 33.9805 47.657C33.8278 47.6945 33.58 47.6946 33.3422 47.5494C32.9142 47.2941 32.6464 46.5533 32.6915 45.7699" fill="#FF9A6C"/>
<path d="M58.0476 29.3397C58.0476 29.3397 58.0075 29.3998 57.9725 29.5199C57.9299 29.64 57.9324 29.8353 58.015 30.0655C58.0876 30.2983 58.2403 30.5636 58.3554 30.9015C58.4105 31.0717 58.453 31.2669 58.418 31.4746C58.3904 31.6849 58.2528 31.8851 58.0651 32.0202C57.8774 32.1579 57.6371 32.238 57.3868 32.2455C57.1365 32.258 56.8787 32.208 56.6259 32.1354C56.1229 31.9852 55.5973 31.79 55.0667 31.5397C54.003 31.0366 52.9067 30.3108 51.9456 29.3472C51.5552 28.9593 51.2023 28.5488 50.8919 28.1333L51.0095 28.1233C50.7543 28.6439 50.4965 29.1545 50.1586 29.5925C49.8282 30.0305 49.4002 30.3809 48.9297 30.5661C48.4642 30.7588 47.9461 30.7713 47.5281 30.5986C47.1101 30.4284 46.8048 30.1256 46.592 29.8227C46.3768 29.5174 46.2516 29.202 46.1615 28.9267C46.0739 28.6489 46.0239 28.4036 45.9888 28.2059C45.9538 28.0057 45.9313 27.8505 45.9163 27.7454C45.9012 27.6403 45.8987 27.5852 45.9012 27.5852C45.9062 27.5852 45.9188 27.6378 45.9413 27.7429C45.9663 27.8605 45.9963 28.0107 46.0364 28.1959C46.1315 28.5813 46.2466 29.1795 46.6646 29.7702C46.8773 30.058 47.1727 30.3433 47.5656 30.4985C47.9561 30.6537 48.4391 30.6387 48.8821 30.4535C49.3301 30.2733 49.7331 29.9404 50.0535 29.5124C50.3788 29.0869 50.6291 28.5838 50.8844 28.0632C50.9019 28.0282 50.942 28.0157 50.977 28.0307C50.987 28.0357 50.997 28.0432 51.002 28.0507C51.3074 28.4587 51.6578 28.8642 52.0432 29.2471C52.9918 30.1982 54.0705 30.919 55.1192 31.4221C55.6423 31.6749 56.1629 31.8701 56.656 32.0228C56.9012 32.0953 57.1465 32.1429 57.3793 32.1354C57.6121 32.1304 57.8298 32.0603 58.0025 31.9377C58.1752 31.8175 58.2978 31.6423 58.3254 31.4571C58.3604 31.2719 58.3254 31.0867 58.2753 30.924C58.1727 30.5936 58.025 30.3233 57.9574 30.0805C57.8824 29.8403 57.8899 29.6325 57.9424 29.5099C57.9599 29.4448 57.995 29.4048 58.0125 29.3772C58.0325 29.3497 58.0425 29.3372 58.045 29.3372L58.0476 29.3397Z" fill="#455A64"/>
<path d="M33.554 22.8977C33.6416 22.66 34.0171 22.5398 34.5652 22.6399C35.1083 22.735 35.8091 23.0754 36.4023 23.6636C36.9954 24.2518 37.3383 24.9501 37.4384 25.4932C37.5411 26.0413 37.4234 26.4167 37.1882 26.5068C36.6901 26.6695 35.9718 25.8411 35.0883 24.9876C34.2298 24.1116 33.3939 23.3983 33.554 22.9002V22.8977Z" fill="#263238"/>
<path d="M37.1995 27.0388C36.6914 27.0538 36.2509 25.8099 36.5788 24.3107C36.9042 22.8115 37.8227 21.8629 38.2782 22.0882C38.7488 22.3134 38.6687 23.4447 38.4009 24.7086C38.1206 25.9676 37.7201 27.0288 37.1995 27.0388Z" fill="#263238"/>
<path d="M58.1266 47.3095C57.9815 47.4046 57.4459 46.7113 56.4823 46.4761C55.5212 46.2258 54.6752 46.5662 54.6026 46.4185C54.5651 46.3509 54.7403 46.1582 55.1107 46.003C55.4761 45.8454 56.0568 45.7477 56.655 45.8979C57.2557 46.0506 57.6962 46.406 57.9239 46.7138C58.1567 47.0242 58.1967 47.2695 58.1266 47.312V47.3095Z" fill="#263238"/>
<path d="M48.3928 45.6691C48.2501 45.7667 47.702 45.0834 46.7334 44.8632C45.7698 44.6304 44.9263 44.9858 44.8537 44.8381C44.8162 44.7706 44.9864 44.5753 45.3543 44.4127C45.7172 44.2475 46.2954 44.1398 46.8986 44.28C47.4992 44.4227 47.9498 44.7706 48.18 45.0734C48.4178 45.3813 48.4628 45.624 48.3928 45.6666V45.6691Z" fill="#263238"/>
<path d="M48.9491 52.4144C48.9191 51.8587 48.7213 51.4558 48.2733 51.1054C47.2396 50.2694 45.9907 50.3695 45.0822 50.9051C44.8895 51.0178 44.6993 51.178 44.6592 51.3982C44.6117 51.6535 44.7869 51.9038 45.0071 52.0389C45.2274 52.1741 45.4877 52.2216 45.7379 52.2917C45.9882 52.3618 46.2435 52.4619 46.4012 52.6671C46.5113 52.8123 46.5614 52.9925 46.649 53.1502C46.9168 53.6408 47.5575 53.881 48.0856 53.7058C48.6137 53.5306 48.9841 52.97 48.9516 52.4144H48.9491Z" fill="#FF9A6C"/>
<path d="M48.4275 53.5228C48.4275 53.5228 48.3424 53.6354 48.1146 53.7355C47.8944 53.8281 47.5014 53.9257 47.0759 53.703C46.9758 53.6504 46.8682 53.5528 46.8006 53.4602C46.7255 53.3676 46.6555 53.265 46.5829 53.1624C46.4402 52.9596 46.29 52.7469 46.0773 52.6092C45.8646 52.4666 45.5842 52.3965 45.2889 52.2939C45.1437 52.2413 44.9836 52.1812 44.8359 52.0711C44.6932 51.9635 44.5656 51.7983 44.5305 51.6006C44.5105 51.503 44.5155 51.4029 44.533 51.3102C44.5431 51.2627 44.5581 51.2201 44.5731 51.1751C44.5931 51.1225 44.6231 51.0775 44.6532 51.0399C44.7758 50.8923 44.916 50.8047 45.0561 50.7221C45.1963 50.642 45.339 50.5794 45.4866 50.5269C45.5617 50.4993 45.6393 50.4843 45.7094 50.4668C45.782 50.4493 45.8546 50.4343 45.9271 50.4267C46.5053 50.3391 47.0384 50.4067 47.4514 50.5519C47.8693 50.692 48.1647 50.9073 48.3349 51.08C48.5051 51.2552 48.5626 51.3803 48.5526 51.3878C48.5351 51.4004 48.45 51.3002 48.2673 51.1551C48.0846 51.0149 47.7943 50.8372 47.3963 50.7271C47.0009 50.612 46.5003 50.5694 45.9672 50.662C45.837 50.6845 45.6944 50.7171 45.5692 50.7596C45.4391 50.8072 45.3089 50.8697 45.1838 50.9423C45.0611 51.0149 44.936 51.1025 44.8584 51.1976C44.8409 51.2226 44.8284 51.2452 44.8184 51.2652C44.8084 51.2977 44.7958 51.3278 44.7908 51.3603C44.7783 51.4229 44.7758 51.488 44.7908 51.5505C44.8134 51.6732 44.8935 51.7833 44.9986 51.8659C45.1037 51.9485 45.2389 52.0035 45.379 52.0561C45.6568 52.1587 45.9597 52.2363 46.215 52.414C46.4728 52.5942 46.6279 52.8395 46.7631 53.0447C46.9032 53.2525 47.0109 53.4552 47.171 53.5478C47.5064 53.7505 47.8668 53.703 48.0796 53.6429C48.2998 53.5753 48.415 53.5052 48.425 53.5253L48.4275 53.5228Z" fill="#263238"/>
<path d="M51.9117 61.8779C51.9117 61.8779 52.8377 61.8829 53.4459 61.948C54.0566 62.0156 65.0741 61.1921 65.0741 61.1921L67.6095 72.6877L57.1902 76.2192L55.6609 76.93L54.7199 85.5874L51.9092 61.8754L51.9117 61.8779Z" fill="#EE2737"/>
<path d="M56.3006 67.913C56.3006 67.913 56.3107 68.0706 56.3006 68.3535C56.2931 68.6363 56.2756 69.0443 56.2506 69.5498C56.2005 70.561 56.1129 71.9551 55.9903 73.4918C55.8677 75.0311 55.7325 76.4226 55.6224 77.4263C55.5673 77.9294 55.5198 78.3348 55.4822 78.6151C55.4447 78.8954 55.4221 79.0506 55.4121 79.0481C55.4021 79.0481 55.4121 78.8904 55.4322 78.6076C55.4572 78.3048 55.4897 77.9018 55.5298 77.4138C55.6149 76.3851 55.7325 75.0035 55.8601 73.4768C55.9753 71.9501 56.0804 70.566 56.158 69.5398C56.1955 69.0518 56.2256 68.6488 56.2506 68.346C56.2731 68.0631 56.2906 67.908 56.3006 67.908V67.913Z" fill="#263238"/>
<path d="M38.6383 26.6455C38.6383 26.6681 38.3104 26.6756 37.7873 26.7306C37.2642 26.7857 36.5459 26.9033 35.7776 27.1286C35.0092 27.3563 34.3409 27.6492 33.8729 27.8895C33.4049 28.1272 33.1245 28.2999 33.1145 28.2824C33.1095 28.2749 33.1746 28.2248 33.2972 28.1397C33.4174 28.0546 33.6001 27.9395 33.8303 27.8094C34.2909 27.5466 34.9616 27.2362 35.74 27.0059C36.5184 26.7757 37.2492 26.6731 37.7798 26.6405C38.0451 26.623 38.2604 26.6205 38.408 26.628C38.5557 26.633 38.6383 26.6405 38.6383 26.648V26.6455Z" fill="#455A64"/>
<path d="M38.9904 30.7629C38.9854 30.7854 38.5899 30.7029 37.9442 30.6303C37.2985 30.5577 36.3999 30.5151 35.4138 30.6027C34.4277 30.6928 33.5492 30.8956 32.9285 31.0833C32.3053 31.271 31.9324 31.4212 31.9249 31.4011C31.9224 31.3936 32.0125 31.3486 32.1776 31.2735C32.3428 31.1959 32.5906 31.1008 32.901 30.9957C33.5192 30.7854 34.4052 30.5652 35.4038 30.4726C36.4024 30.385 37.311 30.4426 37.9592 30.5402C38.2821 30.5877 38.5424 30.6378 38.7201 30.6853C38.8978 30.7279 38.9954 30.7579 38.9929 30.7654L38.9904 30.7629Z" fill="#455A64"/>
<path d="M35.6784 34.6762C35.6634 34.6937 35.5232 34.5661 35.2554 34.4309C34.9901 34.2958 34.5921 34.1706 34.1366 34.1356C33.6811 34.1005 33.2631 34.1406 32.9628 34.1656C32.6599 34.1932 32.4722 34.2057 32.4697 34.1881C32.4697 34.1706 32.6499 34.1256 32.9528 34.0755C33.2531 34.028 33.6761 33.9704 34.1491 34.0079C34.6222 34.043 35.0376 34.1881 35.3004 34.3508C35.5682 34.511 35.6884 34.6662 35.6784 34.6762Z" fill="#455A64"/>
<path d="M2.29022 51.0873C1.11138 52.1685 0.302959 53.6077 0.0701948 55.192C-0.207621 57.0816 0.237885 59.5244 3.26383 61.5467C9.133 65.4712 16.2461 69.9913 16.2461 69.9913C16.2461 69.9913 23.9148 59.8523 23.7146 59.9549C23.5144 60.0575 14.5116 54.9617 14.2914 54.9242L28.0295 42.1947L24.4905 36.5408C24.4905 36.5408 10.0265 43.9993 2.29522 51.0873H2.29022Z" fill="#FFBF9D"/>
<path d="M25.4034 43.2101C25.6988 43.0475 27.8012 43.4054 29.393 42.4242C30.9848 41.4456 32.6367 34.9608 32.6367 34.9608V34.0422H33.9832L34.1584 33.9421C34.7015 33.6317 34.9167 32.9485 34.6314 32.3903C34.5163 32.1676 34.3436 31.9523 34.0833 31.7897C33.6103 31.4968 33.1898 31.1064 31.7206 31.4718L32.7618 30.9212L35.6376 30.5532C35.6376 30.5532 36.0055 28.3507 33.1297 28.2281L35.2722 27.1269C35.2722 27.1269 33.6803 25.6201 32.459 26.0381C31.2351 26.4561 30.2565 28.108 30.2565 28.108L24.5049 36.49L22.4551 37.6288L25.4109 43.2076L25.4034 43.2101Z" fill="#FFBF9D"/>
<path d="M57.2852 76.2603L57.3044 76.3121L57.2852 76.2603Z" fill="#EE2737"/>
<path d="M54.0169 77.0993L52.0822 61.867L46.5484 61.7919C46.5484 61.7919 45.1318 63.8618 40.041 63.8618C33.7839 63.8618 31.8017 59.9498 31.8017 59.9498L28.0149 60.2377C28.0149 60.2377 25.95 57.7724 24.2406 58.9087L16.7771 54.9417C15.7935 59.3066 13.9489 62.6504 9.38867 66.6324L20.3837 75.6402L17.598 110.159H57.7737L54.0169 77.0993Z" fill="#EE2737"/>
<g opacity="0.3">
<path d="M37.0039 104.012C41.8995 103.249 46.332 98.8914 47.9939 94.2236C44.3297 97.4873 40.6656 100.749 37.0039 104.012Z" fill="black"/>
</g>
<path d="M24.3037 60.3624C24.3037 60.3624 24.3362 60.3774 24.3888 60.4149C24.4414 60.4525 24.5165 60.5125 24.6066 60.5976C24.7843 60.7678 25.0195 61.0456 25.2248 61.4386C25.43 61.8315 25.5977 62.3396 25.6753 62.9203C25.7529 63.5009 25.7453 64.1467 25.6928 64.8124C25.6377 65.4807 25.5777 66.1139 25.4951 66.6896C25.4125 67.2652 25.2923 67.7783 25.1447 68.1938C24.997 68.6118 24.8268 68.9271 24.6917 69.1323C24.6266 69.2375 24.5665 69.3125 24.5265 69.3626C24.4864 69.4127 24.4639 69.4377 24.4589 69.4352C24.4339 69.4202 24.7918 68.9947 25.0571 68.1637C25.1922 67.7508 25.2998 67.2427 25.3774 66.672C25.4525 66.1014 25.5076 65.4657 25.5651 64.8024C25.6177 64.1392 25.6302 63.5034 25.5601 62.9353C25.4901 62.3671 25.3374 61.8691 25.1472 61.4786C24.7667 60.6927 24.2862 60.3799 24.3112 60.3599L24.3037 60.3624Z" fill="#263238"/>
<path d="M30.1755 32.5531C30.1605 32.548 30.1905 32.4304 30.2882 32.2677C30.3858 32.105 30.5635 31.8998 30.8088 31.7396C31.0565 31.5794 31.3143 31.5019 31.502 31.4793C31.6923 31.4568 31.8099 31.4793 31.8074 31.4918C31.8124 31.5319 31.3419 31.5394 30.8788 31.8472C30.4108 32.1451 30.2081 32.5706 30.1755 32.5505V32.5531Z" fill="#FF9A6C"/>
<path d="M31.2213 29.4796C31.2087 29.4746 31.2538 29.3219 31.3939 29.1117C31.5341 28.9014 31.7819 28.6411 32.1223 28.4509C32.4627 28.2607 32.8131 28.1806 33.0633 28.1706C33.3161 28.1581 33.4688 28.1981 33.4688 28.2131C33.4688 28.2357 33.3136 28.2282 33.0734 28.2632C32.8331 28.2957 32.5077 28.3858 32.1848 28.566C31.8645 28.7488 31.6192 28.9815 31.4665 29.1692C31.3139 29.3569 31.2388 29.4921 31.2188 29.4821L31.2213 29.4796Z" fill="#FF9A6C"/>
<path d="M14.3574 54.5572C14.3574 54.5572 14.3098 54.6398 14.2072 54.77C14.1046 54.9026 13.9494 55.0878 13.7492 55.3131C13.3512 55.7611 12.7706 56.3543 12.0748 56.9524C11.379 57.5481 10.7032 58.0312 10.1976 58.354C9.94485 58.5167 9.73711 58.6419 9.59195 58.722C9.44428 58.8046 9.36169 58.8446 9.35668 58.8371C9.34667 58.8196 9.65702 58.6193 10.1476 58.2765C10.6356 57.9336 11.2989 57.443 11.9897 56.8523C12.6805 56.2592 13.2686 55.681 13.6816 55.2505C14.0946 54.82 14.3398 54.5422 14.3574 54.5572Z" fill="#FF9A6C"/>
<path d="M45.9758 87.3039C45.9758 87.3039 45.9683 87.3239 45.9483 87.3564C45.9232 87.3965 45.8932 87.444 45.8582 87.5041C45.7706 87.6417 45.6504 87.8295 45.5002 88.0672C45.1899 88.5553 44.7294 89.2561 44.1512 90.1146C42.9974 91.834 41.358 94.1792 39.4634 96.7096C37.5662 99.2399 35.7767 101.472 34.4502 103.062C33.7869 103.858 33.2463 104.496 32.8634 104.931C32.6782 105.142 32.5305 105.309 32.4229 105.432C32.3753 105.485 32.3378 105.525 32.3052 105.56C32.2777 105.587 32.2627 105.602 32.2627 105.6C32.2627 105.6 32.2727 105.582 32.2952 105.55C32.3253 105.512 32.3603 105.467 32.4029 105.412C32.5055 105.284 32.6456 105.114 32.8233 104.896C33.1988 104.438 33.7269 103.795 34.3776 102.999C35.6841 101.395 37.4636 99.1548 39.3583 96.627C41.2504 94.0991 42.9023 91.7639 44.0761 90.0595C44.6543 89.2135 45.1273 88.5227 45.4602 88.0347C45.6204 87.8019 45.7455 87.6192 45.8381 87.4841L45.9382 87.3439C45.9608 87.3114 45.9733 87.2963 45.9758 87.2989V87.3039Z" fill="#263238"/>
<path d="M3.94434 109.855L105.957 109.855" stroke="#AF272F" stroke-width="0.7" stroke-linecap="round"/>
</svg>
