<svg width="318" height="435" viewBox="0 0 318 435" fill="none" xmlns="http://www.w3.org/2000/svg">
<path d="M193.31 302.955L189.084 300.513C188.38 300.056 187.794 299.439 187.374 298.713C186.953 297.986 186.711 297.171 186.665 296.332V120.714C186.711 119.877 186.953 119.063 187.371 118.337C187.789 117.61 188.372 116.993 189.073 116.533L306.528 48.7248C307.276 48.3457 308.103 48.1482 308.941 48.1482C309.78 48.1482 310.607 48.3457 311.355 48.7248L315.581 51.1664C316.285 51.6235 316.871 52.2405 317.291 52.967C317.712 53.6936 317.955 54.5091 318 55.3473V230.966C317.954 231.803 317.712 232.617 317.294 233.343C316.876 234.069 316.293 234.687 315.592 235.147L198.137 302.966C197.389 303.346 196.561 303.543 195.722 303.541C194.883 303.539 194.056 303.338 193.31 302.955Z" fill="#182430"/>
<path d="M318 54.9571C317.833 53.7084 316.818 53.2513 315.603 53.9537L198.137 121.773C197.427 122.219 196.84 122.836 196.431 123.568L187.367 118.339C187.773 117.601 188.36 116.98 189.073 116.533L306.527 48.7248C307.276 48.3457 308.103 48.1482 308.941 48.1482C309.78 48.1482 310.607 48.3457 311.355 48.7248L315.58 51.1664C316.233 51.5866 316.787 52.1429 317.205 52.7971C317.622 53.4514 317.894 54.1882 318 54.9571Z" fill="#182430"/>
<path d="M197.724 303.156C197.011 303.445 196.243 303.577 195.474 303.545C194.705 303.512 193.951 303.315 193.265 302.966L189.028 300.513C188.328 300.054 187.745 299.436 187.326 298.71C186.908 297.984 186.666 297.169 186.62 296.333V120.714C186.649 119.875 186.891 119.058 187.323 118.339L196.387 123.568C195.946 124.288 195.7 125.11 195.673 125.954V301.573C195.718 302.955 196.587 303.591 197.724 303.156Z" fill="#0B1219"/>
<path d="M195.718 125.976V301.573C195.718 303.111 196.833 303.735 198.137 302.966L315.592 235.147C316.292 234.687 316.875 234.069 317.294 233.343C317.712 232.617 317.954 231.803 318 230.966V55.3474C318 53.8088 316.885 53.1845 315.592 53.9537L198.137 121.773C197.43 122.232 196.842 122.853 196.422 123.583C196.001 124.314 195.76 125.134 195.718 125.976Z" fill="#182430"/>
<path d="M168.292 192.87C166.775 191.967 159.74 187.964 159.372 187.753C159.086 187.582 158.841 187.348 158.657 187.07C158.472 186.792 158.352 186.476 158.306 186.145C158.26 185.814 158.289 185.478 158.391 185.16C158.492 184.842 158.664 184.55 158.893 184.308L186.665 154.517L195.718 159.713L167.957 189.525C167.739 189.757 167.573 190.034 167.471 190.335C167.369 190.637 167.332 190.957 167.364 191.274C167.395 191.591 167.495 191.897 167.655 192.172C167.815 192.448 168.032 192.686 168.292 192.87Z" fill="#182430"/>
<path d="M195.718 159.746L167.957 189.525C167.649 189.854 167.447 190.269 167.38 190.715C167.312 191.161 167.381 191.617 167.578 192.023C167.775 192.429 168.09 192.765 168.482 192.988C168.874 193.211 169.325 193.31 169.774 193.271L195.718 191.131V159.746Z" fill="#182430"/>
<path d="M256.859 106.131C270.55 98.2263 281.644 104.637 281.644 120.446C281.644 136.255 270.55 155.465 256.859 163.37C243.168 171.274 232.075 164.864 232.075 149.066C232.075 133.268 243.168 114.036 256.859 106.131Z" fill="#EE2737"/>
<path d="M256.68 118.573C261.14 116.009 264.719 118.083 264.719 123.211C264.567 125.999 263.76 128.712 262.363 131.129C260.967 133.547 259.02 135.601 256.68 137.125C252.221 139.689 248.631 137.616 248.631 132.487C248.784 129.698 249.593 126.985 250.991 124.567C252.39 122.15 254.339 120.096 256.68 118.573Z" fill="white"/>
<path d="M272.535 145.91C272.535 137.493 266.615 134.07 259.323 138.285L254.763 140.916C247.472 145.13 241.552 155.409 241.552 163.805V166.112C242.928 166.552 244.365 166.774 245.811 166.77C249.722 166.637 253.531 165.484 256.859 163.425C263.197 159.522 268.559 154.221 272.535 147.928V145.91Z" fill="white"/>
<path d="M241.161 241.624L272.556 223.496C273.894 222.727 274.975 223.351 274.975 224.89V235.002C274.93 235.84 274.687 236.656 274.267 237.382C273.846 238.109 273.26 238.726 272.556 239.183L241.161 257.311C239.823 258.08 238.741 257.456 238.741 255.917V245.805C238.787 244.967 239.03 244.151 239.45 243.425C239.87 242.698 240.456 242.081 241.161 241.624Z" fill="#EE2737"/>
<path d="M225.786 219.037L287.897 183.159C289.492 182.234 290.796 182.981 290.796 184.832V188.589C290.742 189.594 290.451 190.572 289.947 191.444C289.443 192.316 288.741 193.057 287.897 193.606L225.753 229.483C224.159 230.409 222.865 229.662 222.865 227.811V224.087C222.916 223.074 223.208 222.087 223.715 221.209C224.223 220.331 224.933 219.586 225.786 219.037Z" fill="#FAFAFA"/>
<path d="M233.055 193.071C233.902 192.58 234.56 192.502 235.028 192.848C235.497 193.193 235.731 193.963 235.731 195.144C235.754 196.223 235.513 197.291 235.028 198.255C234.59 199.126 233.904 199.848 233.055 200.329L231.383 201.299V204.9C231.38 205.024 231.349 205.146 231.294 205.257C231.254 205.357 231.184 205.443 231.093 205.502L230.246 205.992C230.217 206.014 230.181 206.026 230.145 206.026C230.109 206.026 230.074 206.014 230.045 205.992C229.985 205.917 229.957 205.821 229.967 205.725V195.3C229.966 195.177 229.993 195.055 230.045 194.944C230.087 194.845 230.157 194.76 230.246 194.698L233.055 193.071ZM231.383 199.281L232.999 198.344C233.39 198.124 233.72 197.81 233.958 197.43C234.212 196.982 234.335 196.472 234.315 195.958C234.315 195.356 234.192 195.011 233.958 194.91C233.793 194.87 233.62 194.868 233.454 194.905C233.288 194.942 233.132 195.016 232.999 195.122L231.383 196.059V199.281Z" fill="#FAFAFA"/>
<path d="M240.403 188.823C240.514 188.756 240.603 188.756 240.659 188.823C240.731 188.923 240.78 189.037 240.804 189.157L243.38 197.876C243.38 197.876 243.38 197.943 243.38 197.976C243.378 198.1 243.347 198.223 243.29 198.333C243.251 198.434 243.181 198.52 243.09 198.578L242.332 199.013C242.198 199.091 242.097 199.102 242.042 199.013C241.988 198.957 241.949 198.888 241.93 198.812L241.473 197.285L238.128 199.203L237.682 201.254C237.651 201.365 237.61 201.473 237.56 201.577C237.504 201.713 237.401 201.824 237.27 201.889L236.512 202.324C236.484 202.348 236.448 202.361 236.411 202.361C236.375 202.361 236.339 202.348 236.311 202.324C236.253 202.252 236.225 202.16 236.233 202.068C236.227 202.027 236.227 201.986 236.233 201.945L238.797 190.261C238.828 190.089 238.877 189.921 238.942 189.759C238.997 189.642 239.086 189.545 239.199 189.481L240.403 188.823ZM240.983 195.579L239.868 191.644L238.753 196.906L240.983 195.579Z" fill="#FAFAFA"/>
<path d="M247.282 184.687C247.655 184.451 248.08 184.31 248.519 184.274C248.83 184.246 249.142 184.316 249.411 184.475C249.656 184.634 249.846 184.863 249.958 185.133C250.079 185.407 250.147 185.702 250.158 186.002C250.166 186.126 250.139 186.25 250.08 186.359C250.041 186.46 249.971 186.546 249.88 186.604L249.144 187.028C249.021 187.095 248.932 187.106 248.876 187.028C248.807 186.982 248.75 186.921 248.709 186.849C248.664 186.749 248.6 186.659 248.519 186.584C248.439 186.509 248.344 186.452 248.241 186.415C247.901 186.366 247.556 186.454 247.282 186.66C247.101 186.777 246.93 186.907 246.769 187.05C246.603 187.202 246.457 187.375 246.334 187.563C246.216 187.744 246.118 187.939 246.044 188.143C245.979 188.337 245.945 188.54 245.944 188.745C245.931 188.932 245.965 189.12 246.044 189.291C246.079 189.351 246.127 189.402 246.185 189.438C246.244 189.475 246.31 189.498 246.379 189.503C246.585 189.539 246.797 189.539 247.003 189.503L247.973 189.291C248.335 189.184 248.711 189.139 249.088 189.157C249.357 189.157 249.619 189.243 249.835 189.403C250.039 189.574 250.187 189.804 250.259 190.06C250.368 190.422 250.417 190.798 250.404 191.175C250.403 191.673 250.331 192.169 250.192 192.647C250.056 193.139 249.857 193.611 249.601 194.052C249.331 194.504 249.009 194.923 248.642 195.3C248.267 195.689 247.839 196.023 247.371 196.293C247.028 196.502 246.65 196.649 246.256 196.727C245.935 196.789 245.604 196.762 245.297 196.649C245.019 196.52 244.788 196.305 244.64 196.036C244.457 195.692 244.358 195.31 244.35 194.921C244.349 194.794 244.375 194.669 244.428 194.553C244.477 194.459 244.55 194.378 244.64 194.319L245.375 193.896C245.487 193.829 245.576 193.806 245.643 193.84C245.71 193.873 245.754 193.929 245.799 194.029C245.845 194.144 245.905 194.253 245.977 194.353C246.047 194.45 246.144 194.524 246.256 194.565C246.403 194.598 246.555 194.598 246.702 194.565C246.939 194.509 247.165 194.415 247.371 194.286C247.587 194.163 247.792 194.021 247.984 193.862C248.359 193.565 248.657 193.183 248.854 192.747C248.943 192.524 248.989 192.285 248.988 192.045C248.998 191.958 248.991 191.869 248.966 191.785C248.941 191.7 248.899 191.622 248.843 191.554C248.782 191.501 248.711 191.462 248.634 191.439C248.557 191.416 248.476 191.409 248.397 191.421C248.144 191.431 247.893 191.472 247.65 191.543C247.36 191.61 247.025 191.688 246.635 191.755C246.337 191.83 246.027 191.852 245.721 191.822C245.48 191.806 245.251 191.708 245.074 191.543C244.881 191.354 244.746 191.115 244.684 190.852C244.594 190.465 244.553 190.068 244.561 189.67C244.561 189.179 244.632 188.691 244.773 188.221C244.906 187.737 245.101 187.272 245.353 186.838C245.594 186.407 245.886 186.007 246.223 185.645C246.528 185.277 246.885 184.954 247.282 184.687Z" fill="#FAFAFA"/>
<path d="M254.607 180.472C254.977 180.23 255.403 180.084 255.844 180.049C256.155 180.022 256.467 180.092 256.736 180.249C256.974 180.412 257.16 180.641 257.271 180.907C257.393 181.182 257.461 181.477 257.472 181.777C257.485 181.901 257.458 182.026 257.394 182.134C257.355 182.234 257.285 182.32 257.193 182.379L256.458 182.802C256.346 182.869 256.257 182.892 256.19 182.802C256.119 182.758 256.064 182.691 256.034 182.613C255.932 182.417 255.761 182.266 255.555 182.189C255.388 182.165 255.219 182.174 255.056 182.216C254.893 182.258 254.74 182.333 254.607 182.435C254.421 182.548 254.245 182.679 254.083 182.825C253.921 182.977 253.778 183.15 253.659 183.338C253.536 183.517 253.439 183.712 253.369 183.917C253.3 184.111 253.262 184.314 253.258 184.519C253.245 184.707 253.279 184.895 253.358 185.066C253.392 185.126 253.441 185.176 253.499 185.213C253.557 185.25 253.624 185.272 253.693 185.278C253.899 185.314 254.11 185.314 254.317 185.278L255.287 185.066C255.65 184.965 256.026 184.92 256.402 184.932C256.671 184.93 256.934 185.016 257.149 185.177C257.353 185.351 257.503 185.579 257.584 185.835C257.682 186.198 257.727 186.574 257.717 186.95C257.717 187.448 257.645 187.943 257.506 188.422C257.369 188.913 257.171 189.385 256.915 189.826C256.646 190.283 256.324 190.706 255.956 191.086C255.579 191.465 255.156 191.795 254.696 192.067C254.352 192.276 253.975 192.423 253.581 192.502C253.264 192.563 252.936 192.536 252.633 192.424C252.349 192.299 252.114 192.083 251.965 191.811C251.781 191.468 251.686 191.085 251.686 190.696C251.673 190.572 251.7 190.447 251.764 190.339C251.803 190.238 251.873 190.152 251.965 190.094L252.7 189.67C252.812 189.603 252.912 189.581 252.968 189.615C253.007 189.632 253.041 189.658 253.068 189.691C253.095 189.724 253.114 189.763 253.124 189.804C253.174 189.917 253.234 190.025 253.302 190.127C253.376 190.225 253.477 190.299 253.592 190.339C253.739 190.373 253.892 190.373 254.038 190.339C254.275 190.283 254.501 190.189 254.707 190.06C254.918 189.934 255.119 189.793 255.309 189.637C255.505 189.484 255.678 189.304 255.822 189.102C255.966 188.909 256.086 188.699 256.179 188.477C256.268 188.254 256.314 188.015 256.313 187.775C256.323 187.688 256.316 187.599 256.291 187.515C256.266 187.43 256.224 187.352 256.168 187.284C256.107 187.231 256.036 187.192 255.959 187.169C255.882 187.146 255.801 187.139 255.722 187.151C255.473 187.166 255.226 187.207 254.986 187.273C254.696 187.34 254.35 187.418 253.971 187.485C253.669 187.56 253.356 187.582 253.046 187.552C252.804 187.539 252.575 187.44 252.399 187.273C252.21 187.083 252.079 186.844 252.02 186.582C251.921 186.2 251.876 185.806 251.887 185.411C251.89 184.917 251.962 184.426 252.098 183.951C252.236 183.469 252.431 183.005 252.678 182.568C252.919 182.135 253.215 181.734 253.559 181.375C253.859 181.022 254.213 180.717 254.607 180.472Z" fill="#FAFAFA"/>
<path d="M262.734 181.866L261.831 187.206C261.804 187.367 261.76 187.524 261.697 187.675C261.654 187.795 261.572 187.897 261.463 187.964L260.616 188.455C260.504 188.522 260.426 188.522 260.371 188.455C260.296 188.363 260.253 188.25 260.248 188.132L258.91 178.711C258.91 178.711 258.91 178.622 258.91 178.588C258.913 178.464 258.944 178.342 258.999 178.231C259.042 178.132 259.111 178.047 259.2 177.986L259.969 177.54C260.034 177.514 260.106 177.514 260.17 177.54C260.237 177.54 260.281 177.629 260.304 177.808L261.185 184.151L261.954 179.391C261.974 179.272 262.008 179.156 262.054 179.045C262.098 178.904 262.194 178.785 262.322 178.711L263.18 178.209C263.303 178.142 263.392 178.153 263.448 178.209C263.496 178.28 263.53 178.359 263.548 178.443L264.329 182.312L265.209 174.954C265.22 174.809 265.262 174.668 265.332 174.541C265.384 174.458 265.452 174.386 265.533 174.329L266.302 173.883C266.331 173.862 266.366 173.85 266.402 173.85C266.438 173.85 266.474 173.862 266.503 173.883C266.534 173.92 266.559 173.962 266.574 174.008C266.589 174.054 266.595 174.103 266.592 174.151C266.596 174.195 266.596 174.24 266.592 174.285L265.254 185.244C265.232 185.404 265.19 185.562 265.131 185.712C265.08 185.831 264.995 185.932 264.886 186.002L264.028 186.493C263.927 186.549 263.849 186.549 263.793 186.493C263.737 186.39 263.692 186.282 263.66 186.169L262.734 181.866Z" fill="#FAFAFA"/>
<path d="M267.951 177.139C267.976 176.521 268.051 175.905 268.174 175.299C268.302 174.707 268.496 174.131 268.754 173.582C269 173.049 269.315 172.55 269.691 172.099C270.072 171.652 270.528 171.275 271.04 170.984C271.432 170.718 271.892 170.567 272.366 170.55C272.72 170.554 273.06 170.693 273.314 170.94C273.584 171.243 273.779 171.606 273.883 171.999C274.026 172.511 274.105 173.039 274.117 173.571C274.117 173.772 274.117 173.995 274.117 174.24C274.117 174.485 274.117 174.742 274.117 175.009C274.117 175.277 274.117 175.533 274.117 175.779C274.117 176.024 274.117 176.258 274.117 176.47C274.093 177.084 274.018 177.696 273.894 178.298C273.765 178.889 273.574 179.464 273.325 180.015C273.072 180.547 272.753 181.045 272.377 181.498C271.996 181.941 271.544 182.318 271.04 182.613C270.638 182.877 270.171 183.028 269.691 183.048C269.517 183.051 269.344 183.019 269.183 182.954C269.022 182.889 268.876 182.792 268.754 182.669C268.463 182.356 268.263 181.971 268.174 181.554C268.041 181.04 267.967 180.512 267.951 179.982C267.951 179.781 267.951 179.558 267.951 179.313C267.951 179.068 267.951 178.811 267.951 178.543C267.951 178.276 267.951 178.031 267.951 177.774C267.951 177.518 267.94 177.339 267.951 177.139ZM272.701 174.474C272.726 174.201 272.695 173.926 272.611 173.666C272.526 173.405 272.39 173.164 272.21 172.958C271.92 172.701 271.519 172.713 271.04 172.958C270.519 173.264 270.106 173.723 269.858 174.273C269.542 174.923 269.374 175.636 269.367 176.358C269.367 176.771 269.367 177.228 269.367 177.73C269.367 178.231 269.367 178.677 269.367 179.079C269.342 179.351 269.373 179.626 269.457 179.887C269.542 180.148 269.678 180.388 269.858 180.595C270.148 180.84 270.549 180.818 271.04 180.539C271.551 180.231 271.959 179.777 272.21 179.235C272.526 178.589 272.694 177.88 272.701 177.161C272.701 176.737 272.701 176.28 272.701 175.779C272.701 175.277 272.712 174.875 272.701 174.474Z" fill="#FAFAFA"/>
<path d="M278.979 166.536C279.86 166.034 280.518 165.956 280.975 166.324C281.246 166.623 281.447 166.977 281.565 167.363C281.682 167.748 281.713 168.155 281.655 168.554C281.664 169.311 281.547 170.065 281.309 170.784C281.083 171.454 280.731 172.074 280.272 172.612L281.722 175.767C281.726 175.819 281.726 175.872 281.722 175.923C281.722 176.024 281.699 176.123 281.655 176.213C281.624 176.294 281.57 176.364 281.499 176.414L280.607 176.927C280.462 177.005 280.362 177.016 280.295 176.927C280.236 176.868 280.187 176.801 280.15 176.726L278.778 173.749L277.385 174.552V178.321C277.386 178.444 277.359 178.566 277.307 178.677C277.261 178.774 277.192 178.858 277.106 178.923L276.259 179.413C276.231 179.437 276.195 179.45 276.158 179.45C276.122 179.45 276.086 179.437 276.058 179.413C276.026 179.379 276.002 179.339 275.986 179.294C275.971 179.25 275.965 179.203 275.969 179.157V168.732C275.972 168.608 276.003 168.487 276.058 168.376C276.097 168.275 276.168 168.189 276.259 168.13L278.979 166.536ZM277.407 172.534L278.979 171.687C279.363 171.472 279.692 171.171 279.938 170.806C280.196 170.376 280.32 169.88 280.295 169.379C280.295 168.777 280.172 168.443 279.938 168.376C279.599 168.329 279.255 168.417 278.979 168.621L277.463 169.491L277.407 172.534Z" fill="#FAFAFA"/>
<path d="M286.448 162.244C286.853 161.98 287.316 161.819 287.797 161.775C288.146 161.763 288.486 161.887 288.745 162.121C289.04 162.432 289.245 162.817 289.336 163.236C289.486 163.789 289.568 164.358 289.581 164.931C289.581 165.711 289.581 166.514 289.581 167.328C289.558 167.991 289.476 168.652 289.336 169.301C289.209 169.904 289.014 170.491 288.756 171.051C288.507 171.566 288.192 172.045 287.82 172.478C287.447 172.922 287.002 173.299 286.504 173.593L283.862 175.032C283.834 175.055 283.798 175.068 283.761 175.068C283.725 175.068 283.689 175.055 283.661 175.032C283.629 174.998 283.604 174.957 283.588 174.913C283.573 174.869 283.567 174.822 283.572 174.775V164.351C283.575 164.227 283.606 164.105 283.661 163.994C283.7 163.893 283.771 163.807 283.862 163.749L286.448 162.244ZM288.165 165.711C288.16 165.409 288.115 165.109 288.031 164.819C287.98 164.6 287.868 164.399 287.708 164.239C287.638 164.169 287.555 164.114 287.463 164.078C287.37 164.042 287.272 164.024 287.173 164.028C286.894 164.046 286.624 164.139 286.393 164.295L284.988 165.098V172.367L286.448 171.531C286.731 171.366 286.983 171.155 287.195 170.906C287.403 170.662 287.579 170.392 287.719 170.104C287.858 169.797 287.963 169.475 288.031 169.145C288.109 168.801 288.154 168.45 288.165 168.097C288.199 167.283 288.199 166.491 288.165 165.711Z" fill="#FAFAFA"/>
<path d="M133.351 0.427322C135.275 0.855532 137.129 1.55368 138.858 2.50103C140.514 3.39103 141.997 4.56894 143.24 5.97951C144.428 7.33641 145.311 8.93352 145.826 10.6621C146.352 12.5124 146.391 14.4674 145.938 16.3369C145.639 17.8192 145.052 19.2283 144.21 20.4843C143.441 21.5584 142.525 22.5192 141.489 23.3385C140.472 24.1284 139.386 24.8261 138.245 25.4233L135.034 27.1291C134.067 27.6336 133.149 28.2271 132.291 28.9018C131.516 29.4967 130.921 30.2959 130.574 31.2097C130.405 31.6271 130.123 31.9897 129.761 32.2577C129.589 32.3909 129.39 32.4832 129.177 32.5277C128.965 32.5721 128.745 32.5675 128.534 32.5141L123.807 31.4661C123.579 31.4184 123.364 31.3257 123.172 31.1937C122.981 31.0616 122.818 30.8927 122.692 30.6968C122.559 30.5147 122.47 30.3038 122.433 30.081C122.396 29.8583 122.413 29.63 122.48 29.4147C122.861 27.9507 123.532 26.5782 124.454 25.3787C125.295 24.3178 126.269 23.3697 127.352 22.558C128.408 21.7853 129.527 21.1028 130.697 20.5178C131.812 19.9492 132.927 19.4029 133.897 18.8566C134.799 18.3716 135.648 17.7923 136.428 17.1285C137.112 16.5554 137.587 15.771 137.777 14.8987C137.954 14.1412 137.945 13.3521 137.751 12.5987C137.557 11.8454 137.183 11.1503 136.662 10.5729C135.358 9.14951 133.616 8.20359 131.712 7.88599C128.189 7.10556 125.216 8.29107 122.793 11.4425C122.559 11.7865 122.264 12.085 121.923 12.3233C121.538 12.514 121.094 12.5461 120.685 12.4125L115.657 11.2976C115.298 11.2283 114.982 11.0199 114.776 10.7178C114.667 10.5565 114.593 10.3734 114.56 10.181C114.528 9.98864 114.537 9.79149 114.587 9.60293C115.014 8.05372 115.81 6.63082 116.906 5.45551C118.142 4.0925 119.61 2.96 121.243 2.11082C123.028 1.17698 124.951 0.536992 126.94 0.215493C129.07 -0.131029 131.248 -0.0590789 133.351 0.427322ZM128.01 36.3047C128.452 36.4086 128.837 36.6813 129.08 37.0647C129.324 37.4481 129.408 37.9116 129.315 38.3562L128.111 43.8192C128.07 44.0479 127.981 44.2654 127.851 44.4576C127.72 44.6497 127.55 44.8121 127.352 44.934C127.166 45.0627 126.954 45.151 126.732 45.1933C126.509 45.2355 126.28 45.2307 126.059 45.1793L120.663 43.9418C120.434 43.9031 120.215 43.8153 120.023 43.6845C119.83 43.5537 119.668 43.3828 119.548 43.1837C119.423 42.9954 119.338 42.7835 119.298 42.5612C119.257 42.3388 119.263 42.1105 119.314 41.8904L120.529 36.4274C120.633 35.9845 120.905 35.5995 121.288 35.3539C121.671 35.1084 122.135 35.0215 122.581 35.1118L128.01 36.3047Z" fill="#EE2737"/>
<path d="M139.304 52.7272C140.646 52.5118 142.012 52.4855 143.362 52.6491C144.651 52.8024 145.904 53.1797 147.063 53.764C148.168 54.3369 149.14 55.1344 149.917 56.1053C150.617 57.0555 151.109 58.1418 151.362 59.294C151.616 60.4462 151.625 61.6387 151.389 62.7947C151.177 63.6834 150.835 64.5361 150.375 65.3255C149.931 66.0933 149.416 66.8175 148.836 67.4884C148.267 68.1573 147.721 68.7928 147.219 69.406C146.728 69.9773 146.292 70.5932 145.915 71.2456C145.562 71.8175 145.383 72.4802 145.402 73.1521C145.392 73.4661 145.304 73.7727 145.146 74.044C145.065 74.169 144.959 74.2754 144.834 74.3562C144.709 74.4369 144.568 74.4901 144.421 74.5123L141.076 75.0474C140.92 75.0758 140.76 75.0726 140.605 75.0382C140.449 75.0037 140.303 74.9386 140.173 74.8467C140.041 74.7639 139.931 74.651 139.852 74.5172C139.772 74.3835 139.726 74.2327 139.716 74.0774C139.576 73.04 139.652 71.9847 139.939 70.978C140.201 70.0868 140.576 69.2326 141.054 68.4361C141.523 67.6716 142.06 66.9514 142.659 66.2843C143.25 65.6154 143.774 64.991 144.287 64.389C144.745 63.8513 145.141 63.2642 145.469 62.6386C145.759 62.1001 145.865 61.4814 145.77 60.8771C145.686 60.3452 145.475 59.8414 145.155 59.4085C144.835 58.9757 144.415 58.6266 143.93 58.3908C142.732 57.8118 141.375 57.6471 140.073 57.9226C138.894 58.095 137.797 58.6279 136.933 59.4483C136.068 60.2687 135.479 61.3363 135.245 62.5048C135.18 62.7859 135.067 63.0536 134.911 63.2964C134.712 63.508 134.442 63.639 134.153 63.6643L130.63 64.2329C130.382 64.2803 130.126 64.2282 129.916 64.088C129.809 64.0142 129.718 63.9183 129.651 63.8068C129.584 63.6953 129.541 63.5707 129.526 63.4413C129.421 62.335 129.594 61.22 130.028 60.197C130.469 59.0066 131.118 57.9042 131.945 56.9415C132.852 55.8873 133.921 54.9841 135.112 54.2657C136.396 53.4866 137.82 52.9641 139.304 52.7272ZM145.056 77.0877C145.21 77.0633 145.367 77.0695 145.518 77.1058C145.669 77.1422 145.812 77.208 145.937 77.2995C146.069 77.3859 146.18 77.4991 146.265 77.6317C146.349 77.7642 146.405 77.9132 146.428 78.0688L147.052 81.8929C147.1 82.2031 147.025 82.5198 146.841 82.7745C146.657 83.0291 146.381 83.2011 146.071 83.2531L142.336 83.8663C142.026 83.9142 141.71 83.8381 141.455 83.6544C141.326 83.5669 141.217 83.4532 141.134 83.3207C141.051 83.1882 140.998 83.0398 140.976 82.8851L140.352 79.061C140.323 78.9076 140.328 78.7499 140.364 78.5982C140.401 78.4464 140.468 78.3041 140.563 78.1803C140.651 78.0509 140.765 77.9414 140.897 77.8589C141.03 77.7763 141.178 77.7224 141.333 77.7009L145.056 77.0877Z" fill="#EE2737"/>
<g opacity="0.2">
<path d="M139.304 52.7272C140.646 52.5118 142.012 52.4855 143.362 52.6491C144.651 52.8024 145.904 53.1797 147.063 53.764C148.168 54.3369 149.14 55.1344 149.917 56.1053C150.617 57.0555 151.109 58.1418 151.362 59.294C151.616 60.4462 151.625 61.6387 151.389 62.7947C151.177 63.6834 150.835 64.5361 150.375 65.3255C149.931 66.0933 149.416 66.8175 148.836 67.4884C148.267 68.1573 147.721 68.7928 147.219 69.406C146.728 69.9773 146.292 70.5932 145.915 71.2456C145.562 71.8175 145.383 72.4802 145.402 73.1521C145.392 73.4661 145.304 73.7727 145.146 74.044C145.065 74.169 144.959 74.2754 144.834 74.3562C144.709 74.4369 144.568 74.4901 144.421 74.5123L141.076 75.0474C140.92 75.0758 140.76 75.0726 140.605 75.0382C140.449 75.0037 140.303 74.9386 140.173 74.8467C140.041 74.7639 139.931 74.651 139.852 74.5172C139.772 74.3835 139.726 74.2327 139.716 74.0774C139.576 73.04 139.652 71.9847 139.939 70.978C140.201 70.0868 140.576 69.2326 141.054 68.4361C141.523 67.6716 142.06 66.9514 142.659 66.2843C143.25 65.6154 143.774 64.991 144.287 64.389C144.745 63.8513 145.141 63.2642 145.469 62.6386C145.759 62.1001 145.865 61.4814 145.77 60.8771C145.686 60.3452 145.475 59.8414 145.155 59.4085C144.835 58.9757 144.415 58.6266 143.93 58.3908C142.732 57.8118 141.375 57.6471 140.073 57.9226C138.894 58.095 137.797 58.6279 136.933 59.4483C136.068 60.2687 135.479 61.3363 135.245 62.5048C135.18 62.7859 135.067 63.0536 134.911 63.2964C134.712 63.508 134.442 63.639 134.153 63.6643L130.63 64.2329C130.382 64.2803 130.126 64.2282 129.916 64.088C129.809 64.0142 129.718 63.9183 129.651 63.8068C129.584 63.6953 129.541 63.5707 129.526 63.4413C129.421 62.335 129.594 61.22 130.028 60.197C130.469 59.0066 131.118 57.9042 131.945 56.9415C132.852 55.8873 133.921 54.9841 135.112 54.2657C136.396 53.4866 137.82 52.9641 139.304 52.7272ZM145.056 77.0877C145.21 77.0633 145.367 77.0695 145.518 77.1058C145.669 77.1422 145.812 77.208 145.937 77.2995C146.069 77.3859 146.18 77.4991 146.265 77.6317C146.349 77.7642 146.405 77.9132 146.428 78.0688L147.052 81.8929C147.1 82.2031 147.025 82.5198 146.841 82.7745C146.657 83.0291 146.381 83.2011 146.071 83.2531L142.336 83.8663C142.026 83.9142 141.71 83.8381 141.455 83.6544C141.326 83.5669 141.217 83.4532 141.134 83.3207C141.051 83.1882 140.998 83.0398 140.976 82.8851L140.352 79.061C140.323 78.9076 140.328 78.7499 140.364 78.5982C140.401 78.4464 140.468 78.3041 140.563 78.1803C140.651 78.0509 140.765 77.9414 140.897 77.8589C141.03 77.7763 141.178 77.7224 141.333 77.7009L145.056 77.0877Z" fill="black"/>
</g>
<path d="M170.833 58.7365C170.985 58.8422 171.114 58.9778 171.211 59.135C171.309 59.2922 171.374 59.4677 171.402 59.6507C171.437 59.8321 171.434 60.0189 171.394 60.1993C171.354 60.3796 171.277 60.5497 171.167 60.6987L168.514 64.4336C168.408 64.5856 168.273 64.7145 168.115 64.8122C167.958 64.91 167.783 64.9747 167.6 65.0022C167.418 65.0377 167.232 65.0352 167.051 64.9949C166.871 64.9546 166.701 64.8774 166.552 64.7681L162.895 62.1704C162.743 62.0661 162.614 61.9307 162.518 61.7731C162.422 61.6155 162.36 61.4393 162.337 61.2562C162.302 61.0748 162.304 60.888 162.345 60.7077C162.385 60.5273 162.462 60.3572 162.571 60.2082L165.258 56.4733C165.476 56.1705 165.804 55.9657 166.171 55.9031C166.538 55.8404 166.915 55.9251 167.221 56.1388L170.833 58.7365ZM186.263 33.4395C187.596 34.3739 188.784 35.5011 189.786 36.7842C190.764 37.9777 191.519 39.3372 192.016 40.7978C192.479 42.1976 192.635 43.6805 192.473 45.1459C192.284 46.7086 191.692 48.1953 190.756 49.4606C190.06 50.4836 189.166 51.3557 188.125 52.0248C187.209 52.599 186.214 53.0348 185.17 53.3181C184.154 53.5837 183.117 53.7627 182.071 53.8533L179.105 54.1208C178.216 54.1919 177.335 54.3449 176.474 54.5779C175.68 54.7583 174.953 55.1604 174.378 55.7374C174.119 56.0011 173.79 56.1866 173.431 56.2726C173.259 56.3217 173.079 56.3291 172.905 56.2942C172.73 56.2593 172.566 56.183 172.427 56.0719L169.194 53.7752C168.885 53.5545 168.673 53.223 168.603 52.8499C168.561 52.669 168.563 52.4809 168.607 52.3008C168.652 52.1207 168.738 51.9536 168.86 51.813C169.615 50.833 170.559 50.0141 171.636 49.4048C172.605 48.8754 173.64 48.4743 174.713 48.2119C175.749 47.9606 176.804 47.8002 177.868 47.7325C178.916 47.6656 179.897 47.5875 180.811 47.4983C181.648 47.4245 182.474 47.26 183.275 47.0078C183.976 46.7744 184.579 46.3158 184.992 45.7034C185.365 45.1862 185.607 44.5867 185.698 43.9559C185.789 43.325 185.727 42.6815 185.516 42.0799C184.989 40.594 183.98 39.3266 182.651 38.4788C180.243 36.7619 177.615 36.7061 174.768 38.3116C174.482 38.4939 174.165 38.6224 173.832 38.6907C173.659 38.7027 173.485 38.6803 173.32 38.6249C173.156 38.5694 173.004 38.4818 172.873 38.3673L169.439 35.9257C169.315 35.8432 169.208 35.7365 169.126 35.612C169.044 35.4875 168.987 35.3478 168.96 35.201C168.933 35.0493 168.938 34.8937 168.975 34.744C169.011 34.5943 169.078 34.4539 169.172 34.3314C169.982 33.2933 171.035 32.4702 172.238 31.9344C173.604 31.3153 175.068 30.938 176.563 30.8195C178.209 30.682 179.866 30.8138 181.469 31.2097C183.199 31.6266 184.829 32.3847 186.263 33.4395Z" fill="#EE2737"/>
<g opacity="0.6">
<path d="M170.833 58.7365C170.985 58.8422 171.114 58.9778 171.211 59.135C171.309 59.2922 171.374 59.4677 171.402 59.6507C171.437 59.8321 171.434 60.0189 171.394 60.1993C171.354 60.3796 171.277 60.5497 171.167 60.6987L168.514 64.4336C168.408 64.5856 168.273 64.7145 168.115 64.8122C167.958 64.91 167.783 64.9747 167.6 65.0022C167.418 65.0377 167.232 65.0352 167.051 64.9949C166.871 64.9546 166.701 64.8774 166.552 64.7681L162.895 62.1704C162.743 62.0661 162.614 61.9307 162.518 61.7731C162.422 61.6155 162.36 61.4393 162.337 61.2562C162.302 61.0748 162.304 60.888 162.345 60.7077C162.385 60.5273 162.462 60.3572 162.571 60.2082L165.258 56.4733C165.476 56.1705 165.804 55.9657 166.171 55.9031C166.538 55.8404 166.915 55.9251 167.221 56.1388L170.833 58.7365ZM186.263 33.4395C187.596 34.3739 188.784 35.5011 189.786 36.7842C190.764 37.9777 191.519 39.3372 192.016 40.7978C192.479 42.1976 192.635 43.6805 192.473 45.1459C192.284 46.7086 191.692 48.1953 190.756 49.4606C190.06 50.4836 189.166 51.3557 188.125 52.0248C187.209 52.599 186.214 53.0348 185.17 53.3181C184.154 53.5837 183.117 53.7627 182.071 53.8533L179.105 54.1208C178.216 54.1919 177.335 54.3449 176.474 54.5779C175.68 54.7583 174.953 55.1604 174.378 55.7374C174.119 56.0011 173.79 56.1866 173.431 56.2726C173.259 56.3217 173.079 56.3291 172.905 56.2942C172.73 56.2593 172.566 56.183 172.427 56.0719L169.194 53.7752C168.885 53.5545 168.673 53.223 168.603 52.8499C168.561 52.669 168.563 52.4809 168.607 52.3008C168.652 52.1207 168.738 51.9536 168.86 51.813C169.615 50.833 170.559 50.0141 171.636 49.4048C172.605 48.8754 173.64 48.4743 174.713 48.2119C175.749 47.9606 176.804 47.8002 177.868 47.7325C178.916 47.6656 179.897 47.5875 180.811 47.4983C181.648 47.4245 182.474 47.26 183.275 47.0078C183.976 46.7744 184.579 46.3158 184.992 45.7034C185.365 45.1862 185.607 44.5867 185.698 43.9559C185.789 43.325 185.727 42.6815 185.516 42.0799C184.989 40.594 183.98 39.3266 182.651 38.4788C180.243 36.7619 177.615 36.7061 174.768 38.3116C174.482 38.4939 174.165 38.6224 173.832 38.6907C173.659 38.7027 173.485 38.6803 173.32 38.6249C173.156 38.5694 173.004 38.4818 172.873 38.3673L169.439 35.9257C169.315 35.8432 169.208 35.7365 169.126 35.612C169.044 35.4875 168.987 35.3478 168.96 35.201C168.933 35.0493 168.938 34.8937 168.975 34.744C169.011 34.5943 169.078 34.4539 169.172 34.3314C169.982 33.2933 171.035 32.4702 172.238 31.9344C173.604 31.3153 175.068 30.938 176.563 30.8195C178.209 30.682 179.866 30.8138 181.469 31.2097C183.199 31.6266 184.829 32.3847 186.263 33.4395Z" fill="white"/>
</g>
<path d="M87.8067 157.427H48.1943V61.4569C48.1943 53.1214 51.5056 45.1274 57.3997 39.2333C63.2937 33.3392 71.2878 30.028 79.6233 30.028H83.2802C91.6157 30.028 99.6097 33.3392 105.504 39.2333C111.398 45.1274 114.709 53.1214 114.709 61.4569V130.581C114.694 137.706 111.854 144.534 106.81 149.568C101.766 154.601 94.932 157.427 87.8067 157.427Z" fill="#212A32"/>
<path d="M44.3376 388.468C43.6369 392.444 43.264 396.471 43.2227 400.509C43.0777 407.822 41.7399 410.42 41.5615 416.418C41.3496 423.275 42.5426 425.839 45.3187 429.697C48.0948 433.554 55.3528 437.044 58.4968 430.533C61.6408 424.022 61.1837 419.752 60.1914 413.029C59.1769 406.072 59.0765 402.225 58.4522 396.93C57.9393 392.258 57.3373 388.702 57.3373 388.702L44.3376 388.468Z" fill="#0B1219"/>
<path d="M65.0969 339.892L41.0151 339.457C41.3719 355.534 43.925 373.383 44.3598 388.512C44.449 391.355 44.2929 410.576 45.3632 416.385C46.9799 425.17 57.393 423.977 57.9504 418.726C58.5079 413.475 57.2815 391.032 57.3149 388.713C57.2146 379.036 61.7745 362.702 64.127 345.332C64.2273 344.496 64.9854 340.728 65.0969 339.892Z" fill="#FFA8A7"/>
<path d="M96.0347 375.958C96.0347 375.958 95.0871 375.446 94.9199 376.46C94.6857 377.664 94.329 380.15 93.805 382.135C93.1137 384.889 92.534 389.426 92.9465 391.679C93.359 393.931 98.599 396.807 101.999 397.855C106.19 399.148 110.012 401.423 113.148 404.489C116.493 407.655 123.773 410.643 128.757 410.609C134.61 410.609 138.691 408.658 140.62 405.526C142.548 402.393 138.858 402.014 132.169 397.721L126.984 394.377C116.382 387.453 112.491 383.752 109.514 376.828L96.0347 375.958Z" fill="#0B1219"/>
<path d="M109.603 371.666C109.425 366.694 112.859 324.428 112.859 324.428L89.9922 334.852C94.8866 364.085 95.9346 370.986 96.0126 375.769C95.9123 376.17 95.871 376.583 95.89 376.995C95.89 382.67 102.323 385.736 107.318 389.527C111.564 392.853 116.088 395.807 120.841 398.357C124.476 400.174 131.857 400.341 132.771 398.011C126.683 393.362 117.831 386.405 112.993 381.098C110.629 378.601 109.782 376.65 109.603 371.666Z" fill="#FFA8A7"/>
<path d="M50.8814 183.014C42.096 202.291 42.096 217.208 43.5565 241.814C44.8498 264.391 47.0016 284.292 47.0016 284.292C46.6671 288.294 41.1038 296.11 40.3791 313.814C39.7102 330.359 41.494 351.397 41.494 351.397C41.494 351.397 53.992 358.321 63.2345 351.33C63.2345 351.33 72.1537 308.752 74.7625 288.038C76.9923 269.965 81.006 246.876 81.006 246.876L89.4457 287.915C87.6242 293.738 86.3038 299.706 85.499 305.753C84.3172 317.939 91.1404 341.865 91.1404 341.865C91.1404 341.865 104.051 345.711 111.933 338.721C111.933 338.721 114.877 299.822 115.98 285.15C117.452 265.494 114.353 212.291 111.933 184.118L50.8814 183.014Z" fill="#182430"/>
<path d="M81.0283 246.842L84.4957 215.915C84.4957 215.915 100.037 213.841 107.083 207.219C105.067 210.374 102.38 213.046 99.2144 215.046C96.0486 217.047 92.4812 218.325 88.7657 218.791L83.7487 247.567L89.4458 287.915L81.0283 246.842Z" fill="#0B1219"/>
<path d="M143.965 175.411C144.607 169.767 144.89 164.088 144.812 158.408C144.466 153.503 143.585 152.7 136.729 144.015C127.475 132.275 119.571 121.717 111.209 111.226C105.233 103.734 98.9449 102.585 92.8353 102.92C88.5541 103.154 96.9158 123.746 101.119 135.932L125.123 161.775C125.866 162.795 126.208 164.054 126.082 165.31L124.632 187.295L131.823 196.928C131.823 196.928 142.716 187.541 143.965 175.411Z" fill="#FFA8A7"/>
<path d="M69.6895 103.589C65.0403 103.912 56.5894 104.704 56.5894 104.704C51.7173 107.424 50.4798 109.665 49.5767 116.131C49.1865 118.896 51.4386 126.244 53.3674 136.69L57.0242 156.056L56.6229 165.666C54.7275 171.531 50.4352 178.811 46.6445 189.547C65.2633 199.938 80.8719 200.329 95.0311 198.467C105.823 197.073 111.543 194.464 113.449 191.878C113.048 181.275 112.334 174.719 112.111 163.637C112.033 158.988 112.312 154.283 112.502 148.932C119.737 142.978 119.826 133.078 115.846 126.634C106.671 111.772 97.7403 102.418 91.8313 102.898L69.6895 103.589Z" fill="#EE2737"/>
<path opacity="0.1" d="M98.0864 149.077C98.0864 149.077 89.5909 155.677 79.8801 152.232C77.1532 151.373 74.6943 149.824 72.7411 147.736C70.788 145.648 69.4068 143.092 68.7311 140.314C68.7311 140.314 67.7054 151.407 79.9358 155.186C91.7872 158.832 98.0864 149.077 98.0864 149.077Z" fill="black"/>
<path d="M109.614 73.141C109.246 89.2401 104.04 93.2092 101.408 94.3241C98.7773 95.439 93.738 94.77 88.8324 93.9562V103.678C88.8324 103.678 94.4961 109.609 94.0725 114.035C93.6488 118.462 85.1533 118.963 78.8207 114.626C75.3265 112.226 72.166 109.373 69.4221 106.142C68.8952 105.519 68.6068 104.728 68.6082 103.912V81.1683C68.6082 81.1683 65.9213 84.0113 61.1718 80.7558C60.147 80.1018 59.2695 79.2417 58.5951 78.2302C57.9207 77.2187 57.4641 76.078 57.2544 74.8805C57.0447 73.683 57.0864 72.455 57.377 71.2746C57.6675 70.0941 58.2005 68.987 58.942 68.0236C61.0157 65.582 66.2781 65.4148 68.7977 69.1385C70.2248 71.9146 70.4143 74.713 72.0086 73.5981C76.2452 70.5433 73.9709 63.564 79.0882 60.2193C80.7675 59.3429 82.5119 58.5974 84.306 57.9895C93.437 54.8344 101.353 52.1809 103.259 45.9375C106.849 47.9889 110.06 54.1543 109.614 73.141Z" fill="#FFA8A7"/>
<path d="M91.6086 87.5232C92.7785 87.5232 93.7269 86.5748 93.7269 85.4049C93.7269 84.235 92.7785 83.2866 91.6086 83.2866C90.4386 83.2866 89.4902 84.235 89.4902 85.4049C89.4902 86.5748 90.4386 87.5232 91.6086 87.5232Z" fill="#B16668"/>
<path d="M90.2047 70.6994C90.2042 71.1355 90.0757 71.5619 89.8353 71.9258C89.5949 72.2897 89.253 72.5751 88.852 72.7466C88.451 72.9182 88.0085 72.9684 87.5793 72.891C87.1501 72.8136 86.753 72.6121 86.4371 72.3113C86.1213 72.0105 85.9006 71.6237 85.8024 71.1987C85.7042 70.7738 85.7327 70.3294 85.8845 69.9205C86.0363 69.5116 86.3047 69.1563 86.6565 68.8984C87.0082 68.6405 87.4278 68.4914 87.8634 68.4696C88.1655 68.4545 88.4675 68.501 88.751 68.6062C89.0345 68.7115 89.2937 68.8733 89.5127 69.0819C89.7317 69.2905 89.906 69.5414 90.025 69.8195C90.1439 70.0976 90.2051 70.3969 90.2047 70.6994Z" fill="#0B1219"/>
<path d="M107.094 70.9224C107.117 71.1951 107.085 71.4697 107.001 71.7301C106.917 71.9905 106.781 72.2315 106.603 72.4391C106.424 72.6466 106.206 72.8165 105.961 72.939C105.717 73.0614 105.45 73.1339 105.177 73.1521C104.901 73.1776 104.623 73.1441 104.362 73.054C104.1 72.9638 103.86 72.819 103.659 72.6292C103.458 72.4394 103.299 72.209 103.193 71.9531C103.088 71.6973 103.038 71.4219 103.047 71.1453C103.018 70.8705 103.046 70.5928 103.128 70.329C103.211 70.0653 103.346 69.8212 103.526 69.6116C103.706 69.4021 103.927 69.2315 104.176 69.1104C104.424 68.9892 104.694 68.9201 104.97 68.9071C105.246 68.8942 105.522 68.9378 105.781 69.0352C106.039 69.1326 106.275 69.2818 106.474 69.4736C106.673 69.6654 106.83 69.8958 106.937 70.1507C107.044 70.4055 107.097 70.6795 107.094 70.9558V70.9224Z" fill="#0B1219"/>
<path d="M87.339 76.4299C85.416 76.4299 83.5716 75.6668 82.2108 74.3081C80.85 72.9493 80.084 71.1061 80.0811 69.1831C80.0811 64.2552 85.165 64.2552 87.339 64.2552C89.5131 64.2552 94.5859 64.2552 94.5859 69.1831C94.5829 71.1042 93.8185 72.9457 92.4601 74.3041C91.1017 75.6625 89.2601 76.427 87.339 76.4299ZM87.339 65.3924C82.8794 65.3924 81.2294 66.5073 81.2294 69.1831C81.2294 70.8094 81.8754 72.3691 83.0254 73.519C84.1753 74.669 85.735 75.315 87.3613 75.315C88.9876 75.315 90.5473 74.669 91.6973 73.519C92.8472 72.3691 93.4933 70.8094 93.4933 69.1831C93.4487 66.4516 91.7317 65.3924 87.339 65.3924Z" fill="#182430"/>
<path d="M105.745 76.4299C103.822 76.4299 101.978 75.6668 100.617 74.3081C99.2562 72.9493 98.4903 71.1061 98.4873 69.1831C98.4873 64.2552 103.571 64.2552 105.745 64.2552C107.919 64.2552 112.992 64.2552 112.992 69.1831C112.989 71.1042 112.225 72.9457 110.866 74.3041C109.508 75.6625 107.666 76.427 105.745 76.4299ZM105.745 65.3924C101.353 65.3924 99.6356 66.5073 99.6356 69.1831C99.6356 70.8094 100.282 72.3691 101.432 73.519C102.582 74.669 104.141 75.315 105.768 75.315C107.394 75.315 108.954 74.669 110.104 73.519C111.253 72.3691 111.9 70.8094 111.9 69.1831C111.855 66.4516 110.138 65.3924 105.745 65.3924Z" fill="#182430"/>
<path d="M95.7109 66.8418L96.0677 80.3878L103.192 78.1803L95.7109 66.8418Z" fill="#F28F8F"/>
<path d="M88.8224 93.9896C83.6493 93.3095 73.002 90.2547 71.3408 86.0404C72.0094 88.1703 73.3125 90.0451 75.0757 91.4142C78.2532 94.1457 88.8224 97.2117 88.8224 97.2117V93.9896Z" fill="#F28F8F"/>
<path d="M89.0783 60.264L84.3512 63.1516C83.9786 62.5026 83.8704 61.7351 84.0489 61.0084C84.2275 60.2818 84.6791 59.6518 85.31 59.2494C85.6218 59.0602 85.9688 58.9361 86.33 58.8848C86.6911 58.8334 87.0589 58.8558 87.4112 58.9507C87.7634 59.0455 88.0927 59.2108 88.3793 59.4365C88.6658 59.6622 88.9037 59.9437 89.0783 60.264Z" fill="#0B1219"/>
<path d="M108.31 63.4748L103.048 61.6352C103.15 61.2865 103.322 60.9622 103.554 60.6824C103.785 60.4026 104.072 60.1732 104.396 60.0082C104.719 59.8432 105.073 59.7462 105.436 59.7231C105.799 59.6999 106.162 59.7512 106.504 59.8737C107.21 60.1273 107.791 60.6427 108.127 61.3131C108.463 61.9834 108.529 62.7575 108.31 63.4748Z" fill="#0B1219"/>
<path d="M94.017 69.7629C93.9413 69.7629 93.8665 69.7479 93.7968 69.7186C93.727 69.6893 93.6638 69.6464 93.6109 69.5925C93.558 69.5385 93.5163 69.4745 93.4884 69.4042C93.4605 69.3339 93.4469 69.2588 93.4484 69.1832C93.4484 68.2578 95.2768 67.6558 96.9268 67.6558C98.5769 67.6558 99.636 68.2578 99.636 69.1832C99.6014 69.3043 99.5283 69.4109 99.4277 69.4868C99.3271 69.5626 99.2046 69.6037 99.0786 69.6037C98.9526 69.6037 98.83 69.5626 98.7295 69.4868C98.6289 69.4109 98.5557 69.3043 98.5211 69.1832C98.5211 69.0717 97.9525 68.793 96.9603 68.793C96.1614 68.776 95.3666 68.9122 94.619 69.1943C94.6191 69.2719 94.6034 69.3487 94.5728 69.4199C94.5421 69.4912 94.4972 69.5554 94.4408 69.6087C94.3844 69.6619 94.3177 69.7031 94.2448 69.7296C94.1719 69.7562 94.0944 69.7675 94.017 69.7629Z" fill="#182430"/>
<path d="M80.6714 69.2723H80.6045L67.8612 68.1574C67.2658 67.5672 66.5564 67.1044 65.7764 66.7972L80.7383 68.1797C80.8883 68.1993 81.0247 68.2766 81.1185 68.3954C81.2122 68.5141 81.2558 68.6648 81.24 68.8152C81.2139 68.946 81.1426 69.0634 81.0387 69.147C80.9347 69.2305 80.8047 69.2749 80.6714 69.2723Z" fill="#182430"/>
<path d="M28.3494 82.5619C32.5191 76.9874 35.3621 72.7843 39.1639 68.0683C41.3268 65.3591 42.7093 63.4191 44.7384 60.643C46.1655 58.7254 46.9682 57.1088 48.596 56.5179C50.3546 55.7973 51.9394 54.7103 53.2451 53.3293C54.0476 52.4414 54.7924 51.503 55.4749 50.5198C57.8645 47.3034 60.7029 44.4462 63.9035 42.0354C67.2482 39.5157 70.9831 37.5758 74.4281 35.1788C76.4796 33.7406 78.6759 31.3547 76.1785 29.1249C75.4126 28.4798 74.496 28.0388 73.5139 27.8427C67.4377 26.5272 62.1531 28.612 56.2107 30.1283C53.6295 30.7725 51.1051 31.6264 48.6629 32.6814C47.4616 33.1565 46.3351 33.8023 45.3182 34.599C43.8964 36.0325 42.7312 37.6993 41.8731 39.5269C39.2754 44.1648 33.7009 48.3123 29.7988 51.9803C25.2388 56.2726 21.1583 60.2082 15.9518 64.9354C11.2692 69.2055 6.68694 73.1299 2.39459 77.7902C-1.16194 81.6366 0.16479 84.6468 0.633047 85.6948C3.53178 91.6484 6.77613 93.789 10.6671 97.4793C17.3565 103.868 40.4907 122.252 48.15 128.328C49.7957 129.621 51.0881 131.308 51.9072 133.234L53.3789 136.634C62.1197 138.24 67.9506 125.118 60.7149 109.319C59.5166 106.765 57.6862 104.558 55.3968 102.909C46.2547 96.2529 28.3494 82.5619 28.3494 82.5619Z" fill="#FFA8A7"/>
<path d="M28.3492 82.5619C25.567 85.9844 21.8595 88.5348 17.6685 89.9091C17.6685 89.9091 23.243 91.3361 30.88 84.4795L28.3492 82.5619Z" fill="#F28F8F"/>
<path d="M141.69 163.782L140.263 162.556C140.05 162.415 139.807 162.327 139.553 162.298C139.299 162.269 139.042 162.3 138.803 162.389L123.317 166.603C122.537 166.863 121.822 167.289 121.222 167.85C120.621 168.412 120.149 169.097 119.838 169.858L108.689 202.001C108.555 202.263 108.502 202.559 108.538 202.851C108.574 203.143 108.697 203.418 108.89 203.64L110.362 204.911C110.576 205.058 110.823 205.152 111.081 205.183C111.339 205.214 111.601 205.182 111.845 205.089L127.353 200.875C128.133 200.615 128.848 200.189 129.448 199.627C130.048 199.065 130.52 198.381 130.831 197.619C133.061 191.298 139.75 171.798 141.98 165.477C142.248 164.685 142.114 164.083 141.69 163.782Z" fill="#182430"/>
<path d="M110.149 203.238L121.298 171.096C121.608 170.335 122.08 169.651 122.68 169.091C123.281 168.531 123.996 168.108 124.777 167.852L140.252 163.637C141.69 163.247 142.481 164.072 141.969 165.477C139.739 171.798 133.049 191.298 130.82 197.619C130.508 198.381 130.037 199.066 129.436 199.627C128.836 200.189 128.121 200.615 127.341 200.875L111.866 205.134C110.439 205.468 109.67 204.643 110.149 203.238Z" fill="#EE2737"/>
<path d="M123.094 168.743C122.289 169.353 121.665 170.17 121.288 171.107L110.139 203.238C110.011 203.494 109.958 203.78 109.986 204.064C110.013 204.348 110.12 204.618 110.295 204.844L108.912 203.662C108.714 203.443 108.588 203.169 108.55 202.876C108.512 202.583 108.565 202.285 108.701 202.023L119.85 169.881C120.202 169.007 120.774 168.239 121.511 167.651L123.094 168.743Z" fill="#182430"/>
<path d="M137.442 178.432C136.327 181.699 132.459 183.884 126.059 185.4C119.66 186.916 116.125 193.706 117.14 195.769C118.154 197.831 128.501 199.76 132.637 199.169C136.773 198.578 140.921 192.602 142.181 190.752C143.44 188.901 144.89 175.99 143.563 174.218C142.236 172.445 139.438 172.724 139.438 172.724L137.442 178.432Z" fill="#F28F8F"/>
</svg>
