<svg width="153" height="138" viewBox="0 0 153 138" fill="none" xmlns="http://www.w3.org/2000/svg">
<g clip-path="url(#clip0_174_138)">
<path d="M0.268555 62.4564C0.268555 57.4925 5.29188 54.1057 9.89352 55.9672L74.9114 82.2678C76.6174 82.9579 78.5264 82.9484 80.2254 82.2415L143.043 56.1051C147.653 54.1868 152.732 57.5744 152.732 62.568V129.895C152.732 133.761 149.598 136.895 145.732 136.895H7.26855C3.40255 136.895 0.268555 133.761 0.268555 129.895V62.4564Z" fill="#AF272F"/>
<path d="M151.658 52.5232C151.603 52.5233 151.549 52.5065 151.504 52.4751L77.2701 0.776296C77.0442 0.6197 76.7758 0.536011 76.5009 0.53648C76.226 0.536949 75.9579 0.621551 75.7325 0.778918L2.03299 52.4746C1.9747 52.5155 1.90255 52.5316 1.83242 52.5192C1.76229 52.5069 1.69992 52.4673 1.65903 52.409C1.61814 52.3507 1.60209 52.2785 1.61439 52.2084C1.6267 52.1383 1.66637 52.0759 1.72466 52.035L75.4242 0.339326C75.7398 0.119046 76.1152 0.000634983 76.5 2.54667e-06C76.8849 -0.000629889 77.2607 0.116546 77.577 0.335787L151.811 52.0345C151.858 52.0672 151.893 52.114 151.912 52.1681C151.93 52.2222 151.931 52.2807 151.914 52.3353C151.897 52.3898 151.863 52.4374 151.816 52.4712C151.77 52.505 151.715 52.5233 151.658 52.5232Z" fill="#3F3D56"/>
<path d="M6.24414 54.3557L76.5737 2.23291L147.437 58.0645L80.1974 97.925L43.6921 89.604L6.24414 54.3557Z" fill="#E6E6E6"/>
<path d="M46.7741 122.545H12.0296C11.8163 122.546 11.605 122.504 11.4078 122.422C11.2106 122.341 11.0314 122.221 10.8805 122.071C10.7295 121.92 10.6098 121.741 10.5281 121.544C10.4464 121.347 10.4043 121.135 10.4043 120.922C10.4043 120.709 10.4464 120.497 10.5281 120.3C10.6098 120.103 10.7295 119.924 10.8805 119.774C11.0314 119.623 11.2106 119.503 11.4078 119.422C11.605 119.34 11.8163 119.299 12.0296 119.299H46.7741C46.9875 119.299 47.1988 119.34 47.396 119.422C47.5931 119.503 47.7723 119.623 47.9233 119.774C48.0742 119.924 48.194 120.103 48.2757 120.3C48.3574 120.497 48.3995 120.709 48.3995 120.922C48.3995 121.135 48.3574 121.347 48.2757 121.544C48.194 121.741 48.0742 121.92 47.9233 122.071C47.7723 122.221 47.5931 122.341 47.396 122.422C47.1988 122.504 46.9875 122.546 46.7741 122.545Z" fill="#FF5656"/>
<path d="M24.4952 115.566H12.0296C11.8163 115.567 11.605 115.525 11.4078 115.443C11.2106 115.362 11.0314 115.242 10.8805 115.092C10.7295 114.941 10.6098 114.762 10.5281 114.565C10.4464 114.368 10.4043 114.156 10.4043 113.943C10.4043 113.73 10.4464 113.518 10.5281 113.321C10.6098 113.124 10.7295 112.945 10.8805 112.795C11.0314 112.644 11.2106 112.524 11.4078 112.443C11.605 112.361 11.8163 112.32 12.0296 112.32H24.4952C24.7085 112.32 24.9198 112.361 25.117 112.443C25.3142 112.524 25.4934 112.644 25.6443 112.795C25.7953 112.945 25.915 113.124 25.9968 113.321C26.0785 113.518 26.1205 113.73 26.1205 113.943C26.1205 114.156 26.0785 114.368 25.9968 114.565C25.915 114.762 25.7953 114.941 25.6443 115.092C25.4934 115.242 25.3142 115.362 25.117 115.443C24.9198 115.525 24.7085 115.567 24.4952 115.566Z" fill="#FF5656"/>
<path d="M77.5635 83.3876C77.2994 83.3879 77.0378 83.3366 76.7933 83.2367L33.4189 65.2394V8.90483C33.4195 8.40668 33.6177 7.9291 33.9699 7.57685C34.3222 7.22461 34.7997 7.02646 35.2979 7.02588H118.508C119.007 7.02646 119.484 7.22461 119.836 7.57685C120.189 7.9291 120.387 8.40668 120.387 8.90483V65.2787L120.306 65.3136L78.3569 83.228C78.1057 83.3335 77.8359 83.3878 77.5635 83.3876Z" fill="white"/>
<path d="M77.5629 83.5216C77.2813 83.5219 77.0024 83.4674 76.7416 83.3609L33.2842 65.329V8.90476C33.2848 8.37102 33.4971 7.85932 33.8745 7.48191C34.2519 7.1045 34.7636 6.89221 35.2973 6.8916H118.508C119.042 6.89221 119.553 7.1045 119.931 7.48191C120.308 7.85932 120.52 8.37102 120.521 8.90476V65.3673L78.4091 83.3512C78.1412 83.4639 77.8535 83.5219 77.5629 83.5216ZM33.821 64.9704L76.9464 82.8646C77.3486 83.0278 77.7991 83.0251 78.1993 82.8571L119.984 65.0129V8.90476C119.984 8.51336 119.828 8.13812 119.551 7.86136C119.275 7.5846 118.899 7.42891 118.508 7.42844H35.2973C34.9059 7.42891 34.5307 7.5846 34.2539 7.86136C33.9772 8.13812 33.8215 8.51336 33.821 8.90476L33.821 64.9704Z" fill="#3F3D56"/>
<path d="M151.121 51.9863H151.067L120.253 65.1443L78.0918 83.1473C77.927 83.2166 77.7503 83.2528 77.5715 83.2537C77.3928 83.2546 77.2157 83.2203 77.0502 83.1527L33.5526 65.1068L1.98092 52.0078L1.93268 51.9863H1.87895C1.38079 51.9869 0.903191 52.185 0.55094 52.5373C0.198689 52.8895 0.000552746 53.3671 0 53.8653V135.465C0.000553455 135.963 0.198689 136.441 0.55094 136.793C0.903191 137.146 1.38079 137.344 1.87895 137.344H151.121C151.619 137.344 152.097 137.146 152.449 136.793C152.801 136.441 152.999 135.963 153 135.465V53.8653C152.999 53.3671 152.801 52.8895 152.449 52.5373C152.097 52.185 151.619 51.9869 151.121 51.9863ZM152.463 135.465C152.463 135.821 152.322 136.162 152.07 136.414C151.818 136.666 151.477 136.807 151.121 136.807H1.87895C1.52304 136.807 1.18176 136.666 0.930094 136.414C0.678432 136.162 0.536984 135.821 0.536842 135.465V53.8653C0.537329 53.5182 0.671955 53.1848 0.912573 52.9346C1.15319 52.6845 1.48117 52.5371 1.82796 52.5232L33.5526 65.6865L76.8437 83.6493C77.3123 83.8399 77.8374 83.837 78.3038 83.6412L120.253 65.7268L151.175 52.5232C151.521 52.5381 151.848 52.686 152.088 52.9359C152.328 53.1859 152.462 53.5188 152.463 53.8653V135.465Z" fill="#3F3D56"/>
<path d="M63.0049 29.0049L91.9995 57.9995" stroke="#FF5656" stroke-width="14" stroke-linecap="round"/>
<path d="M63 57.9946L91.9946 29" stroke="#FF5656" stroke-width="14" stroke-linecap="round"/>
</g>
<defs>
<clipPath id="clip0_174_138">
<rect width="153" height="137.344" fill="white"/>
</clipPath>
</defs>
</svg>
