<svg width="29" height="33" viewBox="0 0 29 33" fill="none" xmlns="http://www.w3.org/2000/svg">
<path d="M14.8315 0.500692L0.883087 8.3579L14.678 16.0644L23.8746 11.0782L20.1959 8.81151L14.9075 11.7579L8.77141 8.43327L14.9075 4.95793C14.9069 4.97245 12.2253 3.22026 14.8308 0.5L14.8315 0.500692Z" fill="white"/>
<path d="M0.5 9.03831L7.85728 19.7665L14.6012 20.673V24.6808L5.71163 22.789L0.5 14.7271V9.03831Z" fill="white"/>
<path d="M0.5 20.411L14.4484 28.0773V32.5L0.5 24.5972V20.411Z" fill="white"/>
<path d="M15.2146 26.8686V31.7926C15.2146 31.7926 15.4102 32.334 16.462 31.7926C17.5137 31.2512 28.8559 24.9042 28.8559 24.9042V16.0644C28.8559 16.0644 29.0094 15.2332 27.0166 16.2912C25.0238 17.3491 19.353 20.5223 19.353 20.5223V18.86L28.8559 13.5716L28.8587 10.368C28.8587 10.368 28.7024 9.49192 27.4765 10.2477C26.2505 11.0035 15.3674 16.7455 15.3674 16.7455V24.1498C15.3674 24.1498 15.6737 24.9055 16.5934 24.4519C17.513 23.9983 25.0238 19.9186 25.0238 19.9186V23.5454L19.3523 26.7186V25.3585C19.3523 25.3585 19.046 24.4519 17.9728 25.0563C16.8997 25.6606 15.2139 26.8693 15.2139 26.8693L15.2146 26.8686Z" fill="#EE2737"/>
<path d="M19.353 3.29631L27.1701 7.82961C27.1701 7.82961 28.2433 8.43396 26.8638 9.34048C25.4843 10.247 24.7182 10.7006 24.7182 10.7006L16.9011 6.01657C16.9011 6.01657 16.2877 5.56296 17.0546 4.95861C17.8207 4.35426 19.3537 3.29631 19.3537 3.29631H19.353Z" fill="#EE2737"/>
<path d="M15.6744 1.02968L17.82 2.38981C17.82 2.38981 18.228 2.84341 17.5642 3.29633C16.9004 3.74924 15.5209 4.65646 15.5209 4.65646C15.5209 4.65646 12.9154 3.14559 15.6744 1.02968Z" fill="#EE2737"/>
</svg>
