<svg width="76" height="86" viewBox="0 0 76 86" fill="none" xmlns="http://www.w3.org/2000/svg">
<path d="M38.7024 0.00183823L1.81323 20.8852L38.2964 41.3679L62.6186 28.1153L52.8897 22.0908L38.9036 29.9219L22.6754 21.0855L38.9036 11.8486C38.9018 11.8871 31.8099 7.23006 38.7006 0L38.7024 0.00183823Z" fill="white"/>
<path d="M0.800049 22.6936L20.2578 51.2077L38.0934 53.6171V64.2692L14.5832 59.2409L0.800049 37.8135V22.6936Z" fill="white"/>
<path d="M0.800049 52.9207L37.6892 73.2968V85.0516L0.800049 64.0469V52.9207Z" fill="white"/>
<path d="M39.7155 70.0843V83.1715C39.7155 83.1715 40.233 84.6105 43.0145 83.1715C45.796 81.7325 75.7927 64.863 75.7927 64.863V41.368C75.7927 41.368 76.1987 39.1589 70.9283 41.9708C65.6579 44.7827 50.6604 53.2166 50.6604 53.2166V48.7984L75.7927 34.7426L75.8 26.2279C75.8 26.2279 75.3867 23.8994 72.1444 25.9081C68.902 27.9169 40.1196 43.1783 40.1196 43.1783V62.8579C40.1196 62.8579 40.9297 64.8666 43.3619 63.661C45.7942 62.4554 65.6579 51.6121 65.6579 51.6121V61.2516L50.6586 69.6854V66.0704C50.6586 66.0704 49.8485 63.661 47.0103 65.2673C44.1721 66.8736 39.7136 70.0861 39.7136 70.0861L39.7155 70.0843Z" fill="white"/>
<path d="M50.6604 7.43213L71.3342 19.481C71.3342 19.481 74.1724 21.0873 70.5241 23.4967C66.8758 25.9061 64.8495 27.1117 64.8495 27.1117L44.1757 14.6622C44.1757 14.6622 42.5536 13.4566 44.5817 11.8503C46.6079 10.244 50.6622 7.43213 50.6622 7.43213H50.6604Z" fill="white"/>
<path d="M40.9315 1.40771L46.606 5.02274C46.606 5.02274 47.685 6.22837 45.9294 7.43215C44.1738 8.63594 40.5255 11.0472 40.5255 11.0472C40.5255 11.0472 33.6349 7.0315 40.9315 1.40771Z" fill="white"/>
</svg>
