<svg width="24" height="24" viewBox="0 0 24 24" fill="none" xmlns="http://www.w3.org/2000/svg">
<path d="M9.5 17H17M22 4.5V19.5C22 20.163 21.7366 20.7989 21.2678 21.2678C20.7989 21.7366 20.163 22 19.5 22H7C6.33696 22 5.70107 21.7366 5.23223 21.2678C4.76339 20.7989 4.5 20.163 4.5 19.5V4.5C4.5 3.83696 4.76339 3.20107 5.23223 2.73223C5.70107 2.26339 6.33696 2 7 2H19.5C20.163 2 20.7989 2.26339 21.2678 2.73223C21.7366 3.20107 22 3.83696 22 4.5Z" stroke="#101820" stroke-width="2" stroke-linecap="round" stroke-linejoin="round"/>
<path d="M2 7H5.75M2 12H5.75M2 17H5.75M10.75 10.75C10.75 11.413 11.0134 12.0489 11.4822 12.5178C11.9511 12.9866 12.587 13.25 13.25 13.25C13.913 13.25 14.5489 12.9866 15.0178 12.5178C15.4866 12.0489 15.75 11.413 15.75 10.75C15.75 10.087 15.4866 9.45107 15.0178 8.98223C14.5489 8.51339 13.913 8.25 13.25 8.25C12.587 8.25 11.9511 8.51339 11.4822 8.98223C11.0134 9.45107 10.75 10.087 10.75 10.75Z" stroke="#101820" stroke-width="2" stroke-linecap="round" stroke-linejoin="round"/>
</svg>
