<svg width="24" height="24" viewBox="0 0 24 24" fill="none" xmlns="http://www.w3.org/2000/svg">
<path d="M6.02978 4.87991C6.0933 3.82389 6.96824 3 8.02617 3H11C12.1046 3 13 3.89543 13 5V16.5719C13 17.3136 12.5895 17.9944 11.9335 18.3406L8.14331 20.341C6.76428 21.0689 5.11978 20.0087 5.2134 18.4522L6.02978 4.87991Z" fill="#EE2737"/>
<path d="M20 6.28571V21.2857L12.5 17L5 21.2857V6.28571C5 5.14907 5.52678 4.05898 6.46447 3.25526C7.40215 2.45153 8.67392 2 10 2H15C16.3261 2 17.5979 2.45153 18.5355 3.25526C19.4732 4.05898 20 5.14907 20 6.28571Z" stroke="white" stroke-width="2.2" stroke-linecap="round" stroke-linejoin="round"/>
</svg>
