<svg width="70" height="70" viewBox="0 0 70 70" fill="none" xmlns="http://www.w3.org/2000/svg">
<circle cx="24.3333" cy="19.5" r="9" fill="#F47D87"/>
<circle cx="53.3333" cy="32.5" r="7" fill="#F47D87"/>
<path d="M20.3333 26.1447C22.2229 26.1447 24.0352 25.3961 25.3714 24.0637C26.7076 22.7312 27.4583 20.9239 27.4583 19.0395C27.4583 17.155 26.7076 15.3478 25.3714 14.0153C24.0352 12.6828 22.2229 11.9342 20.3333 11.9342C18.4436 11.9342 16.6313 12.6828 15.2951 14.0153C13.9589 15.3478 13.2083 17.155 13.2083 19.0395C13.2083 20.9239 13.9589 22.7312 15.2951 24.0637C16.6313 25.3961 18.4436 26.1447 20.3333 26.1447ZM20.3333 31.8289C18.649 31.8289 16.9813 31.4981 15.4253 30.8554C13.8693 30.2127 12.4555 29.2706 11.2646 28.083C10.0737 26.8954 9.12901 25.4855 8.4845 23.9338C7.83998 22.3821 7.50825 20.719 7.50825 19.0395C7.50825 17.3599 7.83998 15.6968 8.4845 14.1452C9.12901 12.5935 10.0737 11.1836 11.2646 9.99595C12.4555 8.80834 13.8693 7.86627 15.4253 7.22354C16.9813 6.58081 18.649 6.25 20.3333 6.25C23.7347 6.25 26.9967 7.59746 29.4019 9.99595C31.807 12.3944 33.1583 15.6475 33.1583 19.0395C33.1583 22.4315 31.807 25.6845 29.4019 28.083C26.9967 30.4815 23.7347 31.8289 20.3333 31.8289ZM50.2583 37.5132C51.77 37.5132 53.2198 36.9143 54.2888 35.8483C55.3577 34.7823 55.9583 33.3365 55.9583 31.8289C55.9583 30.3214 55.3577 28.8756 54.2888 27.8096C53.2198 26.7436 51.77 26.1447 50.2583 26.1447C48.7465 26.1447 47.2967 26.7436 46.2277 27.8096C45.1588 28.8756 44.5583 30.3214 44.5583 31.8289C44.5583 33.3365 45.1588 34.7823 46.2277 35.8483C47.2967 36.9143 48.7465 37.5132 50.2583 37.5132ZM50.2583 43.1974C47.2348 43.1974 44.3351 41.9996 42.1972 39.8676C40.0593 37.7356 38.8583 34.844 38.8583 31.8289C38.8583 28.8139 40.0593 25.9223 42.1972 23.7903C44.3351 21.6583 47.2348 20.4605 50.2583 20.4605C53.2817 20.4605 56.1814 21.6583 58.3193 23.7903C60.4572 25.9223 61.6583 28.8139 61.6583 31.8289C61.6583 34.844 60.4572 37.7356 58.3193 39.8676C56.1814 41.9996 53.2817 43.1974 50.2583 43.1974ZM57.3833 60.25V58.8289C57.3833 56.9445 56.6326 55.1373 55.2964 53.8048C53.9602 52.4723 52.1479 51.7237 50.2583 51.7237C48.3686 51.7237 46.5563 52.4723 45.2201 53.8048C43.8839 55.1373 43.1333 56.9445 43.1333 58.8289V60.25H37.4333V58.8289C37.4333 57.1494 37.765 55.4863 38.4095 53.9346C39.054 52.3829 39.9987 50.973 41.1896 49.7854C42.3805 48.5978 43.7943 47.6557 45.3503 47.013C46.9063 46.3703 48.574 46.0395 50.2583 46.0395C51.9425 46.0395 53.6102 46.3703 55.1662 47.013C56.7222 47.6557 58.136 48.5978 59.3269 49.7854C60.5178 50.973 61.4625 52.3829 62.107 53.9346C62.7515 55.4863 63.0833 57.1494 63.0833 58.8289V60.25H57.3833ZM28.8833 60.25V48.8816C28.8833 47.7619 28.6621 46.6532 28.2324 45.6187C27.8027 44.5842 27.173 43.6443 26.379 42.8526C25.5851 42.0608 24.6425 41.4328 23.6052 41.0043C22.5679 40.5758 21.4561 40.3553 20.3333 40.3553C19.2104 40.3553 18.0986 40.5758 17.0613 41.0043C16.024 41.4328 15.0814 42.0608 14.2875 42.8526C13.4935 43.6443 12.8638 44.5842 12.4341 45.6187C12.0044 46.6532 11.7833 47.7619 11.7833 48.8816V60.25H6.08325V48.8816C6.08325 45.1127 7.58459 41.4982 10.257 38.8332C12.9294 36.1682 16.5539 34.6711 20.3333 34.6711C24.1126 34.6711 27.7371 36.1682 30.4095 38.8332C33.0819 41.4982 34.5833 45.1127 34.5833 48.8816V60.25H28.8833Z" fill="#EE2737"/>
</svg>
