<svg width="70" height="70" viewBox="0 0 70 70" fill="none" xmlns="http://www.w3.org/2000/svg">
<path d="M17.4167 58.875V54.875C17.4167 52.7533 18.2605 50.7184 19.7625 49.2181C21.2645 47.7179 23.3016 46.875 25.4256 46.875H33.4345C34.1193 46.875 34.784 46.961 35.4167 47.123" stroke="#F47D87" stroke-width="13" stroke-linecap="round" stroke-linejoin="round"/>
<circle cx="32.9167" cy="20.375" r="9.5" fill="#F47D87"/>
<path d="M12.6667 60.25V54.5C12.6667 51.45 13.8784 48.5249 16.035 46.3683C18.1917 44.2116 21.1168 43 24.1667 43H35.6667C36.65 43 37.6045 43.1236 38.513 43.3565M50.0417 45.875V63.125M50.0417 63.125L58.6667 54.5M50.0417 63.125L41.4167 54.5M18.4167 20C18.4167 23.05 19.6284 25.9751 21.785 28.1317C23.9417 30.2884 26.8668 31.5 29.9167 31.5C32.9667 31.5 35.8918 30.2884 38.0485 28.1317C40.2051 25.9751 41.4167 23.05 41.4167 20C41.4167 16.95 40.2051 14.0249 38.0485 11.8683C35.8918 9.7116 32.9667 8.5 29.9167 8.5C26.8668 8.5 23.9417 9.7116 21.785 11.8683C19.6284 14.0249 18.4167 16.95 18.4167 20Z" stroke="#EE2737" stroke-width="6" stroke-linecap="round" stroke-linejoin="round"/>
</svg>
