<svg width="30" height="30" viewBox="0 0 30 30" fill="none" xmlns="http://www.w3.org/2000/svg">
<path d="M15.1395 0.000648395L2.35121 7.36678L14.9987 14.5916L23.4304 9.91702L20.0577 7.79204L15.2092 10.5543L9.58343 7.43744L15.2092 4.17931C15.2086 4.19292 12.7501 2.55024 15.1388 0L15.1395 0.000648395Z" fill="black"/>
<path d="M2 8.00464L8.74534 18.0623L14.9284 18.9122V22.6695L6.77816 20.8959L2 13.3378V8.00464Z" fill="black"/>
<path d="M2 18.6666L14.7883 25.8538V30L2 22.5911V18.6666Z" fill="black"/>
<path d="M15.4907 24.7206V29.3368C15.4907 29.3368 15.6701 29.8444 16.6344 29.3368C17.5986 28.8292 27.9975 22.8789 27.9975 22.8789V14.5916C27.9975 14.5916 28.1382 13.8124 26.3111 14.8042C24.4841 15.796 19.2849 18.7709 19.2849 18.7709V17.2125L27.9975 12.2546L28 9.25125C28 9.25125 27.8567 8.42991 26.7327 9.13845C25.6087 9.84699 15.6308 15.2301 15.6308 15.2301V22.1716C15.6308 22.1716 15.9116 22.8802 16.7548 22.4549C17.598 22.0297 24.4841 18.205 24.4841 18.205V21.6051L19.2843 24.5799V23.3048C19.2843 23.3048 19.0035 22.4549 18.0196 23.0215C17.0356 23.5881 15.4901 24.7212 15.4901 24.7212L15.4907 24.7206Z" fill="#EE2737"/>
<path d="M19.2849 2.62152L26.4519 6.87149C26.4519 6.87149 27.4358 7.43806 26.171 8.28793C24.9063 9.13779 24.2038 9.56305 24.2038 9.56305L17.0369 5.17176C17.0369 5.17176 16.4746 4.7465 17.1777 4.17993C17.8801 3.61335 19.2856 2.62152 19.2856 2.62152H19.2849Z" fill="#EE2737"/>
<path d="M15.9123 0.496582L17.8795 1.7717C17.8795 1.7717 18.2535 2.19696 17.6449 2.62157C17.0363 3.04617 15.7715 3.89669 15.7715 3.89669C15.7715 3.89669 13.3828 2.48025 15.9123 0.496582Z" fill="#EE2737"/>
</svg>
